<?xml version="1.0" encoding="UTF-8" standalone="no"?>
<svg width="246px" height="246px" viewBox="0 0 246 246" version="1.1" xmlns="http://www.w3.org/2000/svg" xmlns:xlink="http://www.w3.org/1999/xlink" xmlns:sketch="http://www.bohemiancoding.com/sketch/ns">
    <!-- Generator: Sketch 3.3.2 (12043) - http://www.bohemiancoding.com/sketch -->
    <title>citymapper</title>
    <desc>Created with Sketch.</desc>
    <defs></defs>
    <g id="Page-1" stroke="none" stroke-width="1" fill="none" fill-rule="evenodd" sketch:type="MSPage">
        <g id="citymapper" sketch:type="MSLayerGroup">
            <g id="Group" sketch:type="MSShapeGroup">
                <path d="M0.24,64.21 L0.24,63.49 C0.494,63.066 0.286,62.593 0.379,62.15 C0.429,62.013 0.511,61.902 0.628,61.813 C0.763,61.744 0.901,61.689 1.045,61.646 C1.675,61.471 2.318,61.524 2.956,61.524 C83.061,61.52 163.165,61.52 243.27,61.529 C244.055,61.529 244.877,61.365 245.613,61.815 C245.807,61.969 245.887,62.174 245.877,62.416 C245.881,62.925 245.878,63.435 245.879,63.945 L245.879,65.634 L245.879,67.109 L245.879,68.82 L245.879,71.665 L245.879,75.246 C245.81,75.772 246.038,76.329 245.712,76.828 C245.407,77.143 245.012,77.183 244.606,77.199 C244.086,77.22 243.567,77.219 243.047,77.219 C163.109,77.22 83.171,77.22 3.233,77.208 C2.335,77.208 1.385,77.433 0.55,76.867 C0.214,76.454 0.416,75.964 0.359,75.511 L0.359,71.675 L0.359,68.138 L0.359,65.805 C0.304,65.276 0.482,64.727 0.24,64.21 L0.24,64.21 Z" id="Shape" fill="#38BA2F"></path>
                <path d="M77.76,0.13 L168.48,0.13 C170.077,0.394 171.686,0.18 173.288,0.25 L177.037,0.25 L178.767,0.25 L180.88,0.25 L182.119,0.25 L183.335,0.25 C187.359,0.245 191.397,0.253 195.39,0.664 C202.467,1.393 209.414,2.803 215.873,5.973 C219.1,7.557 222.161,9.428 224.975,11.674 C225.487,12.083 226.29,12.475 225.757,13.41 C225.431,13.774 224.995,13.815 224.55,13.836 C223.991,13.862 223.431,13.859 222.871,13.86 C156.382,13.861 89.893,13.862 23.404,13.847 C22.434,13.847 21.395,14.118 20.509,13.441 C19.947,12.602 20.637,12.188 21.137,11.782 C23.093,10.198 25.207,8.847 27.374,7.568 C33.599,3.896 40.437,2.159 47.497,1.069 C50.974,0.532 54.473,0.462 57.976,0.357 C59.609,0.308 61.241,0.229 62.876,0.249 L64.092,0.249 L65.331,0.249 L67.445,0.249 L69.176,0.249 L72.931,0.249 C74.54,0.18 76.156,0.394 77.76,0.13 L77.76,0.13 Z" id="Shape" fill="#3BBF31"></path>
                <path d="M246,160.69 L246,167.17 C245.632,168.006 246.182,168.959 245.664,169.776 C245.33,170.046 244.93,170.068 244.528,170.083 C244.048,170.101 243.569,170.1 243.089,170.1 C163.127,170.101 83.166,170.101 3.204,170.091 C2.34,170.091 1.439,170.279 0.621,169.805 C0.037,169.168 0.608,168.325 0.239,167.649 L0.239,160.689 C0.744,160.069 1.459,160.172 2.127,160.167 C7.166,160.131 12.204,160.163 17.243,160.163 C92.546,160.157 167.849,160.157 243.151,160.174 C244.112,160.175 245.176,159.845 246,160.69 L246,160.69 Z" id="Shape" fill="#32AE2A"></path>
                <path d="M0.483,76.691 L245.758,76.691 C246.082,77.384 245.68,78.158 246,78.851 L246,82.211 C245.693,82.571 245.297,82.706 244.832,82.719 C244.232,82.735 243.633,82.741 243.034,82.741 C205.899,82.742 168.764,82.739 131.629,82.757 C130.725,82.757 129.809,82.495 128.912,82.806 C127.993,83.28 127.115,82.757 126.234,82.647 C123.692,82.33 121.554,83.093 119.687,84.797 C119.134,85.301 118.749,86.177 117.734,85.869 C102.5,85.853 87.269,85.865 72.038,85.863 C48.894,85.86 25.751,85.866 2.607,85.851 C1.796,85.85 0.901,86.081 0.24,85.332 L0.24,78.612 C0.566,78.001 0.153,77.299 0.483,76.691 L0.483,76.691 Z" id="Shape" fill="#37B82E"></path>
                <path d="M169.2,245.891 L77.04,245.891 C75.678,245.632 74.303,245.838 72.936,245.771 L69.211,245.771 L67.499,245.771 L65.842,245.771 L64.642,245.771 C64.137,245.833 63.611,245.637 63.121,245.891 L62.401,245.891 C62.251,245.769 62.069,245.724 61.887,245.677 C60.994,245.622 60.1,245.665 59.207,245.651 C58.544,245.646 57.881,245.662 57.218,245.64 C56.633,245.502 56.037,245.534 55.443,245.531 C54.986,245.53 54.528,245.533 54.071,245.529 C53.567,245.538 53.077,245.358 52.568,245.431 C52.249,245.416 51.928,245.416 51.612,245.362 C51.19,245.261 50.766,245.173 50.325,245.224 C42.101,244.414 34.2,242.513 27.019,238.235 C26.333,237.827 25.436,237.499 25.602,236.394 C25.895,235.768 26.429,235.571 27.071,235.548 C27.551,235.531 28.03,235.521 28.51,235.521 C91.569,235.52 154.627,235.518 217.686,235.534 C218.646,235.534 219.717,235.233 220.504,236.132 C220.953,236.993 220.313,237.384 219.747,237.742 C216.636,239.711 213.338,241.297 209.818,242.384 C205.284,243.784 200.667,244.811 195.928,245.22 C195.492,245.184 195.064,245.246 194.642,245.358 C194.326,245.415 194.006,245.416 193.687,245.433 C193.181,245.364 192.689,245.523 192.187,245.529 C191.729,245.532 191.272,245.53 190.815,245.531 C190.22,245.536 189.622,245.497 189.035,245.639 C188.367,245.663 187.698,245.646 187.03,245.651 C186.123,245.667 185.215,245.617 184.309,245.681 C184.083,245.785 183.803,245.709 183.6,245.891 L182.88,245.891 C182.469,245.645 182.017,245.828 181.588,245.771 L180.409,245.771 L178.764,245.771 L177.055,245.771 L173.324,245.771 C171.951,245.838 170.569,245.632 169.2,245.891 L169.2,245.891 Z" id="Shape" fill="#2FA827"></path>
                <path d="M246,137.89 L246,151.57 C245.665,151.978 245.212,152.073 244.713,152.081 C244.074,152.091 243.434,152.095 242.795,152.095 L176.134,152.095 C162.27,152.095 148.406,152.103 134.541,152.076 C133.6,152.074 132.256,152.572 131.832,151.478 C131.475,150.558 132.743,150.028 133.347,149.395 C135.47,147.168 137.718,145.064 139.831,142.829 C140.225,142.11 140.958,141.622 141.222,140.81 C142.177,139.417 143.467,138.339 144.67,137.182 C145.091,136.777 145.612,136.578 146.207,136.867 C146.673,137.229 147.209,137.343 147.784,137.35 C148.424,137.358 149.064,137.36 149.703,137.36 C180.933,137.361 212.163,137.357 243.393,137.373 C244.277,137.374 245.258,137.09 246,137.89 L246,137.89 Z" id="Shape" fill="#33B12B"></path>
                <path d="M246,119.41 L246,135.01 C245.494,135.633 244.779,135.523 244.112,135.526 C239.553,135.541 234.994,135.533 230.434,135.533 C222.555,135.534 214.677,135.534 206.798,135.533 C188.405,135.533 170.011,135.533 151.618,135.532 C151.058,135.532 150.498,135.539 149.939,135.493 C149.521,135.459 149.133,135.334 148.951,134.927 C148.762,134.507 148.99,134.178 149.246,133.842 C151.791,130.509 154.76,127.574 157.763,124.664 C158.87,123.592 159.976,122.437 159.992,120.714 C160.028,119.973 160.223,119.261 160.397,118.544 C160.73,117.767 161.196,117.381 162.048,117.918 C162.54,118.228 163.121,118.163 163.674,118.165 C166.331,118.176 168.989,118.164 171.646,118.173 C172.199,118.175 172.759,118.123 173.295,118.309 C173.423,118.336 173.549,118.375 173.671,118.424 C174.219,118.751 174.281,119.342 174.378,119.874 C175.063,123.636 177.231,126.259 180.553,128.013 C180.904,128.199 181.258,128.381 181.568,128.634 C181.953,129.1 182.374,129.486 183.053,129.298 C183.317,129.209 183.581,129.189 183.846,129.294 C184.174,129.541 184.511,129.757 184.954,129.62 C185.332,129.61 185.709,129.607 186.087,129.623 C186.534,129.775 186.917,129.568 187.308,129.401 C192.335,128.394 195.322,125.292 196.576,120.399 C196.709,119.879 196.673,119.246 197.36,119.032 C197.944,118.831 198.549,118.886 199.145,118.886 C214.015,118.878 228.885,118.877 243.755,118.891 C244.528,118.891 245.379,118.691 246,119.41 L246,119.41 Z" id="Shape" fill="#34B22C"></path>
                <path d="M128.641,82.659 C128.578,82.439 128.606,82.244 128.874,82.227 C129.272,82.202 129.673,82.21 130.072,82.21 C168.715,82.209 207.358,82.21 246.001,82.21 L246.001,93.25 C245.692,93.612 245.296,93.743 244.827,93.731 C244.348,93.718 243.867,93.73 243.387,93.73 C210.115,93.73 176.843,93.731 143.571,93.727 C142.77,93.727 141.972,93.744 141.183,93.865 C140.257,94.155 139.685,93.568 139.115,93.003 C136.713,90.62 134.327,88.222 131.934,85.83 C131.118,85.014 130.321,84.179 129.325,83.568 C128.991,83.362 128.647,83.128 128.641,82.659 L128.641,82.659 Z" id="Shape" fill="#37B82E"></path>
                <path d="M0.24,135.25 L0.24,125.89 C0.575,125.482 1.029,125.386 1.528,125.377 C2.128,125.366 2.727,125.361 3.327,125.361 C16.923,125.36 30.519,125.363 44.114,125.359 C46.713,125.358 49.312,125.399 51.907,125.305 C52.6,125.301 53.103,125.73 53.562,126.147 C55.784,128.165 58.377,129.128 61.375,129.008 C61.612,128.998 61.85,129.021 62.084,129.069 C62.576,129.155 63.056,129.398 63.57,129.167 C67.8,128.337 70.338,125.611 71.877,121.762 C72.032,121.373 71.965,120.983 71.911,120.59 C71.918,120.307 71.983,120.048 72.223,119.866 C72.595,119.802 72.732,119.35 73.126,119.308 C76.516,119.427 79.904,119.387 83.291,119.347 C84.547,119.332 85.478,119.594 85.871,120.889 C86.13,121.074 86.385,121.276 86.533,121.56 C88.026,124.432 90.603,125.646 93.615,126.203 C94.431,126.443 95.261,126.496 96.106,126.495 C107.091,126.486 118.075,126.489 129.06,126.491 C129.659,126.491 130.258,126.463 130.853,126.528 C131.365,126.644 131.475,126.962 131.288,127.42 C131.166,127.72 130.962,127.968 130.737,128.195 C128.411,130.545 126.077,132.888 123.719,135.207 C123.23,135.688 122.696,136.139 121.922,135.755 C120.641,135.785 119.363,135.78 118.084,135.78 C79.711,135.779 41.338,135.782 2.965,135.765 C2.045,135.766 1.023,136.073 0.24,135.25 L0.24,135.25 Z" id="Shape" fill="#34B22C"></path>
                <path d="M0.24,102.85 L0.24,94.45 C0.575,94.042 1.029,93.947 1.528,93.936 C2.247,93.92 2.967,93.92 3.686,93.92 C40.778,93.919 77.871,93.92 114.964,93.92 C115.603,93.92 116.243,93.903 116.877,93.985 C117.406,93.879 117.825,94.085 118.121,94.506 C119.765,96.842 122.005,98.613 123.932,100.681 C124.285,101.06 124.666,101.418 124.85,101.921 C125.024,102.394 124.937,102.782 124.468,103.042 C123.605,103.492 122.669,103.373 121.757,103.374 C110.277,103.386 98.797,103.381 87.317,103.381 C59.161,103.381 31.005,103.384 2.848,103.368 C1.964,103.366 0.983,103.65 0.24,102.85 L0.24,102.85 Z" id="Shape" fill="#36B62D"></path>
                <path d="M140.4,142.69 C137.877,145.253 135.352,147.813 132.836,150.382 C132.537,150.687 132.141,150.921 131.947,151.57 L246,151.57 L246,155.65 C245.665,156.058 245.21,156.154 244.711,156.164 C244.151,156.175 243.591,156.18 243.032,156.18 C163.091,156.18 83.149,156.182 3.208,156.165 C2.209,156.165 1.107,156.51 0.24,155.65 L0.24,152.05 C0.547,151.69 0.943,151.552 1.408,151.543 C1.887,151.533 2.367,151.521 2.846,151.521 C41.57,151.527 80.294,151.507 119.017,151.53 C119.096,151.53 119.176,151.514 119.251,151.502 C119.878,151.353 120.401,151.582 120.941,151.896 C124.85,154.175 128.833,153.443 131.81,150.073 C134.031,147.56 136.514,145.291 138.885,142.918 C139.196,142.607 139.54,142.324 140.024,142.329 C140.231,142.365 140.335,142.508 140.4,142.69 L140.4,142.69 Z" id="Shape" fill="#33B02B"></path>
                <path d="M119.844,151.771 C119.077,152.048 118.282,152.054 117.478,152.054 C78.399,152.049 39.319,152.05 0.24,152.05 L0.24,144.13 C0.575,143.722 1.029,143.626 1.527,143.616 C2.126,143.605 2.726,143.6 3.325,143.6 C40.05,143.6 76.774,143.601 113.499,143.6 C113.819,143.6 114.138,143.599 114.458,143.602 C116.723,143.618 116.723,143.618 117.289,145.772 C117.515,147.366 118.084,148.815 119.048,150.122 C119.408,150.609 119.984,151.03 119.844,151.771 L119.844,151.771 Z" id="Shape" fill="#33B02B"></path>
                <path d="M0.24,85.33 L67.746,85.33 C84.01,85.33 100.274,85.327 116.538,85.343 C117.077,85.344 117.784,85.031 118.091,85.841 C118.381,86.368 118.111,86.833 117.904,87.289 C117.578,88.01 117.374,88.76 117.295,89.546 C116.931,90.444 117.143,91.335 117.328,92.228 C117.339,92.707 117.244,93.146 116.86,93.476 C116.367,93.833 115.79,93.76 115.238,93.768 C113.559,93.794 111.88,93.779 110.2,93.779 C74.455,93.779 38.711,93.782 2.966,93.765 C2.044,93.765 1.022,94.071 0.239,93.249 C0.24,90.61 0.24,87.97 0.24,85.33 L0.24,85.33 Z" id="Shape" fill="#37B72E"></path>
                <path d="M173.52,118.69 C170.045,118.69 166.57,118.681 163.095,118.697 C162.356,118.7 161.655,118.696 161.248,117.799 C161.068,118.198 160.958,118.444 160.847,118.69 C160.323,118.424 160.354,117.917 160.317,117.447 C160.15,115.293 159.31,113.456 157.776,111.926 C154.782,108.939 151.784,105.958 148.814,102.947 C148.277,102.403 147.533,101.868 148.101,100.904 C148.416,100.538 148.836,100.449 149.289,100.43 C149.648,100.415 150.008,100.403 150.367,100.403 C170.707,100.419 191.047,100.396 211.387,100.418 C222.176,100.43 232.966,100.415 243.755,100.411 C244.529,100.411 245.38,100.211 246.001,100.93 L246.001,109.81 C245.666,110.218 245.213,110.314 244.714,110.323 C244.075,110.335 243.436,110.338 242.796,110.338 C227.733,110.339 212.67,110.338 197.607,110.339 C196.608,110.339 195.609,110.325 194.617,110.431 C193.934,110.639 193.474,110.222 193.03,109.825 C191.388,108.36 189.489,107.404 187.356,106.898 C186.977,106.76 186.591,106.664 186.181,106.722 C181.202,106.622 177.408,108.573 175.094,113.102 C174.485,114.294 174.274,115.582 174.175,116.899 C173.989,117.509 173.977,118.181 173.52,118.69 L173.52,118.69 Z" id="Shape" fill="#36B62D"></path>
                <path d="M0.24,102.85 L82.497,102.85 C94.924,102.85 107.352,102.851 119.779,102.849 C121.494,102.849 123.214,102.947 124.908,102.567 C125.509,102.476 125.86,102.891 126.227,103.243 C127.774,104.727 129.092,106.428 130.63,107.924 C130.995,108.279 131.495,108.753 130.833,109.324 C130.248,109.529 129.644,109.445 129.049,109.445 C118.072,109.451 107.095,109.453 96.119,109.442 C95.075,109.441 94.047,109.496 93.038,109.767 C91.926,109.851 90.9,110.19 89.946,110.777 C89.446,111.085 88.925,111.388 88.292,111.148 C85.345,110.936 82.396,111.063 79.449,111.066 C76.58,111.068 73.708,110.921 70.844,111.169 C70.094,111.317 69.688,110.817 69.246,110.343 C65.364,106.179 59.004,105.522 54.331,108.781 C53.636,109.265 53.106,109.916 52.487,110.476 C52.044,110.877 51.631,111.327 50.959,111.311 C34.84,111.283 18.724,111.313 2.608,111.289 C1.797,111.288 0.902,111.519 0.24,110.771 C0.24,108.13 0.24,105.49 0.24,102.85 L0.24,102.85 Z" id="Shape" fill="#35B52D"></path>
                <path d="M246,160.69 L0.24,160.69 L0.24,157.33 C0.575,156.921 1.03,156.826 1.529,156.816 C2.169,156.803 2.809,156.8 3.448,156.8 C57.836,156.802 112.223,156.798 166.611,156.8 C192.205,156.801 217.799,156.796 243.393,156.813 C244.278,156.814 245.258,156.53 246.001,157.33 C246,158.45 246,159.57 246,160.69 L246,160.69 Z" id="Shape" fill="#32AF2A"></path>
                <path d="M0.24,110.77 C16.574,110.77 32.908,110.771 49.242,110.765 C49.965,110.765 50.677,110.794 51.371,111.01 C51.622,111.517 51.352,111.946 51.128,112.355 C50.371,113.739 49.957,115.216 49.86,116.787 C49.627,117.477 49.58,118.166 49.861,118.857 C50.182,120.884 50.75,122.812 51.999,124.491 C52.242,124.818 52.605,125.173 52.246,125.652 C51.31,125.9 50.354,125.894 49.395,125.894 C33.01,125.889 16.625,125.89 0.24,125.89 C0.24,120.85 0.24,115.81 0.24,110.77 L0.24,110.77 Z" id="Shape" fill="#35B42C"></path>
                <path d="M0.24,135.25 C40.327,135.25 80.415,135.249 120.502,135.259 C121.15,135.259 121.885,135.014 122.399,135.68 C122.447,136.269 122.056,136.629 121.698,137 C120.512,138.226 119.221,139.353 118.281,140.804 C117.967,141.289 117.502,141.597 116.878,141.571 C115.836,141.526 114.797,141.54 113.758,141.54 C76.827,141.539 39.896,141.542 2.965,141.525 C2.043,141.525 1.022,141.832 0.239,141.009 C0.24,139.09 0.24,137.17 0.24,135.25 L0.24,135.25 Z" id="Shape" fill="#34B22C"></path>
                <path d="M246,100.93 L213.994,100.93 C192.62,100.93 171.246,100.928 149.872,100.938 C149.261,100.938 148.569,100.718 148.092,101.35 C147.579,101.711 147.246,101.308 146.986,101.007 C145.471,99.255 143.73,97.725 142.153,96.037 C141.672,95.523 141.078,94.99 141.672,94.172 C142.004,93.831 142.419,93.729 142.876,93.732 C143.196,93.734 143.516,93.729 143.836,93.729 C177.22,93.729 210.603,93.728 243.987,93.735 C244.685,93.735 245.451,93.539 246,94.209 L246,100.93 L246,100.93 Z" id="Shape" fill="#36B62E"></path>
                <path d="M194.151,110.318 C194.7,109.671 195.454,109.813 196.16,109.813 C212.774,109.809 229.387,109.81 246.001,109.81 L246.001,119.41 C229.681,119.41 213.361,119.41 197.041,119.409 C196.768,119.33 196.598,119.14 196.475,118.896 C196.194,118.167 196.372,117.396 196.281,116.65 C196.073,114.932 195.593,113.307 194.647,111.834 C194.356,111.382 193.924,110.951 194.151,110.318 L194.151,110.318 Z" id="Shape" fill="#35B42D"></path>
                <path d="M246,157.33 L0.24,157.33 L0.24,155.65 L246,155.65 L246,157.33 L246,157.33 Z" id="Shape" fill="#32AF2A"></path>
                <path d="M0.24,141.01 C38.627,141.01 77.014,141.01 115.401,141.012 C116.076,141.012 116.767,140.92 117.4,141.263 C117.855,142.145 117.484,145.501 116.844,146.29 C116.805,146.22 116.745,146.155 116.731,146.081 C116.347,144.13 116.348,144.13 114.239,144.13 L62.81,144.13 L0.241,144.13 C0.24,143.09 0.24,142.05 0.24,141.01 L0.24,141.01 Z" id="Shape" fill="#33B12B"></path>
                <path d="M160.515,120.519 C160.597,122.213 159.498,123.331 158.496,124.445 C157.348,125.721 156.152,126.973 154.849,128.087 C152.745,129.885 151.309,132.243 149.459,134.248 C149.335,134.382 149.192,134.608 149.224,134.754 C149.287,135.039 149.593,134.998 149.826,135.006 C150.145,135.017 150.466,135.011 150.785,135.011 L201.036,135.011 L246.001,135.011 L246.001,137.891 C213.234,137.891 180.467,137.889 147.7,137.903 C146.815,137.903 146.019,137.893 145.641,136.916 C145.464,136.136 146.075,135.759 146.504,135.324 C148.976,132.821 151.483,130.353 153.956,127.85 C156.085,125.695 158.372,123.672 159.847,120.955 C159.981,120.705 160.192,120.511 160.515,120.519 L160.515,120.519 Z" id="Shape" fill="#34B22C"></path>
                <path d="M0.24,93.25 L114.996,93.25 C115.636,93.25 116.275,93.243 116.915,93.24 C117.52,93.311 117.56,93.703 117.45,94.181 C116.779,94.539 116.049,94.449 115.334,94.449 C76.97,94.451 38.605,94.451 0.241,94.451 C0.24,94.05 0.24,93.65 0.24,93.25 L0.24,93.25 Z" id="Shape" fill="#37B72E"></path>
                <path d="M246,94.21 C211.894,94.21 177.788,94.209 143.682,94.215 C142.942,94.215 142.135,94.035 141.574,94.76 C140.894,94.795 140.567,94.481 140.617,93.794 C141.071,93.195 141.729,93.251 142.369,93.25 L154.843,93.25 L246.001,93.25 C246,93.57 246,93.89 246,94.21 L246,94.21 Z" id="Shape" fill="#36B72E"></path>
                <path id="Shape" fill="#4EC546" d="M77.76,0.13 C76.177,0.626 74.552,0.263 72.949,0.36 C72.798,0.276 72.802,0.2 72.96,0.13 L77.76,0.13 L77.76,0.13 Z"></path>
                <path id="Shape" fill="#4EC546" d="M173.291,0.36 C171.688,0.263 170.064,0.626 168.48,0.13 L173.28,0.13 C173.438,0.2 173.441,0.276 173.291,0.36 L173.291,0.36 Z"></path>
                <path id="Shape" fill="#42B03C" d="M169.2,245.891 C170.542,245.388 171.932,245.752 173.297,245.668 C173.443,245.754 173.437,245.828 173.28,245.891 L169.2,245.891 L169.2,245.891 Z"></path>
                <path id="Shape" fill="#43B03D" d="M72.943,245.668 C74.308,245.75 75.698,245.388 77.04,245.89 L72.96,245.89 C72.803,245.828 72.798,245.754 72.943,245.668 L72.943,245.668 Z"></path>
                <path id="Shape" fill="#5DBB58" d="M173.28,245.891 C173.283,245.816 173.288,245.742 173.297,245.668 C174.576,245.671 175.856,245.674 177.135,245.678 C177.228,245.732 177.256,245.782 177.221,245.827 C177.188,245.87 177.154,245.892 177.12,245.892 C175.84,245.891 174.56,245.891 173.28,245.891 L173.28,245.891 Z"></path>
                <path id="Shape" fill="#5DBB58" d="M72.943,245.668 C72.951,245.742 72.957,245.816 72.96,245.89 L69.12,245.89 C69.022,245.851 68.988,245.807 69.015,245.758 C69.044,245.707 69.073,245.681 69.103,245.681 C70.383,245.677 71.663,245.672 72.943,245.668 L72.943,245.668 Z"></path>
                <path id="Shape" fill="#68CE61" d="M72.96,0.13 C72.96,0.207 72.957,0.284 72.95,0.36 C71.669,0.356 70.389,0.352 69.109,0.348 C68.958,0.267 68.962,0.194 69.121,0.13 L72.96,0.13 L72.96,0.13 Z"></path>
                <path id="Shape" fill="#68CE61" d="M173.291,0.36 C173.284,0.283 173.281,0.207 173.281,0.13 L177.121,0.13 C177.28,0.194 177.284,0.267 177.133,0.348 C175.852,0.352 174.571,0.356 173.291,0.36 L173.291,0.36 Z"></path>
                <path id="Shape" fill="#55C34D" d="M0.455,71.632 C0.462,72.914 0.468,74.196 0.475,75.478 C0.405,75.646 0.326,75.65 0.24,75.489 L0.24,71.649 C0.301,71.518 0.372,71.505 0.455,71.632 L0.455,71.632 Z"></path>
                <path d="M246,170.77 L246,174.37 C245.848,174.444 245.713,174.42 245.594,174.3 C245.068,173.147 245.068,171.993 245.592,170.838 C245.711,170.719 245.848,170.696 246,170.77 L246,170.77 Z" id="Shape" fill="#4FB949"></path>
                <path d="M0.24,174.37 L0.24,170.77 C0.392,170.696 0.527,170.72 0.646,170.84 C1.172,171.993 1.172,173.147 0.648,174.302 C0.529,174.422 0.393,174.444 0.24,174.37 L0.24,174.37 Z" id="Shape" fill="#50B949"></path>
                <path d="M246,170.77 C245.922,170.772 245.844,170.774 245.766,170.776 C245.346,170.377 245.421,169.974 245.758,169.57 C245.861,168.772 245.531,167.931 246.001,167.17 C246,168.37 246,169.57 246,170.77 L246,170.77 Z" id="Shape" fill="#3EB336"></path>
                <path id="Shape" fill="#6ECC67" d="M0.455,71.632 C0.383,71.638 0.312,71.644 0.24,71.65 L0.24,68.05 C0.294,67.918 0.363,67.916 0.444,68.028 C0.447,69.23 0.451,70.431 0.455,71.632 L0.455,71.632 Z"></path>
                <path id="Shape" fill="#54C34D" d="M245.765,75.244 C245.769,74.042 245.773,72.84 245.777,71.638 C245.86,71.488 245.934,71.492 246,71.65 L246,75.25 C245.918,75.409 245.84,75.407 245.765,75.244 L245.765,75.244 Z"></path>
                <path id="Shape" fill="#43BD3B" d="M245.765,75.244 C245.843,75.247 245.922,75.249 246,75.25 L246,78.85 C245.547,78.172 245.85,77.409 245.758,76.69 C245.761,76.208 245.763,75.726 245.765,75.244 L245.765,75.244 Z"></path>
                <path d="M0.472,170.779 C0.395,170.777 0.317,170.774 0.24,170.771 L0.24,167.651 C0.674,168.246 0.402,168.931 0.483,169.571 C0.82,169.976 0.895,170.38 0.472,170.779 L0.472,170.779 Z" id="Shape" fill="#3EB337"></path>
                <path id="Shape" fill="#39BC30" d="M0.24,75.49 C0.318,75.488 0.397,75.484 0.475,75.479 C0.477,75.883 0.48,76.287 0.482,76.691 C0.402,77.331 0.672,78.015 0.239,78.61 C0.24,77.57 0.24,76.53 0.24,75.49 L0.24,75.49 Z"></path>
                <path d="M245.778,174.382 C245.852,174.379 245.926,174.375 246,174.37 L246,177.25 C245.857,177.326 245.726,177.308 245.608,177.197 C245.109,176.628 245.287,175.97 245.36,175.325 C245.369,174.953 245.402,174.592 245.778,174.382 L245.778,174.382 Z" id="Shape" fill="#65C25F"></path>
                <path d="M0.24,174.37 C0.313,174.376 0.386,174.38 0.46,174.383 C0.836,174.591 0.867,174.952 0.878,175.323 C0.951,175.968 1.132,176.627 0.635,177.198 C0.516,177.309 0.384,177.327 0.24,177.251 L0.24,174.37 L0.24,174.37 Z" id="Shape" fill="#65C25F"></path>
                <path id="Shape" fill="#6ACB64" d="M246,71.65 C245.926,71.648 245.851,71.644 245.777,71.638 C245.782,70.677 245.787,69.716 245.791,68.755 C245.87,68.63 245.939,68.635 246,68.77 L246,71.65 L246,71.65 Z"></path>
                <path id="Shape" fill="#94DA8F" d="M0.444,68.028 C0.376,68.03 0.308,68.038 0.24,68.05 L0.24,65.65 C0.301,65.514 0.369,65.51 0.445,65.638 C0.444,66.435 0.444,67.232 0.444,68.028 L0.444,68.028 Z"></path>
                <path id="Shape" fill="#A1E09C" d="M67.425,0.331 C66.707,0.333 65.988,0.335 65.27,0.337 C65.175,0.286 65.145,0.239 65.179,0.194 C65.212,0.152 65.246,0.13 65.28,0.13 L67.44,0.13 C67.603,0.21 67.598,0.277 67.425,0.331 L67.425,0.331 Z"></path>
                <path id="Shape" fill="#A1E09C" d="M180.971,0.335 C180.252,0.334 179.534,0.332 178.815,0.331 C178.642,0.277 178.637,0.21 178.8,0.13 L180.96,0.13 C181.059,0.17 181.094,0.214 181.064,0.261 C181.034,0.31 181.003,0.335 180.971,0.335 L180.971,0.335 Z"></path>
                <path id="Shape" fill="#94D290" d="M178.814,245.69 C179.373,245.69 179.933,245.69 180.492,245.691 C180.586,245.741 180.615,245.787 180.581,245.83 C180.548,245.871 180.515,245.891 180.481,245.891 L178.801,245.891 C178.637,245.813 178.642,245.746 178.814,245.69 L178.814,245.69 Z"></path>
                <path id="Shape" fill="#7AC775" d="M178.814,245.69 C178.808,245.757 178.803,245.824 178.801,245.891 L177.121,245.891 C177.122,245.819 177.126,245.748 177.135,245.677 C177.694,245.681 178.254,245.686 178.814,245.69 L178.814,245.69 Z"></path>
                <path id="Shape" fill="#82D67D" d="M178.8,0.13 C178.803,0.197 178.808,0.264 178.815,0.331 C178.254,0.337 177.693,0.343 177.131,0.348 C177.123,0.275 177.119,0.202 177.119,0.129 C177.68,0.13 178.24,0.13 178.8,0.13 L178.8,0.13 Z"></path>
                <path id="Shape" fill="#82D67D" d="M67.425,0.331 C67.432,0.264 67.437,0.197 67.44,0.13 L69.12,0.13 C69.12,0.203 69.116,0.276 69.108,0.349 C68.547,0.343 67.986,0.337 67.425,0.331 L67.425,0.331 Z"></path>
                <path id="Shape" fill="#7AC775" d="M69.104,245.681 C69.113,245.751 69.118,245.821 69.121,245.891 L67.441,245.891 C67.344,245.853 67.31,245.811 67.338,245.765 C67.367,245.717 67.397,245.693 67.428,245.693 C67.986,245.688 68.545,245.685 69.104,245.681 L69.104,245.681 Z"></path>
                <path id="Shape" fill="#94D290" d="M67.427,245.692 C67.432,245.758 67.436,245.824 67.44,245.89 L65.76,245.89 C65.661,245.85 65.626,245.807 65.656,245.76 C65.687,245.712 65.718,245.688 65.749,245.688 C66.309,245.69 66.868,245.691 67.427,245.692 L67.427,245.692 Z"></path>
                <path id="Shape" fill="#84D47E" d="M246,68.77 C245.93,68.764 245.861,68.759 245.791,68.755 C245.793,68.196 245.794,67.638 245.796,67.079 C245.871,66.945 245.939,66.956 246,67.09 L246,68.77 L246,68.77 Z"></path>
                <path d="M0.24,177.25 C0.31,177.258 0.381,177.263 0.452,177.263 C0.99,177.614 0.962,178.113 0.813,178.644 C0.761,178.763 0.685,178.864 0.587,178.949 C0.467,179.024 0.351,179.018 0.24,178.93 C0.24,178.37 0.24,177.81 0.24,177.25 L0.24,177.25 Z" id="Shape" fill="#7FCC7A"></path>
                <path d="M245.788,177.263 C245.859,177.262 245.93,177.258 246,177.25 L246,178.93 C245.937,178.954 245.873,178.978 245.809,179.002 C245.678,178.949 245.576,178.862 245.5,178.742 C245.249,178.182 245.225,177.665 245.788,177.263 L245.788,177.263 Z" id="Shape" fill="#7FCC7B"></path>
                <path d="M0.24,182.05 L0.24,180.37 C0.379,180.292 0.507,180.309 0.623,180.418 C1.019,180.946 1.019,181.474 0.625,182.002 C0.509,182.112 0.38,182.128 0.24,182.05 L0.24,182.05 Z" id="Shape" fill="#B5E1B3"></path>
                <path id="Shape" fill="#B7E6B4" d="M245.804,65.637 C245.803,65.077 245.803,64.517 245.802,63.957 C245.877,63.827 245.943,63.838 246.001,63.97 L246.001,65.65 C245.924,65.814 245.859,65.81 245.804,65.637 L245.804,65.637 Z"></path>
                <path d="M246,180.37 L246,182.05 C245.861,182.128 245.733,182.111 245.617,182.002 C245.221,181.474 245.221,180.946 245.615,180.418 C245.732,180.309 245.86,180.293 246,180.37 L246,180.37 Z" id="Shape" fill="#B5E1B2"></path>
                <path d="M246,180.37 L245.902,180.384 L245.803,180.381 C245.274,179.896 245.27,179.409 245.798,178.921 C245.865,178.93 245.932,178.933 246,178.929 L246,180.37 L246,180.37 Z" id="Shape" fill="#97D593"></path>
                <path id="Shape" fill="#B4E5B0" d="M0.445,65.638 C0.376,65.636 0.308,65.64 0.24,65.65 L0.24,64.21 C0.706,64.629 0.403,65.158 0.445,65.638 L0.445,65.638 Z"></path>
                <path d="M0.436,180.382 L0.337,180.385 L0.239,180.37 L0.239,178.93 C0.307,178.933 0.374,178.93 0.441,178.922 C0.969,179.411 0.965,179.898 0.436,180.382 L0.436,180.382 Z" id="Shape" fill="#97D593"></path>
                <path d="M0.24,182.05 C0.305,182.072 0.371,182.076 0.439,182.062 C0.96,182.54 0.96,183.018 0.441,183.497 L0.34,183.503 L0.24,183.49 C0.24,183.01 0.24,182.53 0.24,182.05 L0.24,182.05 Z" id="Shape" fill="#DFF2DE"></path>
                <path id="Shape" fill="#9BDC96" d="M245.804,65.637 C245.87,65.631 245.936,65.636 246,65.65 L246,67.09 C245.932,67.083 245.864,67.08 245.796,67.079 C245.799,66.599 245.802,66.118 245.804,65.637 L245.804,65.637 Z"></path>
                <path d="M245.802,182.063 C245.869,182.076 245.936,182.072 246.001,182.051 L246.001,183.491 L245.901,183.505 L245.8,183.498 C245.281,183.019 245.281,182.541 245.802,182.063 L245.802,182.063 Z" id="Shape" fill="#DFF2DE"></path>
                <path id="Shape" fill="#E0F4DF" d="M246,63.97 L245.901,63.952 L245.801,63.957 C245.8,63.479 245.8,63.001 245.799,62.522 C245.866,62.512 245.933,62.515 245.999,62.53 C246,63.01 246,63.49 246,63.97 L246,63.97 Z"></path>
                <path id="Shape" fill="#CEEBCD" d="M63.12,245.891 C63.539,245.409 64.07,245.732 64.551,245.691 C64.721,245.75 64.724,245.817 64.56,245.891 L63.12,245.891 L63.12,245.891 Z"></path>
                <path id="Shape" fill="#E3F5E2" d="M62.873,0.326 C62.873,0.261 62.875,0.196 62.88,0.131 L64.08,0.131 C64.244,0.206 64.241,0.272 64.07,0.329 C63.671,0.327 63.272,0.326 62.873,0.326 L62.873,0.326 Z"></path>
                <path id="Shape" fill="#C2EBBF" d="M64.07,0.328 C64.075,0.262 64.079,0.196 64.08,0.13 L65.28,0.13 C65.282,0.199 65.278,0.268 65.269,0.337 C64.87,0.334 64.47,0.331 64.07,0.328 L64.07,0.328 Z"></path>
                <path id="Shape" fill="#B1DEAE" d="M180.48,245.891 C180.483,245.824 180.487,245.758 180.491,245.691 L181.689,245.691 C181.785,245.74 181.815,245.786 181.781,245.829 C181.748,245.87 181.715,245.891 181.68,245.891 L180.48,245.891 L180.48,245.891 Z"></path>
                <path id="Shape" fill="#CEEBCD" d="M181.68,245.891 C181.682,245.824 181.685,245.758 181.689,245.691 C182.089,245.738 182.551,245.421 182.88,245.891 L181.68,245.891 L181.68,245.891 Z"></path>
                <path id="Shape" fill="#B1DEAE" d="M64.56,245.891 C64.559,245.824 64.556,245.757 64.551,245.691 C64.951,245.69 65.35,245.69 65.75,245.689 C65.757,245.756 65.76,245.824 65.761,245.891 L64.56,245.891 L64.56,245.891 Z"></path>
                <path id="Shape" fill="#C2EBBF" d="M180.971,0.335 C180.964,0.267 180.961,0.199 180.96,0.13 L182.16,0.13 C182.259,0.169 182.293,0.212 182.264,0.257 C182.233,0.304 182.202,0.328 182.17,0.328 C181.771,0.33 181.371,0.333 180.971,0.335 L180.971,0.335 Z"></path>
                <path id="Shape" fill="#E3F5E2" d="M182.17,0.328 C182.165,0.262 182.161,0.196 182.16,0.13 L183.36,0.13 C183.362,0.195 183.365,0.26 183.367,0.326 C182.969,0.326 182.569,0.327 182.17,0.328 L182.17,0.328 Z"></path>
                <path id="Shape" fill="#E7F6E6" d="M0.24,62.29 C0.308,62.283 0.377,62.281 0.445,62.285 C0.424,62.695 0.678,63.151 0.24,63.49 L0.24,62.29 L0.24,62.29 Z"></path>
                <path d="M0.698,59.081 C0.642,59.029 0.643,58.978 0.703,58.93 C1.044,58.533 1.493,58.424 1.994,58.416 C2.554,58.407 3.114,58.4 3.674,58.4 C83.306,58.4 162.938,58.398 242.569,58.415 C243.569,58.415 244.671,58.075 245.54,58.93 C245.78,59.96 245.742,61.005 245.719,62.05 L0.721,62.05 C0.506,61.062 0.56,60.072 0.698,59.081 L0.698,59.081 Z" id="Shape" fill="#38BA2F"></path>
                <path id="Shape" fill="#39BC30" d="M0.698,59.081 C0.705,60.071 0.713,61.06 0.72,62.05 L0.522,62.05 C0.502,61.056 0.45,60.06 0.698,59.081 L0.698,59.081 Z"></path>
                <path d="M10.152,24.371 C12.963,20.06 16.355,16.277 20.405,13.092 C20.883,13.359 21.406,13.331 21.926,13.331 C89.389,13.33 156.852,13.33 224.315,13.331 C224.835,13.331 225.358,13.358 225.836,13.092 C229.882,16.28 233.278,20.058 236.087,24.37 C235.778,24.832 235.298,24.865 234.81,24.882 C234.13,24.906 233.45,24.9 232.771,24.9 C209.055,24.901 185.339,24.9 161.624,24.9 C112.117,24.9 62.609,24.9 13.102,24.899 C12.502,24.899 11.902,24.906 11.303,24.874 C10.856,24.851 10.415,24.814 10.152,24.371 L10.152,24.371 Z" id="Shape" fill="#3ABE31"></path>
                <path d="M0.498,175.331 C0.486,175.015 0.473,174.699 0.46,174.383 C0.464,173.182 0.468,171.98 0.472,170.779 C0.475,170.376 0.479,169.974 0.482,169.571 L245.757,169.571 C245.76,169.973 245.762,170.375 245.765,170.777 C245.769,171.979 245.773,173.181 245.777,174.383 C245.766,174.699 245.754,175.016 245.742,175.332 C245.441,175.703 245.038,175.825 244.576,175.839 C243.976,175.857 243.377,175.861 242.777,175.861 C163.006,175.862 83.234,175.863 3.463,175.845 C2.467,175.844 1.362,176.202 0.498,175.331 L0.498,175.331 Z" id="Shape" fill="#32AE2A"></path>
                <path d="M140.616,93.794 C140.866,94.185 141.183,94.509 141.573,94.76 C143.674,97.028 145.854,99.218 148.092,101.35 C151.215,104.529 154.278,107.769 157.48,110.866 C159.73,113.043 161.015,115.525 160.846,118.689 C160.735,119.299 160.625,119.909 160.514,120.518 C159.834,122.301 158.667,123.724 157.328,125.063 C153.405,128.986 149.532,132.96 145.64,136.914 C144.212,138.19 142.872,139.554 141.586,140.973 C141.231,141.582 140.737,142.058 140.161,142.455 C137.515,145.097 134.86,147.729 132.225,150.382 C128.248,154.388 124.593,154.805 119.843,151.771 C118.281,150.252 117.218,148.459 116.843,146.29 C116.639,144.571 117.125,142.929 117.399,141.263 C118.771,139.138 120.557,137.385 122.398,135.68 C124.576,133.821 126.463,131.667 128.503,129.669 C129.439,128.752 130.325,127.785 131.233,126.84 C130.816,126.63 130.368,126.735 129.936,126.735 C118.109,126.728 106.282,126.732 94.455,126.722 C94.032,126.722 93.576,126.875 93.182,126.574 C91.056,126.131 89.022,125.527 87.519,123.786 C86.871,123.036 86.481,122.145 85.956,121.33 C84.39,118.695 84.627,116.059 86.014,113.46 C86.586,112.388 87.153,111.248 88.569,111.038 C89.819,110.201 91.11,109.462 92.643,109.283 C93.074,109.147 93.517,109.214 93.954,109.214 C105.914,109.21 117.874,109.215 129.834,109.189 C130.22,109.188 130.812,109.571 131.036,108.855 C128.833,106.915 127.136,104.481 124.905,102.567 C123.304,100.924 121.723,99.261 120.094,97.645 C119.047,96.607 118.11,95.503 117.446,94.18 C117.005,94.016 117.358,93.4 116.911,93.239 C116.887,92.841 116.863,92.443 116.839,92.045 C116.707,91.169 116.714,90.292 116.835,89.416 C116.887,88.097 117.539,86.987 118.088,85.842 C120.82,82.18 124.421,81.398 128.638,82.659 C130.057,83.353 131.209,84.38 132.311,85.497 C135.061,88.283 137.846,91.031 140.616,93.794 L140.616,93.794 Z" id="Shape" fill="#FEFEFE"></path>
                <path d="M25.684,236.743 C19.579,232.988 14.517,228.149 10.541,222.18 C10.295,221.423 10.832,221.278 11.361,221.183 C11.872,221.092 12.398,221.122 12.917,221.122 C86.37,221.12 159.824,221.12 233.277,221.122 C233.797,221.122 234.32,221.099 234.834,221.179 C235.271,221.247 235.728,221.337 235.705,221.947 C234.094,224.702 231.923,226.998 229.722,229.27 C227.065,232.013 224.061,234.334 220.94,236.512 C220.857,236.57 220.708,236.535 220.59,236.543 C219.995,236.028 219.281,236.045 218.552,236.046 C203.637,236.053 188.723,236.051 173.808,236.051 C125.145,236.051 76.483,236.051 27.82,236.055 C27.044,236.055 26.177,235.838 25.684,236.743 L25.684,236.743 Z" id="Shape" fill="#2FA827"></path>
                <path id="Shape" fill="#30AA28" d="M62.156,245.609 C61.158,245.629 60.157,245.684 59.175,245.433 C60.168,245.485 61.182,245.205 62.156,245.609 L62.156,245.609 Z"></path>
                <path id="Shape" fill="#30AA28" d="M187.066,245.432 C186.084,245.683 185.083,245.628 184.085,245.608 C185.058,245.205 186.072,245.484 187.066,245.432 L187.066,245.432 Z"></path>
                <path id="Shape" fill="#30AA28" d="M57.115,245.366 C56.52,245.401 55.926,245.414 55.356,245.193 C55.946,245.211 56.556,245.029 57.115,245.366 L57.115,245.366 Z"></path>
                <path id="Shape" fill="#30AA28" d="M190.884,245.193 C190.314,245.413 189.72,245.401 189.125,245.365 C189.684,245.029 190.294,245.211 190.884,245.193 L190.884,245.193 Z"></path>
                <path id="Shape" fill="#30AA28" d="M53.996,245.13 C53.48,245.168 52.969,245.165 52.482,244.952 C52.992,244.961 53.521,244.811 53.996,245.13 L53.996,245.13 Z"></path>
                <path id="Shape" fill="#30AA28" d="M193.759,244.953 C193.272,245.166 192.761,245.168 192.245,245.13 C192.719,244.811 193.248,244.961 193.759,244.953 L193.759,244.953 Z"></path>
                <path id="Shape" fill="#30AA28" d="M195.927,244.715 C195.522,244.935 195.085,244.928 194.644,244.895 C195.039,244.601 195.49,244.709 195.927,244.715 L195.927,244.715 Z"></path>
                <path id="Shape" fill="#30AA28" d="M51.596,244.895 C51.155,244.928 50.718,244.935 50.313,244.715 C50.75,244.709 51.201,244.6 51.596,244.895 L51.596,244.895 Z"></path>
                <path d="M140.162,142.455 C140.637,141.961 141.112,141.467 141.587,140.973 C141.534,141.782 140.699,142.05 140.401,142.69 C140.321,142.612 140.241,142.534 140.162,142.455 L140.162,142.455 Z" id="Shape" fill="#32AE2A"></path>
                <path d="M194.151,110.318 C196.313,112.795 196.966,115.743 196.842,118.934 C196.923,121.642 195.754,123.856 194.071,125.852 C192.092,128.2 189.474,129.342 186.5,129.793 C185.63,129.526 184.685,130.057 183.841,129.535 C183.56,129.402 183.351,129.538 183.153,129.717 C182.634,129.367 181.906,129.545 181.447,129.043 C179.237,128.041 177.3,126.688 175.858,124.695 C174.558,122.9 173.905,120.878 173.717,118.688 C173.598,118.049 173.591,117.41 173.722,116.772 C173.991,111.54 178.07,107.42 182.45,106.621 C183.656,106.401 184.893,106.353 186.116,106.226 C186.537,106.426 187.015,106.223 187.437,106.413 C189.604,106.957 191.603,107.827 193.241,109.398 C193.551,109.699 193.848,110.012 194.151,110.318 L194.151,110.318 Z" id="Shape" fill="#FEFEFE"></path>
                <path d="M186.727,129.54 C192.535,128.518 196.016,124.868 196.842,118.934 C196.908,119.092 196.975,119.251 197.041,119.409 C196.869,124.403 192.195,129.306 187.2,129.73 C186.944,129.911 186.77,129.889 186.727,129.54 L186.727,129.54 Z" id="Shape" fill="#33B12B"></path>
                <path d="M186.727,129.54 C186.885,129.603 187.043,129.667 187.201,129.73 C186.956,130.11 186.678,130.358 186.241,129.969 C185.761,129.78 185.281,129.776 184.801,129.969 C184.223,130.396 183.993,130.052 183.841,129.535 C184.802,129.538 185.765,129.539 186.727,129.54 L186.727,129.54 Z" id="Shape" fill="#34B22C"></path>
                <path d="M181.446,129.045 C182.053,129.173 182.75,129.071 183.152,129.719 C182.475,129.77 181.826,129.747 181.446,129.045 L181.446,129.045 Z" id="Shape" fill="#34B22C"></path>
                <path id="Shape" fill="#36B72E" d="M173.721,116.775 C173.719,117.414 173.717,118.052 173.716,118.691 C173.651,118.691 173.586,118.691 173.52,118.69 C173.585,118.052 173.357,117.382 173.721,116.775 L173.721,116.775 Z"></path>
                <path id="Shape" fill="#32AF2A" d="M184.8,129.97 C185.28,129.531 185.76,129.712 186.24,129.97 L184.8,129.97 L184.8,129.97 Z"></path>
                <path d="M49.397,116.775 C49.409,114.632 50.278,112.783 51.372,111.01 C54.87,106.325 60.638,105.176 65.655,107.2 C67.65,108.005 69.153,109.471 70.534,111.072 C71.224,111.174 71.483,111.728 71.759,112.255 C72.821,114.283 73.103,116.46 72.985,118.714 C72.877,119.118 72.739,119.508 72.45,119.825 C72.268,120.061 72.245,120.332 72.273,120.614 C71.925,123.331 70.405,125.355 68.421,127.098 C66.881,128.451 65.027,129.139 63.066,129.593 C62.764,129.598 62.458,129.665 62.167,129.527 C58.215,129.886 54.973,128.427 52.246,125.651 C50.666,123.676 49.651,121.462 49.399,118.925 C49.273,118.209 49.278,117.492 49.397,116.775 L49.397,116.775 Z" id="Shape" fill="#FEFEFE"></path>
                <path d="M72.525,118.696 C72.634,115.953 72.013,113.401 70.533,111.072 C70.681,110.499 71.143,110.532 71.584,110.532 C76.872,110.531 82.161,110.533 87.449,110.53 C87.905,110.53 88.328,110.578 88.571,111.038 C85.445,113.896 84.746,117.371 85.957,121.33 C85.67,121.287 85.328,121.202 85.306,120.9 C85.224,119.778 84.445,119.883 83.678,119.886 C81.131,119.897 78.584,119.881 76.037,119.894 C74.923,119.9 73.812,119.905 72.719,119.65 C72.467,119.371 72.709,118.989 72.525,118.696 L72.525,118.696 Z" id="Shape" fill="#35B42D"></path>
                <path id="Shape" fill="#33B02B" d="M93.184,126.574 C105.659,126.571 118.133,126.568 130.608,126.57 C130.838,126.57 131.068,126.634 131.297,126.674 C131.308,126.676 131.324,126.733 131.314,126.753 C131.297,126.787 131.262,126.812 131.234,126.841 C118.838,126.844 106.443,126.85 94.047,126.832 C93.777,126.832 93.319,127.145 93.184,126.574 L93.184,126.574 Z"></path>
                <path d="M63.032,129.448 C67.847,128.318 70.925,125.371 72.273,120.614 C72.433,120.812 72.501,121.042 72.435,121.284 C71.401,125.045 67.852,129.075 63.595,129.494 C63.395,129.631 63.204,129.648 63.032,129.448 L63.032,129.448 Z" id="Shape" fill="#33B12B"></path>
                <path id="Shape" fill="#34B22C" d="M61.844,129.965 C61.3,130.288 60.911,130.273 60.384,129.922 C60.922,129.665 61.31,129.666 61.844,129.965 L61.844,129.965 Z"></path>
                <path id="Shape" fill="#33B12B" d="M72.525,118.696 C72.759,118.979 72.712,119.32 72.721,119.65 C72.688,119.793 72.655,119.936 72.622,120.079 C72.565,119.994 72.508,119.91 72.451,119.825 C72.475,119.449 72.5,119.072 72.525,118.696 L72.525,118.696 Z"></path>
                <path id="Shape" fill="#32AF2A" d="M63.032,129.448 C63.22,129.463 63.408,129.479 63.595,129.494 C63.127,129.834 62.65,129.809 62.167,129.527 C62.456,129.501 62.744,129.475 63.032,129.448 L63.032,129.448 Z"></path>
                <path id="Shape" fill="#38BA2F" d="M116.838,89.416 C116.839,90.292 116.841,91.169 116.842,92.045 C116.52,91.169 116.526,90.293 116.838,89.416 L116.838,89.416 Z"></path>
                <path id="Shape" fill="#37B82E" d="M187.436,106.416 C186.984,106.437 186.537,106.426 186.116,106.229 C186.563,106.239 187.03,106.111 187.436,106.416 L187.436,106.416 Z"></path>
                <path id="Shape" fill="#37B82E" d="M131.039,108.855 C131.343,108.872 131.399,109.106 131.168,109.183 C130.843,109.291 130.459,109.228 130.101,109.229 C118.852,109.23 107.602,109.228 96.353,109.232 C95.117,109.232 93.882,109.266 92.646,109.284 C93.121,108.975 93.656,109.092 94.166,109.092 C105.955,109.086 117.745,109.089 129.534,109.082 C130.041,109.081 130.581,109.215 131.039,108.855 L131.039,108.855 Z"></path>
                <path id="Shape" fill="#37B72E" d="M49.397,116.775 C49.398,117.492 49.399,118.209 49.4,118.925 C49.092,118.209 49.094,117.492 49.397,116.775 L49.397,116.775 Z"></path>
                <path d="M235.706,221.946 C235.157,221.449 234.484,221.66 233.867,221.66 C172.654,221.65 111.442,221.651 50.229,221.651 C37.515,221.651 24.8,221.647 12.086,221.664 C11.544,221.665 10.837,221.363 10.542,222.181 C7.738,218.258 5.534,214.033 4.119,209.411 C4.412,209.025 4.822,208.919 5.282,208.903 C5.922,208.881 6.561,208.881 7.201,208.881 C84.413,208.88 161.625,208.88 238.838,208.881 C239.478,208.881 240.117,208.875 240.757,208.905 C241.208,208.926 241.64,208.982 241.91,209.411 C241.845,210.946 241.089,212.278 240.461,213.591 C239.176,216.277 237.908,218.99 236.193,221.448 C236.06,221.635 235.869,221.781 235.706,221.946 L235.706,221.946 Z" id="Shape" fill="#30AA28"></path>
                <path d="M241.908,209.41 L4.118,209.41 C2.993,205.88 2.195,202.278 1.72,198.604 C1.953,198.041 2.417,197.885 2.976,197.865 C3.616,197.842 4.255,197.84 4.895,197.84 C73.116,197.84 141.338,197.838 209.56,197.84 C220.277,197.84 230.994,197.834 241.711,197.84 C242.231,197.84 242.752,197.825 243.27,197.874 C244.329,197.976 244.471,198.182 244.335,199.37 C243.87,201.638 243.44,203.915 242.925,206.171 C242.674,207.273 242.483,208.406 241.908,209.41 L241.908,209.41 Z" id="Shape" fill="#30AA28"></path>
                <path d="M245.802,182.063 C245.802,182.541 245.801,183.02 245.801,183.498 C245.699,185.096 245.596,186.693 245.494,188.291 C245.197,188.67 244.791,188.784 244.33,188.799 C243.73,188.818 243.131,188.821 242.531,188.821 C162.928,188.822 83.324,188.823 3.721,188.806 C2.72,188.806 1.62,189.14 0.749,188.291 C0.732,187.843 0.716,187.394 0.699,186.946 C0.437,185.968 0.752,184.956 0.523,183.976 C0.496,183.817 0.468,183.658 0.441,183.498 C0.44,183.02 0.44,182.541 0.439,182.063 C0.438,181.503 0.438,180.943 0.437,180.383 C0.439,179.896 0.441,179.41 0.443,178.923 L0.53,178.946 C0.812,178.546 1.223,178.442 1.683,178.425 C2.323,178.401 2.963,178.401 3.603,178.401 C83.282,178.4 162.96,178.4 242.639,178.401 C243.279,178.401 243.919,178.4 244.559,178.425 C245.019,178.442 245.43,178.547 245.712,178.946 L245.799,178.922 C245.801,179.409 245.802,179.895 245.804,180.382 C245.803,180.942 245.802,181.502 245.802,182.063 L245.802,182.063 Z" id="Shape" fill="#31AD29"></path>
                <path d="M244.334,199.372 C244.42,198.333 243.725,198.364 243.001,198.366 C237.523,198.375 232.046,198.371 226.568,198.371 L49.051,198.371 C33.86,198.371 18.67,198.37 3.479,198.374 C2.885,198.374 2.273,198.281 1.72,198.606 C1.531,197.684 1.337,196.763 1.417,195.812 C1.209,195.407 1.43,194.943 1.239,194.536 C1.217,194.175 1.195,193.813 1.172,193.452 C1.085,193.297 1.095,193.149 1.202,193.008 C1.527,192.651 1.958,192.597 2.407,192.581 C3.087,192.557 3.766,192.562 4.446,192.562 C83.54,192.562 162.633,192.561 241.727,192.562 C242.487,192.562 243.248,192.533 244.005,192.6 C244.519,192.646 245.082,192.671 245.08,193.416 C245.032,195.425 244.781,197.411 244.334,199.372 L244.334,199.372 Z" id="Shape" fill="#30AB29"></path>
                <path d="M245.08,193.414 C244.87,193.108 244.552,193.09 244.226,193.091 C243.826,193.092 243.426,193.09 243.026,193.09 L1.246,193.09 C0.898,192.84 1.215,192.419 1,192.135 C0.979,191.687 0.958,191.239 0.937,190.792 C0.697,190.136 0.978,189.433 0.759,188.775 C0.755,188.614 0.752,188.452 0.748,188.291 L245.493,188.291 C245.512,190.011 245.377,191.719 245.08,193.414 L245.08,193.414 Z" id="Shape" fill="#30AB29"></path>
                <path d="M10.152,24.371 C85.464,24.371 160.775,24.37 236.087,24.37 C237.719,26.797 239.002,29.42 240.289,32.032 C241.307,34.098 242.016,36.298 242.616,38.526 C242.157,38.736 241.67,38.645 241.196,38.645 C162.479,38.65 83.762,38.65 5.046,38.645 C4.572,38.645 4.084,38.736 3.625,38.527 C4.842,33.367 7.206,28.734 10.152,24.371 L10.152,24.371 Z" id="Shape" fill="#3ABE31"></path>
                <path d="M245.539,58.93 L0.702,58.93 C0.745,55.304 1.054,51.703 1.681,48.13 C1.987,47.769 2.385,47.635 2.85,47.622 C3.45,47.605 4.049,47.6 4.649,47.6 C83.63,47.599 162.611,47.598 241.592,47.615 C242.59,47.615 243.693,47.269 244.56,48.13 C245.186,51.703 245.496,55.304 245.539,58.93 L245.539,58.93 Z" id="Shape" fill="#39BC30"></path>
                <path d="M244.56,48.13 L1.682,48.13 C2.012,44.946 2.61,41.817 3.58,38.763 C4.092,38.447 4.665,38.533 5.219,38.533 C44.416,38.53 83.614,38.53 122.811,38.53 C162.088,38.53 201.365,38.529 240.641,38.536 C241.309,38.536 242.007,38.384 242.636,38.769 C243.645,41.814 244.228,44.947 244.56,48.13 L244.56,48.13 Z" id="Shape" fill="#39BC30"></path>
                <path id="Shape" fill="#39BC30" d="M242.636,38.77 C203.612,38.77 164.587,38.771 125.563,38.77 C84.902,38.769 44.241,38.766 3.581,38.763 C3.596,38.685 3.611,38.606 3.626,38.528 C4.101,38.25 4.627,38.29 5.146,38.29 L241.098,38.29 C241.617,38.29 242.142,38.251 242.618,38.526 C242.623,38.608 242.629,38.689 242.636,38.77 L242.636,38.77 Z"></path>
                <path id="Shape" fill="#31AD29" d="M0.523,183.975 C0.924,184.944 0.643,185.954 0.699,186.944 C0.452,185.966 0.502,184.97 0.523,183.975 L0.523,183.975 Z"></path>
                <path id="Shape" fill="#31AD29" d="M0.759,188.775 C1.126,189.42 0.905,190.116 0.937,190.791 C0.696,190.135 0.73,189.455 0.759,188.775 L0.759,188.775 Z"></path>
                <path id="Shape" fill="#31AD29" d="M1.238,194.535 C1.529,194.928 1.419,195.377 1.416,195.811 C1.196,195.408 1.205,194.973 1.238,194.535 L1.238,194.535 Z"></path>
                <path id="Shape" fill="#31AD29" d="M1.001,192.135 C1.242,192.412 1.18,192.768 1.246,193.09 C1.221,193.21 1.197,193.33 1.172,193.45 C0.952,193.033 0.966,192.585 1.001,192.135 L1.001,192.135 Z"></path>
                <path d="M245.711,178.946 C245.311,178.941 244.912,178.931 244.512,178.931 C163.584,178.93 82.656,178.93 1.728,178.931 C1.328,178.931 0.929,178.94 0.529,178.946 C0.503,178.385 0.478,177.825 0.452,177.264 C0.467,176.62 0.482,175.975 0.497,175.331 L245.743,175.331 C245.758,175.975 245.772,176.619 245.788,177.263 C245.763,177.824 245.737,178.385 245.711,178.946 L245.711,178.946 Z" id="Shape" fill="#31AD29"></path>
            </g>
        </g>
    </g>
</svg>