<?xml version="1.0" encoding="UTF-8" standalone="no"?>
<svg width="131px" height="131px" viewBox="0 0 131 131" version="1.1" xmlns="http://www.w3.org/2000/svg" xmlns:xlink="http://www.w3.org/1999/xlink" xmlns:sketch="http://www.bohemiancoding.com/sketch/ns">
    <!-- Generator: Sketch 3.3.2 (12043) - http://www.bohemiancoding.com/sketch -->
    <title>Beer</title>
    <desc>Created with Sketch.</desc>
    <defs></defs>
    <g id="Page-1" stroke="none" stroke-width="1" fill="none" fill-rule="evenodd" sketch:type="MSPage">
        <g id="Beer" sketch:type="MSLayerGroup">
            <circle id="Oval-1-Copy-4" fill="#3F6591" sketch:type="MSShapeGroup" cx="65.5" cy="65.5" r="65.5"></circle>
            <g id="Group" transform="translate(35.000000, 23.000000)" sketch:type="MSShapeGroup">
                <path d="M54.167,72.893 C54.08,73.537 53.994,74.182 53.907,74.826 C52.197,76.498 50.001,76.469 47.856,76.478 C35.286,76.533 22.715,76.533 10.144,76.478 C7.999,76.469 5.803,76.498 4.093,74.826 C4.112,61.537 4.13,48.248 4.149,34.958 C8.091,32.58 12.072,32.829 16.075,34.769 C17.742,37.543 16.186,40.255 15.829,42.973 C15.486,45.591 15.489,48.037 18.019,49.581 C20.025,50.805 22.195,50.752 24.147,49.45 C26.57,47.833 26.617,45.371 26.29,42.769 C25.952,40.072 24.118,37.391 26.084,34.619 C28.456,32.998 31.18,33.225 33.777,33.372 C40.489,33.75 47.312,32.149 53.921,34.453 C54.983,35.38 55.22,36.656 55.413,37.951 C55.681,47.465 55.641,56.982 55.451,66.5 C55.444,68.715 55.713,70.987 54.167,72.893 L54.167,72.893 Z" id="Shape" fill="#FEB200"></path>
                <path d="M3.896,20.958 C1.502,19.765 -0.342,18.12 0.138,15.166 C0.565,12.543 2.35,11.118 4.963,10.91 C7.228,10.73 7.682,8.628 8.866,7.37 C12.502,3.507 16.629,1.757 21.826,3.697 C23.688,4.392 25.022,4.058 26.776,2.883 C31.857,-0.523 37.242,0.362 41.513,4.99 C42.785,6.368 43.709,7.298 45.971,7.037 C51.255,6.428 54.46,10.521 57.229,13.903 C59.6,16.8 57.065,19.41 54.105,20.958 C49.686,19.851 45.067,20.861 40.656,19.696 C38.214,16.265 35.734,13.052 30.673,15.166 C29.644,15.596 28.511,14.559 27.466,14.073 C21.015,11.072 18.326,11.756 13.961,17.511 C13.358,18.306 12.761,19.093 11.842,19.557 C9.257,20.387 6.503,20.253 3.896,20.958 L3.896,20.958 Z" id="Shape" fill="#FEEBB2"></path>
                <path d="M39.925,18.755 C43.396,18.8 46.867,18.837 50.338,18.894 C51.946,18.92 53.806,18.525 54.104,20.957 C54.125,24.272 54.145,27.587 54.166,30.902 C55.108,32.332 55.225,33.697 53.847,34.944 C46.059,34.926 38.271,34.88 30.483,34.913 C28.9,34.92 27.112,34.364 25.883,35.998 C21.505,32.418 23.593,27.852 24.338,23.73 C24.971,20.228 27.51,17.914 31.285,17.61 C34.221,17.375 37.259,16.779 39.925,18.755 L39.925,18.755 Z" id="Shape" fill="#FED44F"></path>
                <path d="M4.093,74.826 C20.698,74.826 37.303,74.825 53.907,74.825 C54.087,81.963 53.234,82.872 46.138,82.884 C34.712,82.904 23.286,82.904 11.861,82.884 C4.766,82.872 3.913,81.963 4.093,74.826 L4.093,74.826 Z" id="Shape" fill="#BADDFA"></path>
                <path d="M53.846,34.944 C53.952,33.597 54.059,32.249 54.165,30.902 C69.282,26.495 72.463,28.827 71.893,44.588 C71.673,50.672 70.878,56.78 69.802,62.779 C68.417,70.499 64.408,72.883 54.166,72.893 L54.166,66.888 C62.816,65.489 63.51,58.982 63.675,52.112 C63.767,48.303 64.847,44.588 64.653,40.732 C64.491,37.52 63.284,36.163 59.948,37.012 C58.074,37.489 56.23,38.593 54.166,37.785 C54.059,36.839 53.953,35.892 53.846,34.944 L53.846,34.944 Z" id="Shape" fill="#BBDDFA"></path>
                <path d="M3.896,20.958 C5.706,16.767 9.497,19.901 12.124,18.732 C18.834,20.913 21.168,31.153 16.045,35.934 C12.23,33.772 8.108,35.356 4.149,34.959 C4.065,30.292 3.98,25.625 3.896,20.958 L3.896,20.958 Z" id="Shape" fill="#FED44F"></path>
                <path d="M16.045,35.933 C18.658,27.814 17.6,23.176 12.123,18.732 C16.168,10.387 20.43,8.965 28.75,13.43 C30.061,14.134 30.933,14.266 32.345,13.802 C37.353,12.157 38.974,13.299 39.924,18.755 C37.772,18.8 35.621,18.868 33.469,18.887 C27.706,18.938 25.192,21.103 24.963,26.77 C24.839,29.847 24.301,33.054 25.882,35.998 C26.541,38.57 27.323,41.119 27.826,43.721 C28.415,46.763 27.458,49.371 24.773,51.054 C22.32,52.592 19.685,52.599 17.242,51.032 C14.588,49.329 13.616,46.758 14.226,43.69 C14.745,41.087 15.433,38.518 16.045,35.933 L16.045,35.933 Z" id="Shape" fill="#FEFCEF"></path>
                <path d="M37.225,46.923 C39.093,47.256 40.148,48.385 39.9,50.314 C39.686,51.983 38.53,52.957 36.817,52.815 C34.859,52.653 33.861,51.386 34.095,49.469 C34.301,47.793 35.473,46.956 37.225,46.923 L37.225,46.923 Z" id="Shape" fill="#FEE6A4"></path>
                <path d="M40.849,58.933 C42.574,58.971 43.731,59.808 43.903,61.51 C44.097,63.431 43.12,64.719 41.132,64.8 C39.169,64.88 38.05,63.758 38.078,61.781 C38.104,60.047 39.161,59.137 40.849,58.933 L40.849,58.933 Z" id="Shape" fill="#FEDB77"></path>
                <path d="M46.208,46.841 C44.741,46.586 44.048,45.95 44.143,44.773 C44.235,43.628 44.965,42.96 46.122,43.043 C47.269,43.125 47.907,43.862 47.86,45.021 C47.81,46.24 46.889,46.588 46.208,46.841 L46.208,46.841 Z" id="Shape" fill="#FEF3D5"></path>
            </g>
        </g>
    </g>
</svg>