<?xml version="1.0" encoding="UTF-8" standalone="no"?>
<svg width="131px" height="131px" viewBox="0 0 131 131" version="1.1" xmlns="http://www.w3.org/2000/svg" xmlns:xlink="http://www.w3.org/1999/xlink" xmlns:sketch="http://www.bohemiancoding.com/sketch/ns">
    <!-- Generator: Sketch 3.3.2 (12043) - http://www.bohemiancoding.com/sketch -->
    <title>Sagrada Familia</title>
    <desc>Created with Sketch.</desc>
    <defs></defs>
    <g id="Page-1" stroke="none" stroke-width="1" fill="none" fill-rule="evenodd" sketch:type="MSPage">
        <g id="Sagrada-Familia" sketch:type="MSLayerGroup">
            <circle id="Oval-1-Copy-2" fill="#F8DB1C" sketch:type="MSShapeGroup" cx="65.5" cy="65.5" r="65.5"></circle>
            <g id="Group" transform="translate(29.000000, 21.000000)" sketch:type="MSShapeGroup">
                <path d="M55.1,28.734 C56.103,36.366 57.107,43.999 58.11,51.631 C59.513,53.081 59.591,54.958 59.398,56.728 C58.883,61.457 58.763,66.229 57.905,70.915 C55.173,72.775 53.847,75.253 54.257,78.662 C54.43,80.102 54.161,81.588 53.05,82.734 L48.949,82.734 C46.529,79.708 48.469,75.917 47.078,72.292 C45.391,75.809 47.518,79.76 45.05,82.734 L42.949,82.734 C40.346,78.171 41.714,73.309 41.867,68.54 C42.782,65.837 42.652,63.031 42.634,60.239 C42.724,57.302 42.564,54.37 42.371,51.437 C42.485,50.055 42.922,48.819 43.998,47.875 C44.965,41.494 45.932,35.114 46.899,28.733 C49.633,29.78 52.366,29.778 55.1,28.734 L55.1,28.734 Z" id="Shape" fill="#8D6E63"></path>
                <path d="M31.05,82.734 L28.949,82.734 C26.529,79.708 28.469,75.917 27.078,72.292 C25.391,75.809 27.518,79.76 25.05,82.734 L20.949,82.734 C19.844,81.594 19.584,80.119 19.745,78.683 C20.121,75.32 18.963,72.78 16.124,70.962 C15.214,66.26 15.132,61.475 14.599,56.738 C14.399,54.966 14.483,53.084 15.89,51.632 C16.893,43.999 17.896,36.366 18.899,28.734 C21.632,29.782 24.366,29.78 27.099,28.736 C27.777,33.683 28.42,38.635 29.16,43.573 C29.337,44.752 28.493,46.236 30.054,47.071 C31.219,48.294 31.499,49.837 31.637,51.434 C31.405,54.345 31.283,57.26 31.363,60.184 C31.355,62.978 31.208,65.78 32.122,68.492 C32.277,73.278 33.671,78.159 31.05,82.734 L31.05,82.734 Z" id="Shape" fill="#8D6E63"></path>
                <path d="M56.94,71.952 C57.33,65.179 57.72,58.406 58.11,51.632 C59.679,49.696 58.612,47.141 59.65,45.08 C63.048,42.584 66.497,42.733 69.983,44.884 C73.017,56.852 73.121,69.059 72.957,81.288 C72.939,82.647 72.077,82.867 70.965,82.728 C69.53,81.497 70.091,79.428 69.149,77.779 C67.699,79.339 68.562,81.536 67.037,82.728 L62.965,82.728 C61.081,80.922 62.296,78.266 61.004,75.816 C59.675,78.143 60.93,80.957 59.038,82.728 C58.333,82.734 57.628,82.741 56.923,82.747 C54.869,79.146 54.813,75.547 56.94,71.952 L56.94,71.952 Z" id="Shape" fill="#A0887F"></path>
                <path d="M15.89,51.631 C16.28,58.405 16.67,65.178 17.06,71.952 C19.187,75.547 19.13,79.146 17.078,82.748 C16.373,82.742 15.668,82.735 14.963,82.729 C13.079,80.923 14.294,78.267 13.002,75.817 C11.673,78.144 12.928,80.958 11.036,82.729 L6.964,82.729 C5.439,81.536 6.302,79.34 5,77.939 C3.698,79.34 4.561,81.536 3.036,82.729 C0.472,83.047 1.051,81.132 1.016,79.78 C0.712,68.125 1.508,56.551 3.649,45.08 C7.047,42.584 10.496,42.734 13.982,44.885 C15.632,46.847 14.214,49.677 15.89,51.631 L15.89,51.631 Z" id="Shape" fill="#A0887F"></path>
                <path d="M31.072,50.952 C29.55,49.968 30.183,48.418 30.055,47.069 C35.808,45.425 36.999,42.347 33.809,37.232 C32.563,35.233 32.742,33.402 34.468,31.888 C36.03,30.518 37.847,30.503 39.464,31.824 C41.06,33.128 41.428,34.845 40.509,36.732 C37.396,43.122 37.725,44.194 43.999,47.874 C43.908,48.992 44.18,50.237 42.929,50.952 C41.599,54.584 43.468,58.194 43.007,61.822 C42.991,63.82 44.103,65.799 43.095,67.809 C43.047,72.784 42.998,77.758 42.95,82.733 L31.051,82.733 C31.002,77.759 30.954,72.785 30.905,67.811 C30.107,65.792 30.571,63.782 30.95,61.774 C30.583,58.164 32.39,54.576 31.072,50.952 L31.072,50.952 Z" id="Shape" fill="#5D4037"></path>
                <path d="M10.068,22.93 C11.294,28.965 12.52,34.999 13.746,41.034 C10.582,42.875 7.418,42.876 4.254,41.033 C5.48,34.999 6.706,28.965 7.932,22.93 C8.644,22.356 9.356,22.356 10.068,22.93 L10.068,22.93 Z" id="Shape" fill="#BCABA5"></path>
                <path d="M66.068,22.93 C67.294,28.965 68.52,34.999 69.746,41.034 C66.582,42.875 63.418,42.876 60.254,41.033 C61.48,34.999 62.706,28.965 63.932,22.93 C64.644,22.356 65.356,22.356 66.068,22.93 L66.068,22.93 Z" id="Shape" fill="#BCABA5"></path>
                <path d="M52.033,8.913 C52.967,14.933 53.901,20.952 54.834,26.972 C52.277,28.748 49.721,28.748 47.165,26.971 C48.099,20.951 49.032,14.932 49.966,8.912 C50.656,8.36 51.344,8.36 52.033,8.913 L52.033,8.913 Z" id="Shape" fill="#A38A81"></path>
                <path d="M24.033,8.913 C24.967,14.933 25.901,20.952 26.834,26.972 C24.277,28.748 21.721,28.748 19.165,26.971 C20.099,20.951 21.032,14.932 21.966,8.912 C22.656,8.36 23.344,8.36 24.033,8.913 L24.033,8.913 Z" id="Shape" fill="#A38A81"></path>
                <path d="M45.05,82.733 C45.047,79.069 45.009,75.405 45.062,71.742 C45.08,70.515 45.526,69.319 47,69.319 C48.474,69.319 48.921,70.515 48.938,71.742 C48.99,75.405 48.952,79.069 48.949,82.733 C47.65,82.734 46.35,82.734 45.05,82.733 L45.05,82.733 Z" id="Shape" fill="#5D4037"></path>
                <path d="M25.05,82.733 C25.047,79.069 25.009,75.405 25.061,71.742 C25.079,70.514 25.525,69.319 26.999,69.319 C28.473,69.319 28.919,70.515 28.937,71.742 C28.989,75.405 28.951,79.069 28.948,82.733 C27.65,82.734 26.35,82.734 25.05,82.733 L25.05,82.733 Z" id="Shape" fill="#5D4037"></path>
                <path d="M10.068,22.93 L7.932,22.93 C5.884,21.768 4.434,20.208 5.24,17.684 C5.785,15.977 7.106,14.953 9,14.941 C10.667,14.93 11.913,15.762 12.559,17.233 C13.756,19.959 12.284,21.635 10.068,22.93 L10.068,22.93 Z" id="Shape" fill="#A38B82"></path>
                <path d="M66.068,22.93 L63.932,22.93 C61.884,21.768 60.435,20.208 61.24,17.684 C61.785,15.977 63.106,14.953 65,14.941 C66.667,14.93 67.913,15.762 68.559,17.233 C69.756,19.959 68.284,21.635 66.068,22.93 L66.068,22.93 Z" id="Shape" fill="#A38B82"></path>
                <path d="M52.033,8.913 L49.966,8.913 C47.895,7.835 46.496,6.314 47.183,3.814 C47.655,2.096 48.915,1.044 50.755,0.929 C52.598,0.814 53.982,1.693 54.642,3.362 C55.702,6.045 54.289,7.712 52.033,8.913 L52.033,8.913 Z" id="Shape" fill="#715147"></path>
                <path d="M24.033,8.913 L21.966,8.913 C19.895,7.835 18.496,6.314 19.183,3.814 C19.655,2.096 20.915,1.044 22.755,0.929 C24.598,0.814 25.982,1.693 26.642,3.362 C27.702,6.045 26.289,7.712 24.033,8.913 L24.033,8.913 Z" id="Shape" fill="#715147"></path>
                <path d="M56.94,71.952 C56.934,75.551 56.928,79.149 56.922,82.748 C55.632,82.743 54.341,82.738 53.051,82.733 C53.041,79.8 52.917,76.862 53.053,73.936 C53.178,71.243 54.55,70.472 56.94,71.952 L56.94,71.952 Z" id="Shape" fill="#5D4037"></path>
                <path d="M17.078,82.748 C17.072,79.149 17.066,75.55 17.06,71.952 C19.45,70.472 20.822,71.243 20.947,73.937 C21.083,76.863 20.96,79.801 20.949,82.734 C19.659,82.739 18.369,82.743 17.078,82.748 L17.078,82.748 Z" id="Shape" fill="#5D4037"></path>
                <path d="M60.254,41.033 C63.418,41.033 66.582,41.034 69.746,41.034 C69.824,42.318 69.903,43.601 69.981,44.885 C66.537,44.95 63.094,45.015 59.649,45.08 C58.9,43.589 60.46,42.443 60.254,41.033 L60.254,41.033 Z" id="Shape" fill="#8D6E63"></path>
                <path d="M4.254,41.033 C7.418,41.033 10.582,41.034 13.746,41.034 C13.824,42.318 13.903,43.601 13.981,44.885 C10.537,44.95 7.094,45.015 3.649,45.08 C2.9,43.589 4.46,42.443 4.254,41.033 L4.254,41.033 Z" id="Shape" fill="#8D6E63"></path>
                <path d="M11.036,82.729 C11.057,80.237 11.008,77.742 11.134,75.256 C11.186,74.225 11.803,73.313 13,73.313 C14.198,73.313 14.814,74.226 14.866,75.256 C14.991,77.742 14.942,80.237 14.964,82.729 L11.036,82.729 L11.036,82.729 Z" id="Shape" fill="#8D6E63"></path>
                <path d="M59.036,82.729 C59.057,80.238 59.008,77.742 59.134,75.256 C59.186,74.225 59.803,73.313 61,73.313 C62.198,73.313 62.814,74.225 62.866,75.256 C62.991,77.742 62.942,80.237 62.964,82.729 L59.036,82.729 L59.036,82.729 Z" id="Shape" fill="#8D6E63"></path>
                <path d="M47.165,26.971 C49.721,26.971 52.278,26.971 54.834,26.972 C54.922,27.559 55.011,28.147 55.099,28.734 C52.605,31.76 49.392,31.759 46.899,28.732 C46.988,28.145 47.077,27.558 47.165,26.971 L47.165,26.971 Z" id="Shape" fill="#6D4C41"></path>
                <path d="M19.165,26.971 C21.721,26.971 24.278,26.971 26.834,26.972 C26.922,27.559 27.011,28.147 27.099,28.734 C24.605,31.76 21.392,31.759 18.899,28.732 C18.988,28.145 19.077,27.558 19.165,26.971 L19.165,26.971 Z" id="Shape" fill="#6D4C41"></path>
                <path d="M3.036,82.73 C3.641,80.233 1.353,75.651 5,75.651 C8.648,75.651 6.359,80.233 6.964,82.73 L3.036,82.73 L3.036,82.73 Z" id="Shape" fill="#8D6E63"></path>
                <path d="M67.036,82.73 C67.641,80.233 65.353,75.651 69,75.651 C72.648,75.651 70.359,80.233 70.964,82.73 L67.036,82.73 L67.036,82.73 Z" id="Shape" fill="#8D6E63"></path>
                <path d="M42.208,61.625 C41.78,58.914 41.354,56.202 40.925,53.491 C40.677,51.921 40.547,50.447 42.928,50.953 C45.177,53.643 43.298,56.785 43.882,59.657 C43.153,60.167 44.187,62.177 42.208,61.625 L42.208,61.625 Z" id="Shape" fill="#E4DEDC"></path>
                <path d="M42.208,61.625 C42.767,60.97 43.325,60.314 43.883,59.658 C43.737,62.386 44.882,65.241 43.094,67.811 C42.799,65.748 42.504,63.686 42.208,61.625 L42.208,61.625 Z" id="Shape" fill="#967B72"></path>
                <path d="M31.072,50.952 C33.436,50.45 33.327,51.907 33.078,53.481 C32.65,56.185 32.226,58.889 31.801,61.593 C29.819,62.181 30.846,60.156 30.118,59.655 C30.701,56.783 28.823,53.642 31.072,50.952 L31.072,50.952 Z" id="Shape" fill="#E4DEDC"></path>
                <path d="M30.117,59.655 C30.678,60.301 31.239,60.947 31.8,61.593 C31.502,63.666 31.204,65.74 30.905,67.812 C29.12,65.24 30.261,62.385 30.117,59.655 L30.117,59.655 Z" id="Shape" fill="#967B72"></path>
            </g>
        </g>
    </g>
</svg>