<?xml version="1.0" encoding="UTF-8" standalone="no"?>
<svg width="131px" height="131px" viewBox="0 0 131 131" version="1.1" xmlns="http://www.w3.org/2000/svg" xmlns:xlink="http://www.w3.org/1999/xlink" xmlns:sketch="http://www.bohemiancoding.com/sketch/ns">
    <!-- Generator: Sketch 3.3.2 (12043) - http://www.bohemiancoding.com/sketch -->
    <title>DJ</title>
    <desc>Created with Sketch.</desc>
    <defs></defs>
    <g id="Page-1" stroke="none" stroke-width="1" fill="none" fill-rule="evenodd" sketch:type="MSPage">
        <g id="DJ" sketch:type="MSLayerGroup">
            <circle id="Oval-1-Copy-3" fill="#6FC1A7" sketch:type="MSShapeGroup" cx="65.5" cy="65.5" r="65.5"></circle>
            <g id="Group" transform="translate(30.000000, 25.000000)" sketch:type="MSShapeGroup">
                <path d="M71.835,64.851 C72.569,78.878 72.569,78.878 58.68,78.878 C42.065,78.878 25.449,78.88 8.834,78.877 C0.212,78.876 -0.016,78.648 0.007,69.825 C0.011,68.167 0.11,66.509 0.165,64.851 C2.223,63.029 4.764,63.455 7.175,63.404 C12.234,63.297 17.297,63.523 22.353,63.198 C23.84,62.99 25.288,63.49 26.768,63.427 C32.906,63.394 39.045,63.387 45.183,63.417 C46.664,63.496 48.118,63.006 49.605,63.187 C54.998,63.566 60.399,63.282 65.794,63.4 C67.903,63.446 70.092,63.245 71.835,64.851 L71.835,64.851 Z" id="Shape" fill="#607D8A"></path>
                <path d="M46.001,64.719 L25.999,64.719 C23.245,60.883 25.463,56.333 24.199,52.292 C23.233,49.553 18.209,50.312 18.887,46.156 C24.94,33.153 36.819,29.08 46.632,36.69 C50,39.302 51.887,42.946 53.285,46.878 C52.838,50.112 48.923,49.822 47.767,52.335 C46.549,56.378 48.749,60.904 46.001,64.719 L46.001,64.719 Z" id="Shape" fill="#F34336"></path>
                <path d="M45.834,21.974 C41.403,30.985 30.637,31.04 26.157,21.961 C24.313,20.354 24.719,18.317 25.061,16.288 C26.765,10.965 30.367,7.778 35.988,7.771 C41.612,7.764 45.221,10.938 46.935,16.274 C47.29,18.312 47.695,20.365 45.834,21.974 L45.834,21.974 Z" id="Shape" fill="#FEB74E"></path>
                <path d="M19.963,20.969 C17.317,19.757 17.833,17.442 18.199,15.371 C19.674,7.025 27.276,0.907 35.995,0.913 C44.716,0.919 52.313,7.031 53.799,15.372 C54.168,17.444 54.68,19.757 52.037,20.971 C50.722,19.226 50.365,16.668 47.799,15.983 C46.693,10.371 43.063,7.259 37.63,6.457 C32.354,5.678 28.268,8.022 25.265,12.332 C24.6,13.287 24.133,14.371 23.385,15.274 C21.416,16.672 21.565,19.349 19.963,20.969 L19.963,20.969 Z" id="Shape" fill="#56707C"></path>
                <path d="M18.887,46.155 C19.864,49.125 23.292,48.77 25.041,50.693 C24.288,55.248 21.784,58.743 18.375,61.697 C16.158,62.248 13.954,62.712 12.146,60.706 C14.393,55.856 16.64,51.006 18.887,46.155 L18.887,46.155 Z" id="Shape" fill="#FEB750"></path>
                <path d="M46.958,50.691 C49.067,49.419 51.176,48.146 53.285,46.876 C55.452,51.49 57.617,56.102 59.783,60.714 C57.985,62.698 55.803,62.236 53.607,61.691 C50.244,58.723 47.69,55.258 46.958,50.691 L46.958,50.691 Z" id="Shape" fill="#FEB74F"></path>
                <path d="M12.146,60.706 C14.391,60.706 16.635,60.706 18.88,60.705 C21.62,59.992 23.017,61.023 23.008,63.882 C18.65,66.016 14.02,64.499 9.528,64.843 C6.425,65.081 3.287,64.864 0.165,64.85 C0.046,61.671 2.17,61.004 4.692,60.887 C7.174,60.772 9.661,60.762 12.146,60.706 L12.146,60.706 Z" id="Shape" fill="#465B65"></path>
                <path d="M53.081,60.703 C55.316,60.707 57.551,60.711 59.784,60.715 C62.358,60.77 64.937,60.755 67.507,60.901 C69.955,61.04 71.972,61.807 71.834,64.851 C65.754,64.865 59.673,64.915 53.593,64.867 C52.023,64.855 50.258,65.435 48.991,63.883 C48.976,61.05 50.354,60.009 53.081,60.703 L53.081,60.703 Z" id="Shape" fill="#465B65"></path>
                <path d="M19.963,20.969 C20.246,18.542 19.003,15.336 23.086,14.849 C24.757,13.969 25.633,14.621 25.958,16.338 C26.024,18.212 26.091,20.087 26.157,21.961 C25.595,23.724 24.404,24.925 22.55,24.607 C20.738,24.296 19.826,22.896 19.963,20.969 L19.963,20.969 Z" id="Shape" fill="#495E67"></path>
                <path d="M47.638,15.674 C52.511,14.611 52.134,17.907 52.037,20.971 C52.096,22.988 51.432,24.618 49.224,24.832 C47.305,25.017 46.289,23.734 45.834,21.975 C45.907,20.125 45.98,18.276 46.053,16.426 C46.094,15.146 46.907,15.498 47.638,15.674 L47.638,15.674 Z" id="Shape" fill="#4A5E68"></path>
            </g>
        </g>
    </g>
</svg>