<?xml version="1.0" encoding="UTF-8" standalone="no"?>
<svg width="131px" height="131px" viewBox="0 0 131 131" version="1.1" xmlns="http://www.w3.org/2000/svg" xmlns:xlink="http://www.w3.org/1999/xlink" xmlns:sketch="http://www.bohemiancoding.com/sketch/ns">
    <!-- Generator: Sketch 3.3.2 (12043) - http://www.bohemiancoding.com/sketch -->
    <title>Sports Mode</title>
    <desc>Created with Sketch.</desc>
    <defs></defs>
    <g id="Page-1" stroke="none" stroke-width="1" fill="none" fill-rule="evenodd" sketch:type="MSPage">
        <g id="Sports-Mode" sketch:type="MSLayerGroup">
            <circle id="Oval-1-Copy-5" fill="#2E425A" sketch:type="MSShapeGroup" cx="65.5" cy="65.5" r="65.5"></circle>
            <g id="Group" transform="translate(33.000000, 25.000000)" sketch:type="MSShapeGroup">
                <path d="M24.113,59.986 C19.478,63.694 17.166,69.208 13.492,73.665 C12.542,74.818 11.736,76.088 10.85,77.295 C9.251,79.472 7.651,81.999 4.422,80.289 C1.011,78.482 1.997,75.799 3.305,73.019 C9.384,60.095 15.382,47.134 21.394,34.179 C22.02,32.83 22.545,31.434 23.118,30.06 C23.646,25.952 24.997,22.44 29.516,21.221 C33.535,21.021 37.148,21.689 39.167,25.75 C37.607,27.378 35.719,26.04 34.005,26.311 C32.392,26.566 31.196,27.265 30.822,28.941 C30.496,30.403 31.21,31.443 32.277,32.369 C33.836,33.723 36.52,33.623 37.162,36.151 C36.356,38.864 33.954,40.902 33.87,43.921 C31.908,50.06 28.1,55.077 24.113,59.986 L24.113,59.986 Z" id="Shape" fill="#009688"></path>
                <path d="M37.162,36.151 C35.822,35.534 34.504,34.862 33.138,34.31 C30.22,33.131 28.289,31.431 29.589,27.94 C30.836,24.591 33.37,24.178 36.412,25.05 C37.325,25.312 38.079,26.183 39.169,25.751 C39.537,26.073 39.892,26.409 40.273,26.713 C47.775,32.712 48.656,32.646 55.96,26.608 C58.606,24.421 61.625,20.388 65.041,24.792 C68.04,28.658 63.304,30.243 61.389,32.647 C54.366,41.462 46.182,41.524 37.162,36.151 L37.162,36.151 Z" id="Shape" fill="#FE9801"></path>
                <path d="M39.764,20.878 C34.19,20.746 29.745,15.969 30.017,10.404 C30.279,5.037 34.865,0.774 40.237,0.901 C45.811,1.033 50.256,5.81 49.984,11.375 C49.721,16.743 45.137,21.006 39.764,20.878 L39.764,20.878 Z" id="Shape" fill="#FE9801"></path>
                <path d="M29.516,21.221 C25.596,22.874 25.626,27.385 23.118,30.06 C16.421,27.754 11.816,29.93 9.097,36.453 C8.604,37.635 7.693,38.717 6.762,39.626 C5.287,41.065 3.521,41.302 1.834,39.95 C0.282,38.707 -0.613,37.075 0.596,35.187 C3.36,30.872 6.215,26.612 9.13,22.396 C9.915,21.261 11.264,20.884 12.658,20.909 C18.277,21.011 23.897,21.117 29.516,21.221 L29.516,21.221 Z" id="Shape" fill="#FE9802"></path>
                <path d="M24.113,59.986 C26.503,54.107 30.307,49.088 33.87,43.921 C36.426,45.044 39.019,46.091 41.526,47.315 C43.232,48.148 44.467,49.476 44.285,51.586 C44.118,53.519 42.728,54.459 41.107,54.955 C35.458,56.685 29.78,58.317 24.113,59.986 L24.113,59.986 Z" id="Shape" fill="#02796C"></path>
            </g>
        </g>
    </g>
</svg>