<?xml version="1.0" encoding="UTF-8" standalone="no"?>
<svg width="62px" height="77px" viewBox="0 0 62 77" version="1.1" xmlns="http://www.w3.org/2000/svg" xmlns:xlink="http://www.w3.org/1999/xlink" xmlns:sketch="http://www.bohemiancoding.com/sketch/ns">
    <!-- Generator: Sketch 3.3.2 (12043) - http://www.bohemiancoding.com/sketch -->
    <title>Group Copy</title>
    <desc>Created with Sketch.</desc>
    <defs></defs>
    <g id="Page-1" stroke="none" stroke-width="1" fill="none" fill-rule="evenodd" sketch:type="MSPage">
        <g id="Shopping-Bag" sketch:type="MSLayerGroup" transform="translate(-35.000000, 0.000000)">
            <g id="Group-Copy" transform="translate(35.000000, 0.000000)" sketch:type="MSShapeGroup">
                <path d="M1.001,38.767 C1.001,27.447 1.093,16.127 0.939,4.809 C0.899,1.844 1.591,0.787 4.782,0.816 C22.259,0.973 39.74,0.972 57.217,0.816 C60.402,0.788 61.076,1.838 61.062,4.805 C60.952,27.61 60.961,50.416 61.054,73.221 C61.065,75.96 60.4,76.971 57.471,76.951 C39.827,76.826 22.181,76.826 4.536,76.951 C1.612,76.972 0.917,75.971 0.948,73.225 C1.076,61.74 1.001,50.253 1.001,38.767 L1.001,38.767 Z" id="Shape" fill="#8AC24A"></path>
                <path d="M45.129,15.867 C45.402,22.077 43.76,27.469 38.128,30.835 C29.049,36.261 17.553,29.962 17.001,19.352 C16.941,18.191 16.913,17.028 16.87,15.866 C16.058,14.127 15.702,12.419 17.439,11.002 C18.444,10.182 19.555,10.182 20.56,11.002 C22.297,12.418 21.941,14.126 21.129,15.866 C19.154,24.033 26.895,31.398 35.08,27.824 C40.258,25.563 41.501,21.095 40.87,15.866 C40.058,14.127 39.702,12.419 41.439,11.002 C42.444,10.182 43.555,10.182 44.56,11.002 C46.297,12.42 45.941,14.128 45.129,15.867 L45.129,15.867 Z" id="Shape" fill="#FDFDFC"></path>
                <path d="M21.129,15.867 C20.591,14.206 21.919,11.247 19,11.246 C16.08,11.245 17.407,14.205 16.87,15.866 C14.204,14.161 14.447,12.064 16.351,10.076 C17.977,8.379 20.022,8.379 21.648,10.076 C23.552,12.065 23.796,14.162 21.129,15.867 L21.129,15.867 Z" id="Shape" fill="#3A6F23"></path>
                <path d="M45.129,15.867 C44.591,14.206 45.919,11.247 43,11.246 C40.08,11.245 41.407,14.205 40.87,15.866 C38.204,14.161 38.447,12.064 40.351,10.076 C41.977,8.379 44.022,8.379 45.648,10.076 C47.552,12.065 47.796,14.162 45.129,15.867 L45.129,15.867 Z" id="Shape" fill="#3A6F23"></path>
            </g>
        </g>
    </g>
</svg>