<?xml version="1.0" encoding="UTF-8" standalone="no"?>
<svg width="76px" height="78px" viewBox="0 0 76 78" version="1.1" xmlns="http://www.w3.org/2000/svg" xmlns:xlink="http://www.w3.org/1999/xlink" xmlns:sketch="http://www.bohemiancoding.com/sketch/ns">
    <!-- Generator: Sketch 3.3.2 (12043) - http://www.bohemiancoding.com/sketch -->
    <title>Group Copy 2</title>
    <desc>Created with Sketch.</desc>
    <defs></defs>
    <g id="Page-1" stroke="none" stroke-width="1" fill="none" fill-rule="evenodd" sketch:type="MSPage">
        <g id="Waiter" sketch:type="MSLayerGroup" transform="translate(-28.000000, 0.000000)">
            <g id="Group-Copy-2" transform="translate(28.000000, 0.000000)" sketch:type="MSShapeGroup">
                <path d="M1.22884507,67.398411 C1.17960563,59.9520822 0.891661972,52.498274 1.14856338,45.0615616 C1.39476056,37.9496712 4.56428169,32.521726 11.7029296,30.0620548 C12.9456901,30.8484658 13.348169,32.1573699 13.824507,33.4235342 C15.2064225,39.8911233 17.6105915,46.1685205 18.0665915,51.4223014 C18.8544225,46.5980548 20.2010141,40.2992877 22.440338,34.2302466 C22.9809014,33.0057534 23.5760563,31.8143836 24.6421972,30.9403562 C28.6744789,30.2127123 30.600169,33.2792877 33.0407324,35.5070959 C35.4598873,37.7156712 36.6491268,42.4416164 39.699831,42.2353973 C42.2795493,42.0612329 43.0320563,37.3459726 44.9406197,34.8777534 C45.4597746,34.2067397 46.1630423,33.6789041 46.7828169,33.0848219 C48.9878873,33.2792877 50.7369577,34.1447671 51.5847324,36.3362466 C51.0024225,42.3978082 47.0964507,46.9335616 43.7727887,51.4767945 C42.4465352,53.2900274 38.5127324,53.0528219 36.0561127,50.8837808 C34.6410141,49.6347123 33.2612394,48.3461096 31.0433239,46.325589 C31.0433239,55.9185205 30.7832113,64.5305753 31.1546479,73.1148493 C31.3366197,77.3086849 29.9086761,78.1987397 26.0712113,77.9572603 C19.8734648,77.5683288 13.6446761,77.6709041 7.42980282,77.5661918 C6.42039437,73.5358356 3.79464789,70.4852877 1.22884507,67.398411 L1.22884507,67.398411 Z" id="Shape" fill="#455A64"></path>
                <path d="M28.7258592,16.1588219 C29.1850704,21.1786027 24.7171268,23.2888767 22.4735211,26.7133973 C22.1063662,27.0083014 21.6899718,27.1803288 21.2189859,27.2230685 C19.1380845,27.4527945 17.0753803,28.1088493 14.9538028,27.5179726 C14.5063662,27.3384658 14.1060282,27.0820274 13.7517183,26.756137 C11.5744789,23.484411 7.02411268,21.6562192 7.6096338,16.7026849 C8.18659155,10.4787123 12.6556056,8.59175342 17.8567887,7.23156164 C23.6456338,5.71857534 26.4565634,7.26361644 27.747493,13.2258082 C27.9690704,14.2526301 27.892,15.3467671 28.7258592,16.1588219 L28.7258592,16.1588219 Z" id="Shape" fill="#FDB64D"></path>
                <path d="M60.7603944,12.6242466 C61.2431549,13.9278082 62.3082254,14.4075616 63.5616901,14.7751233 C69.4672113,16.5071507 72.2588732,21.0311507 73.9587042,26.4996986 C73.1280563,27.5286575 71.9709296,27.9891781 70.7260282,28.0586301 C62.8252394,28.4988493 54.9212394,28.4988493 47.0204507,28.0586301 C45.7755493,27.9891781 44.6184225,27.5286575 43.7877746,26.4996986 C45.5957183,20.6037534 48.7695211,16.0273973 55.1781408,14.3979452 C55.8856901,14.2184384 56.3887887,13.2364932 56.9871549,12.6263836 C58.2449014,12.1145753 59.5026479,12.1135068 60.7603944,12.6242466 L60.7603944,12.6242466 Z" id="Shape" fill="#9FA8D9"></path>
                <path d="M28.7258592,16.1588219 C27.0089014,17.2572329 26.9211268,16.3201644 26.6438873,14.8103836 C25.1121127,6.48361644 22.9412958,6.29983562 17.0892958,8.9390137 C13.4466479,10.5812877 8.436,10.5535068 9.16495775,16.6033151 C8.64687324,16.6364384 8.12878873,16.6706301 7.61070423,16.7026849 C7.5571831,14.5988219 7.23926761,12.4629041 7.5004507,10.3996438 C8.21656338,4.73342466 13.3363944,0.642164384 19.0149859,0.947753425 C23.3662535,1.18175342 28.4132958,6.23679452 28.7932958,10.8900822 C28.935662,12.6327945 28.7579718,14.4022192 28.7258592,16.1588219 L28.7258592,16.1588219 Z" id="Shape" fill="#454443"></path>
                <path d="M43.7877746,26.4996986 L73.9587042,26.4996986 C75.4658592,26.5413699 76.2333521,27.2038356 75.8640563,28.7905479 C75.536507,30.1998904 74.5067606,30.7672603 73.1869296,30.8089315 C69.7048451,30.9189863 66.2195493,30.968137 62.7363944,31.041863 C57.932338,33.0249863 53.1282817,33.2974521 48.3231549,31.044 C46.7464225,30.9125753 44.9427606,31.2203014 43.6454085,30.5492877 C41.4938592,29.4359178 39.8015211,27.7006849 43.7877746,26.4996986 L43.7877746,26.4996986 Z" id="Shape" fill="#5C6BBF"></path>
                <path d="M48.3242254,31.044 C53.1304225,31.0429315 57.9355493,31.0429315 62.7396056,31.041863 C60.7197183,36.3736438 55.0625352,34.0699726 51.5847324,36.3383836 C49.7478873,35.6043288 48.0576901,34.6544384 46.7849577,33.0880274 C47.2966197,32.4063288 47.8104225,31.7246301 48.3242254,31.044 L48.3242254,31.044 Z" id="Shape" fill="#FDB852"></path>
                <path d="M1.22884507,67.398411 C5.50197183,69.4488493 8.78174648,72.1019178 7.42980282,77.5693973 C2.91047887,75.6685479 -0.235492958,72.934274 1.22884507,67.398411 L1.22884507,67.398411 Z" id="Shape" fill="#FBB650"></path>
                <path d="M21.6760563,26.7166027 C21.9425915,26.7486575 22.2080563,26.747589 22.4735211,26.7133973 C23.871493,27.7786849 23.0012394,30.0022192 24.6432676,30.9424932 C24.6935775,32.1028767 24.776,33.2718082 23.6938028,34.0913425 C21.508,33.074137 18.6949296,32.9448493 17.8664225,29.9968767 C18.4069859,28.0618356 19.8873803,27.2102466 21.6760563,26.7166027 L21.6760563,26.7166027 Z" id="Shape" fill="#576970"></path>
                <path d="M13.7517183,26.756137 C14.0310986,26.8544384 14.308338,26.8469589 14.5823662,26.7358356 C16.1451831,27.295726 17.7369014,27.8267671 17.6330704,29.9594795 C17.2059718,32.1178356 16.1590986,33.5196986 13.687493,33.1809863 C12.3762254,31.904137 11.8934648,30.4445753 12.7027042,28.701863 C13.0527324,28.0532877 13.4027606,27.4047123 13.7517183,26.756137 L13.7517183,26.756137 Z" id="Shape" fill="#506063"></path>
                <path d="M60.7603944,12.6242466 C59.5037183,13.7012877 58.2459718,13.7023562 56.9871549,12.6274521 C56.5782535,10.9787671 57.0406761,9.68375342 58.8710986,9.68161644 C60.703662,9.68054795 61.1671549,10.9744932 60.7603944,12.6242466 L60.7603944,12.6242466 Z" id="Shape" fill="#6572C2"></path>
                <path d="M12.7037746,28.701863 C12.9007324,30.1689041 12.5999437,31.8154521 14.1756056,32.7877808 C13.811662,33.3273699 13.3695775,33.4000274 12.851493,33.0046849 C11.6622535,32.3379452 11.807831,31.1519178 11.7029296,30.0641918 C12.0369014,29.6090137 12.3698028,29.1559726 12.7037746,28.701863 L12.7037746,28.701863 Z" id="Shape" fill="#CAD6DD"></path>
                <path d="M12.851493,33.0046849 C13.292507,32.9330959 13.7335211,32.8604384 14.1756056,32.7888493 C15.296338,31.7930137 16.4170704,30.7982466 17.5378028,29.802411 L18.004507,29.8184384 C19.4249577,31.8731507 22.6223099,31.5729041 23.6938028,34.092411 C21.9318873,40.8933699 20.1710423,47.6932603 18.4101972,54.4942192 C16.0766761,47.2605205 13.5825915,40.3398904 12.851493,33.0046849 L12.851493,33.0046849 Z" id="Shape" fill="#E0EFFA"></path>
                <path d="M18.004507,29.8173699 L17.5367324,29.802411 C16.5530141,28.779863 15.5692958,27.7573151 14.584507,26.7358356 C16.9469296,26.9324384 19.3072113,25.7271781 21.6739155,26.7187397 C20.4525634,27.7498356 19.228,28.784137 18.004507,29.8173699 L18.004507,29.8173699 Z" id="Shape" fill="#ED920A"></path>
            </g>
        </g>
    </g>
</svg>