<?xml version="1.0" encoding="utf-8"?>
<!-- Generator: Adobe Illustrator 17.0.0, SVG Export Plug-In . SVG Version: 6.00 Build 0)  -->
<!DOCTYPE svg PUBLIC "-//W3C//DTD SVG 1.1//EN" "http://www.w3.org/Graphics/SVG/1.1/DTD/svg11.dtd">
<svg version="1.1" id="Layer_1" xmlns="http://www.w3.org/2000/svg" xmlns:xlink="http://www.w3.org/1999/xlink" x="0px" y="0px"
	 width="595.28px" height="841.89px" viewBox="0 0 595.28 841.89" enable-background="new 0 0 595.28 841.89" xml:space="preserve">
<g>
	<g>
		<path fill="#FEFEFE" d="M251,373.89c30.833,0,61.667,0.053,92.5-0.085c2.984-0.013,3.6,0.601,3.585,3.585
			c-0.14,29.666-0.14,59.333,0,88.999c0.014,2.984-0.601,3.6-3.585,3.585c-29.666-0.14-59.333-0.14-88.999,0
			c-2.984,0.014-3.599-0.601-3.585-3.585C251.053,435.557,251,404.723,251,373.89z"/>
		<path fill="#FEB200" d="M317.167,451.893c-0.087,0.644-0.173,1.289-0.26,1.933c-1.71,1.672-3.906,1.643-6.051,1.652
			c-12.57,0.055-25.141,0.055-37.712,0c-2.145-0.009-4.341,0.02-6.051-1.652c0.019-13.289,0.037-26.578,0.056-39.868
			c3.942-2.378,7.923-2.129,11.926-0.189c1.667,2.774,0.111,5.486-0.246,8.204c-0.343,2.618-0.34,5.064,2.19,6.608
			c2.006,1.224,4.176,1.171,6.128-0.131c2.423-1.617,2.47-4.079,2.143-6.681c-0.338-2.697-2.172-5.378-0.206-8.15
			c2.372-1.621,5.096-1.394,7.693-1.247c6.712,0.378,13.535-1.223,20.144,1.081c1.062,0.927,1.299,2.203,1.492,3.498
			c0.268,9.514,0.228,19.031,0.038,28.549C318.444,447.715,318.713,449.987,317.167,451.893z"/>
		<path fill="#FEEBB2" d="M266.896,399.958c-2.394-1.193-4.238-2.838-3.758-5.792c0.427-2.623,2.212-4.048,4.825-4.256
			c2.265-0.18,2.719-2.282,3.903-3.54c3.636-3.863,7.763-5.613,12.96-3.673c1.862,0.695,3.196,0.361,4.95-0.814
			c5.081-3.406,10.466-2.521,14.737,2.107c1.272,1.378,2.196,2.308,4.458,2.047c5.284-0.609,8.489,3.484,11.258,6.866
			c2.371,2.897-0.164,5.507-3.124,7.055c-4.419-1.107-9.038-0.097-13.449-1.262c-2.442-3.431-4.922-6.644-9.983-4.53
			c-1.029,0.43-2.162-0.607-3.207-1.093c-6.451-3.001-9.14-2.317-13.505,3.438c-0.603,0.795-1.2,1.582-2.119,2.046
			C272.257,399.387,269.503,399.253,266.896,399.958z"/>
		<path fill="#FED44F" d="M302.925,397.755c3.471,0.045,6.942,0.082,10.413,0.139c1.608,0.026,3.468-0.369,3.766,2.063
			c0.021,3.315,0.041,6.63,0.062,9.945c0.942,1.43,1.059,2.795-0.319,4.042c-7.788-0.018-15.576-0.064-23.364-0.031
			c-1.583,0.007-3.371-0.549-4.6,1.085c-4.378-3.58-2.29-8.146-1.545-12.268c0.633-3.502,3.172-5.816,6.947-6.12
			C297.221,396.375,300.259,395.779,302.925,397.755z"/>
		<path fill="#BADDFA" d="M267.093,453.826c16.605,0,33.21-0.001,49.814-0.001c0.18,7.138-0.673,8.047-7.769,8.059
			c-11.426,0.02-22.852,0.02-34.277,0C267.766,461.872,266.913,460.963,267.093,453.826z"/>
		<path fill="#BBDDFA" d="M316.846,413.944c0.106-1.347,0.213-2.695,0.319-4.042c15.117-4.407,18.298-2.075,17.728,13.686
			c-0.22,6.084-1.015,12.192-2.091,18.191c-1.385,7.72-5.394,10.104-15.636,10.114c0-2.002,0-4.003,0-6.005
			c8.65-1.399,9.344-7.906,9.509-14.776c0.092-3.809,1.172-7.524,0.978-11.38c-0.162-3.212-1.369-4.569-4.705-3.72
			c-1.874,0.477-3.718,1.581-5.782,0.773C317.059,415.839,316.953,414.892,316.846,413.944z"/>
		<path fill="#FED44F" d="M266.896,399.958c1.81-4.191,5.601-1.057,8.228-2.226c6.71,2.181,9.044,12.421,3.921,17.202
			c-3.815-2.162-7.937-0.578-11.896-0.975C267.065,409.292,266.98,404.625,266.896,399.958z"/>
		<path fill="#FEFCEF" d="M279.045,414.933c2.613-8.119,1.555-12.757-3.922-17.201c4.045-8.345,8.307-9.767,16.627-5.302
			c1.311,0.704,2.183,0.836,3.595,0.372c5.008-1.645,6.629-0.503,7.579,4.953c-2.152,0.045-4.303,0.113-6.455,0.132
			c-5.763,0.051-8.277,2.216-8.506,7.883c-0.124,3.077-0.662,6.284,0.919,9.228c0.659,2.572,1.441,5.121,1.944,7.723
			c0.589,3.042-0.368,5.65-3.053,7.333c-2.453,1.538-5.088,1.545-7.531-0.022c-2.654-1.703-3.626-4.274-3.016-7.342
			C277.745,420.087,278.433,417.518,279.045,414.933z"/>
		<path fill="#FEFEFE" d="M317.166,416.786c3.412-1.554,7.301-4.286,10.579-2.025c2.974,2.051,1.209,6.511,1.09,9.852
			c-0.157,4.407-0.861,8.821-1.651,13.174c-1.437,7.924-1.772,8.097-10.017,8.101C317.166,436.188,317.166,426.487,317.166,416.786z
			"/>
		<path fill="#FEE6A4" d="M300.225,425.923c1.868,0.333,2.923,1.462,2.675,3.391c-0.214,1.669-1.37,2.643-3.083,2.501
			c-1.958-0.162-2.956-1.429-2.722-3.346C297.301,426.793,298.473,425.956,300.225,425.923z"/>
		<path fill="#FEDB77" d="M303.849,437.933c1.725,0.038,2.882,0.875,3.054,2.577c0.194,1.921-0.783,3.209-2.771,3.29
			c-1.963,0.08-3.082-1.042-3.054-3.019C301.104,439.047,302.161,438.137,303.849,437.933z"/>
		<path fill="#FEF3D5" d="M309.208,425.841c-1.467-0.255-2.16-0.891-2.065-2.068c0.092-1.145,0.822-1.813,1.979-1.73
			c1.147,0.082,1.785,0.819,1.738,1.978C310.81,425.24,309.889,425.588,309.208,425.841z"/>
	</g>
</g>
</svg>
