<?xml version="1.0" encoding="utf-8"?>
<!-- Generator: Adobe Illustrator 17.0.0, SVG Export Plug-In . SVG Version: 6.00 Build 0)  -->
<!DOCTYPE svg PUBLIC "-//W3C//DTD SVG 1.1//EN" "http://www.w3.org/Graphics/SVG/1.1/DTD/svg11.dtd">
<svg version="1.1" id="Layer_1" xmlns="http://www.w3.org/2000/svg" xmlns:xlink="http://www.w3.org/1999/xlink" x="0px" y="0px"
	 width="595.28px" height="841.89px" viewBox="0 0 595.28 841.89" enable-background="new 0 0 595.28 841.89" xml:space="preserve">
<g>
	<g>
		<path fill="#38BA2F" d="M175.24,362.21c0-0.24,0-0.48,0-0.72c0.254-0.424,0.046-0.897,0.139-1.34
			c0.05-0.137,0.132-0.248,0.249-0.337c0.135-0.069,0.273-0.124,0.417-0.167c0.63-0.175,1.273-0.122,1.911-0.122
			c80.105-0.004,160.209-0.004,240.314,0.005c0.785,0,1.607-0.164,2.343,0.286c0.194,0.154,0.274,0.359,0.264,0.601
			c0.004,0.509,0.001,1.019,0.002,1.529c0,0.563,0,1.126,0,1.689c0,0.492,0,0.983,0,1.475c0,0.57,0,1.141,0,1.711
			c0,0.948,0,1.897,0,2.845c0,1.194,0,2.387,0,3.581c-0.069,0.526,0.159,1.083-0.167,1.582c-0.305,0.315-0.7,0.355-1.106,0.371
			c-0.52,0.021-1.039,0.02-1.559,0.02c-79.938,0.001-159.876,0.001-239.814-0.011c-0.898,0-1.848,0.225-2.683-0.341
			c-0.336-0.413-0.134-0.903-0.191-1.356c0-1.278,0-2.557,0-3.836c0-1.179,0-2.358,0-3.537c0-0.777,0-1.555,0-2.333
			C175.304,363.276,175.482,362.727,175.24,362.21z"/>
		<path fill="#3BBF31" d="M252.76,298.13c30.24,0,60.48,0,90.72,0c1.597,0.264,3.206,0.05,4.808,0.12c1.25,0,2.499,0,3.749,0
			c0.577,0,1.154,0,1.73,0c0.704,0,1.409,0,2.113,0c0.413,0,0.826,0,1.239,0c0.405,0,0.811,0,1.216,0
			c4.024-0.005,8.062,0.003,12.055,0.414c7.077,0.729,14.024,2.139,20.483,5.309c3.227,1.584,6.288,3.455,9.102,5.701
			c0.512,0.409,1.315,0.801,0.782,1.736c-0.326,0.364-0.762,0.405-1.207,0.426c-0.559,0.026-1.119,0.023-1.679,0.024
			c-66.489,0.001-132.978,0.002-199.467-0.013c-0.97,0-2.009,0.271-2.895-0.406c-0.562-0.839,0.128-1.253,0.628-1.659
			c1.956-1.584,4.07-2.935,6.237-4.214c6.225-3.672,13.063-5.409,20.123-6.499c3.477-0.537,6.976-0.607,10.479-0.712
			c1.633-0.049,3.265-0.128,4.9-0.108c0.405,0,0.81,0,1.216,0c0.413,0,0.826,0,1.239,0c0.705,0,1.409,0,2.114,0
			c0.577,0,1.154,0,1.731,0c1.252,0,2.503,0,3.755,0C249.54,298.18,251.156,298.394,252.76,298.13z"/>
		<path fill="#32AE2A" d="M421,458.69c0,2.16,0,4.32,0,6.48c-0.368,0.836,0.182,1.789-0.336,2.606
			c-0.334,0.27-0.734,0.292-1.136,0.307c-0.48,0.018-0.959,0.017-1.439,0.017c-79.962,0.001-159.923,0.001-239.885-0.009
			c-0.864,0-1.765,0.188-2.583-0.286c-0.584-0.637-0.013-1.48-0.382-2.156c0-2.32,0-4.64,0-6.96c0.505-0.62,1.22-0.517,1.888-0.522
			c5.039-0.036,10.077-0.004,15.116-0.004c75.303-0.006,150.606-0.006,225.908,0.011C419.112,458.175,420.176,457.845,421,458.69z"
			/>
		<path fill="#37B82E" d="M175.483,374.691c81.758,0,163.517,0,245.275,0c0.324,0.693-0.078,1.467,0.242,2.16c0,1.12,0,2.24,0,3.36
			c-0.307,0.36-0.703,0.495-1.168,0.508c-0.6,0.016-1.199,0.022-1.798,0.022c-37.135,0.001-74.27-0.002-111.405,0.016
			c-0.904,0-1.82-0.262-2.717,0.049c-0.919,0.474-1.797-0.049-2.678-0.159c-2.542-0.317-4.68,0.446-6.547,2.15
			c-0.553,0.504-0.938,1.38-1.953,1.072c-15.234-0.016-30.465-0.004-45.696-0.006c-23.144-0.003-46.287,0.003-69.431-0.012
			c-0.811-0.001-1.706,0.23-2.367-0.519c0-2.24,0-4.48,0-6.72C175.566,376.001,175.153,375.299,175.483,374.691z"/>
		<path fill="#2FA827" d="M344.2,543.891c-30.72,0-61.44,0-92.16,0c-1.362-0.259-2.737-0.053-4.104-0.12c-1.242,0-2.484,0-3.725,0
			c-0.571,0-1.141,0-1.712,0c-0.552,0-1.105,0-1.657,0c-0.4,0-0.8,0-1.2,0c-0.505,0.062-1.031-0.134-1.521,0.12
			c-0.24,0-0.48,0-0.72,0c-0.15-0.122-0.332-0.167-0.514-0.214c-0.893-0.055-1.787-0.012-2.68-0.026
			c-0.663-0.005-1.326,0.011-1.989-0.011c-0.585-0.138-1.181-0.106-1.775-0.109c-0.457-0.001-0.915,0.002-1.372-0.002
			c-0.504,0.009-0.994-0.171-1.503-0.098c-0.319-0.015-0.64-0.015-0.956-0.069c-0.422-0.101-0.846-0.189-1.287-0.138
			c-8.224-0.81-16.125-2.711-23.306-6.989c-0.686-0.408-1.583-0.736-1.417-1.841c0.293-0.626,0.827-0.823,1.469-0.846
			c0.48-0.017,0.959-0.027,1.439-0.027c63.059-0.001,126.117-0.003,189.176,0.013c0.96,0,2.031-0.301,2.818,0.598
			c0.449,0.861-0.191,1.252-0.757,1.61c-3.111,1.969-6.409,3.555-9.929,4.642c-4.534,1.4-9.151,2.427-13.89,2.836
			c-0.436-0.036-0.864,0.026-1.286,0.138c-0.316,0.057-0.636,0.058-0.955,0.075c-0.506-0.069-0.998,0.09-1.5,0.096
			c-0.458,0.003-0.915,0.001-1.372,0.002c-0.595,0.005-1.193-0.034-1.78,0.108c-0.668,0.024-1.337,0.007-2.005,0.012
			c-0.907,0.016-1.815-0.034-2.721,0.03c-0.226,0.104-0.506,0.028-0.709,0.21c-0.24,0-0.48,0-0.72,0
			c-0.411-0.246-0.863-0.063-1.292-0.12c-0.393,0-0.786,0-1.179,0c-0.548,0-1.096,0-1.645,0c-0.57,0-1.139,0-1.709,0
			c-1.244,0-2.488,0-3.731,0C346.951,543.838,345.569,543.632,344.2,543.891z"/>
		<path fill="#33B12B" d="M421,435.89c0,4.56,0,9.12,0,13.68c-0.335,0.408-0.788,0.503-1.287,0.511
			c-0.639,0.01-1.279,0.014-1.918,0.014c-22.22,0-44.441,0-66.661,0c-13.864,0-27.728,0.008-41.593-0.019
			c-0.941-0.002-2.285,0.496-2.709-0.598c-0.357-0.92,0.911-1.45,1.515-2.083c2.123-2.227,4.371-4.331,6.484-6.566
			c0.394-0.719,1.127-1.207,1.391-2.019c0.955-1.393,2.245-2.471,3.448-3.628c0.421-0.405,0.942-0.604,1.537-0.315
			c0.466,0.362,1.002,0.476,1.577,0.483c0.64,0.008,1.28,0.01,1.919,0.01c31.23,0.001,62.46-0.003,93.69,0.013
			C419.277,435.374,420.258,435.09,421,435.89z"/>
		<path fill="#34B22C" d="M421,417.41c0,5.2,0,10.4,0,15.6c-0.506,0.623-1.221,0.513-1.888,0.516
			c-4.559,0.015-9.118,0.007-13.678,0.007c-7.879,0.001-15.757,0.001-23.636,0c-18.393,0-36.787,0-55.18-0.001
			c-0.56,0-1.12,0.007-1.679-0.039c-0.418-0.034-0.806-0.159-0.988-0.566c-0.189-0.42,0.039-0.749,0.295-1.085
			c2.545-3.333,5.514-6.268,8.517-9.178c1.107-1.072,2.213-2.227,2.229-3.95c0.036-0.741,0.231-1.453,0.405-2.17
			c0.333-0.777,0.799-1.163,1.651-0.626c0.492,0.31,1.073,0.245,1.626,0.247c2.657,0.011,5.315-0.001,7.972,0.008
			c0.553,0.002,1.113-0.05,1.649,0.136c0.128,0.027,0.254,0.066,0.376,0.115c0.548,0.327,0.61,0.918,0.707,1.45
			c0.685,3.762,2.853,6.385,6.175,8.139c0.351,0.186,0.705,0.368,1.015,0.621c0.385,0.466,0.806,0.852,1.485,0.664
			c0.264-0.089,0.528-0.109,0.793-0.004c0.328,0.247,0.665,0.463,1.108,0.326c0.378-0.01,0.755-0.013,1.133,0.003
			c0.447,0.152,0.83-0.055,1.221-0.222c5.027-1.007,8.014-4.109,9.268-9.002c0.133-0.52,0.097-1.153,0.784-1.367
			c0.584-0.201,1.189-0.146,1.785-0.146c14.87-0.008,29.74-0.009,44.61,0.005C419.528,416.891,420.379,416.691,421,417.41z"/>
		<path fill="#37B82E" d="M303.641,380.659c-0.063-0.22-0.035-0.415,0.233-0.432c0.398-0.025,0.799-0.017,1.198-0.017
			c38.643-0.001,77.286,0,115.929,0c0,3.68,0,7.36,0,11.04c-0.309,0.362-0.705,0.493-1.174,0.481
			c-0.479-0.013-0.96-0.001-1.44-0.001c-33.272,0-66.544,0.001-99.816-0.003c-0.801,0-1.599,0.017-2.388,0.138
			c-0.926,0.29-1.498-0.297-2.068-0.862c-2.402-2.383-4.788-4.781-7.181-7.173c-0.816-0.816-1.613-1.651-2.609-2.262
			C303.991,381.362,303.647,381.128,303.641,380.659z"/>
		<path fill="#34B22C" d="M175.24,433.25c0-3.12,0-6.24,0-9.36c0.335-0.408,0.789-0.504,1.288-0.513
			c0.6-0.011,1.199-0.016,1.799-0.016c13.596-0.001,27.192,0.002,40.787-0.002c2.599-0.001,5.198,0.04,7.793-0.054
			c0.693-0.004,1.196,0.425,1.655,0.842c2.222,2.018,4.815,2.981,7.813,2.861c0.237-0.01,0.475,0.013,0.709,0.061
			c0.492,0.086,0.972,0.329,1.486,0.098c4.23-0.83,6.768-3.556,8.307-7.405c0.155-0.389,0.088-0.779,0.034-1.172
			c0.007-0.283,0.072-0.542,0.312-0.724c0.372-0.064,0.509-0.516,0.903-0.558c3.39,0.119,6.778,0.079,10.165,0.039
			c1.256-0.015,2.187,0.247,2.58,1.542c0.259,0.185,0.514,0.387,0.662,0.671c1.493,2.872,4.07,4.086,7.082,4.643
			c0.816,0.24,1.646,0.293,2.491,0.292c10.985-0.009,21.969-0.006,32.954-0.004c0.599,0,1.198-0.028,1.793,0.037
			c0.512,0.116,0.622,0.434,0.435,0.892c-0.122,0.3-0.326,0.548-0.551,0.775c-2.326,2.35-4.66,4.693-7.018,7.012
			c-0.489,0.481-1.023,0.932-1.797,0.548c-1.281,0.03-2.559,0.025-3.838,0.025c-38.373-0.001-76.746,0.002-115.119-0.015
			C177.045,433.766,176.023,434.073,175.24,433.25z"/>
		<path fill="#36B62D" d="M175.24,400.85c0-2.8,0-5.6,0-8.4c0.335-0.408,0.789-0.503,1.288-0.514
			c0.719-0.016,1.439-0.016,2.158-0.016c37.092-0.001,74.185,0,111.278,0c0.639,0,1.279-0.017,1.913,0.065
			c0.529-0.106,0.948,0.1,1.244,0.521c1.644,2.336,3.884,4.107,5.811,6.175c0.353,0.379,0.734,0.737,0.918,1.24
			c0.174,0.473,0.087,0.861-0.382,1.121c-0.863,0.45-1.799,0.331-2.711,0.332c-11.48,0.012-22.96,0.007-34.44,0.007
			c-28.156,0-56.312,0.003-84.469-0.013C176.964,401.366,175.983,401.65,175.24,400.85z"/>
		<path fill="#33B02B" d="M315.4,440.69c-2.523,2.563-5.048,5.123-7.564,7.692c-0.299,0.305-0.695,0.539-0.889,1.188
			c38.066,0,76.06,0,114.053,0c0,1.36,0,2.72,0,4.08c-0.335,0.408-0.79,0.504-1.289,0.514c-0.56,0.011-1.12,0.016-1.679,0.016
			c-79.941,0-159.883,0.002-239.824-0.015c-0.999,0-2.101,0.345-2.968-0.515c0-1.2,0-2.4,0-3.6c0.307-0.36,0.703-0.498,1.168-0.507
			c0.479-0.01,0.959-0.022,1.438-0.022c38.724,0.006,77.448-0.014,116.171,0.009c0.079,0,0.159-0.016,0.234-0.028
			c0.627-0.149,1.15,0.08,1.69,0.394c3.909,2.279,7.892,1.547,10.869-1.823c2.221-2.513,4.704-4.782,7.075-7.155
			c0.311-0.311,0.655-0.594,1.139-0.589C315.231,440.365,315.335,440.508,315.4,440.69z"/>
		<path fill="#33B02B" d="M294.844,449.771c-0.767,0.277-1.562,0.283-2.366,0.283c-39.079-0.005-78.159-0.004-117.238-0.004
			c0-2.64,0-5.28,0-7.92c0.335-0.408,0.789-0.504,1.287-0.514c0.599-0.011,1.199-0.016,1.798-0.016c36.725,0,73.449,0.001,110.174,0
			c0.32,0,0.639-0.001,0.959,0.002c2.265,0.016,2.265,0.016,2.831,2.17c0.226,1.594,0.795,3.043,1.759,4.35
			C294.408,448.609,294.984,449.03,294.844,449.771z"/>
		<path fill="#37B72E" d="M175.24,383.33c22.502,0,45.004,0,67.506,0c16.264,0,32.528-0.003,48.792,0.013
			c0.539,0.001,1.246-0.312,1.553,0.498c0.29,0.527,0.02,0.992-0.187,1.448c-0.326,0.721-0.53,1.471-0.609,2.257
			c-0.364,0.898-0.152,1.789,0.033,2.682c0.011,0.479-0.084,0.918-0.468,1.248c-0.493,0.357-1.07,0.284-1.622,0.292
			c-1.679,0.026-3.358,0.011-5.038,0.011c-35.745,0-71.489,0.003-107.234-0.014c-0.922,0-1.944,0.306-2.727-0.516
			C175.24,388.61,175.24,385.97,175.24,383.33z"/>
		<path fill="#36B62D" d="M348.52,416.69c-3.475,0-6.95-0.009-10.425,0.007c-0.739,0.003-1.44-0.001-1.847-0.898
			c-0.18,0.399-0.29,0.645-0.401,0.891c-0.524-0.266-0.493-0.773-0.53-1.243c-0.167-2.154-1.007-3.991-2.541-5.521
			c-2.994-2.987-5.992-5.968-8.962-8.979c-0.537-0.544-1.281-1.079-0.713-2.043c0.315-0.366,0.735-0.455,1.188-0.474
			c0.359-0.015,0.719-0.027,1.078-0.027c20.34,0.016,40.68-0.007,61.02,0.015c10.789,0.012,21.579-0.003,32.368-0.007
			c0.774,0,1.625-0.2,2.246,0.519c0,2.96,0,5.92,0,8.88c-0.335,0.408-0.788,0.504-1.287,0.513c-0.639,0.012-1.278,0.015-1.918,0.015
			c-15.063,0.001-30.126,0-45.189,0.001c-0.999,0-1.998-0.014-2.99,0.092c-0.683,0.208-1.143-0.209-1.587-0.606
			c-1.642-1.465-3.541-2.421-5.674-2.927c-0.379-0.138-0.765-0.234-1.175-0.176c-4.979-0.1-8.773,1.851-11.087,6.38
			c-0.609,1.192-0.82,2.48-0.919,3.797C348.989,415.509,348.977,416.181,348.52,416.69z"/>
		<path fill="#35B52D" d="M175.24,400.85c27.419,0,54.838,0,82.257,0c12.427,0,24.855,0.001,37.282-0.001
			c1.715,0,3.435,0.098,5.129-0.282c0.601-0.091,0.952,0.324,1.319,0.676c1.547,1.484,2.865,3.185,4.403,4.681
			c0.365,0.355,0.865,0.829,0.203,1.4c-0.585,0.205-1.189,0.121-1.784,0.121c-10.977,0.006-21.954,0.008-32.93-0.003
			c-1.044-0.001-2.072,0.054-3.081,0.325c-1.112,0.084-2.138,0.423-3.092,1.01c-0.5,0.308-1.021,0.611-1.654,0.371
			c-2.947-0.212-5.896-0.085-8.843-0.082c-2.869,0.002-5.741-0.145-8.605,0.103c-0.75,0.148-1.156-0.352-1.598-0.826
			c-3.882-4.164-10.242-4.821-14.915-1.562c-0.695,0.484-1.225,1.135-1.844,1.695c-0.443,0.401-0.856,0.851-1.528,0.835
			c-16.119-0.028-32.235,0.002-48.351-0.022c-0.811-0.001-1.706,0.23-2.368-0.518C175.24,406.13,175.24,403.49,175.24,400.85z"/>
		<path fill="#32AF2A" d="M421,458.69c-81.92,0-163.84,0-245.76,0c0-1.12,0-2.24,0-3.36c0.335-0.409,0.79-0.504,1.289-0.514
			c0.64-0.013,1.28-0.016,1.919-0.016c54.388,0.002,108.775-0.002,163.163,0c25.594,0.001,51.188-0.004,76.782,0.013
			c0.885,0.001,1.865-0.283,2.608,0.517C421,456.45,421,457.57,421,458.69z"/>
		<path fill="#35B42C" d="M175.24,408.77c16.334,0,32.668,0.001,49.002-0.005c0.723,0,1.435,0.029,2.129,0.245
			c0.251,0.507-0.019,0.936-0.243,1.345c-0.757,1.384-1.171,2.861-1.268,4.432c-0.233,0.69-0.28,1.379,0.001,2.07
			c0.321,2.027,0.889,3.955,2.138,5.634c0.243,0.327,0.606,0.682,0.247,1.161c-0.936,0.248-1.892,0.242-2.851,0.242
			c-16.385-0.005-32.77-0.004-49.155-0.004C175.24,418.85,175.24,413.81,175.24,408.77z"/>
		<path fill="#FEFEFE" d="M358.6,543.891c0.041-0.301,0.31-0.21,0.484-0.282c0.984-0.229,2,0.084,2.981-0.176
			c0.686-0.022,1.373-0.044,2.059-0.067c0.572-0.2,1.19,0.061,1.759-0.172c0.453-0.021,0.907-0.042,1.36-0.063
			c0.488-0.201,1.029,0.049,1.514-0.177c0.295-0.019,0.59-0.038,0.886-0.057c0.409-0.195,0.876,0.025,1.283-0.18
			c5.429-0.507,10.729-1.598,15.829-3.558c3.119-1.199,6.123-2.629,8.833-4.615c0.061-0.445,0.395-0.683,0.722-0.908
			c5.554-3.818,10.251-8.501,14.136-14.004c2.394-3.706,4.401-7.606,5.94-11.745c0.085-0.228,0.153-0.45,0.173-0.691
			c0.948-3.314,1.64-6.684,2.291-10.065c0.482-1.519,0.435-3.113,0.671-4.667c0.059-0.388-0.005-0.793,0.146-1.172
			c0.098-1.678,0.297-3.347,0.409-5.024c0.081-1.582-0.058-3.189,0.521-4.716c0.12-0.116,0.254-0.136,0.403-0.061
			c0,20.48-0.006,40.96,0.023,61.44c0.001,0.822-0.161,0.984-0.983,0.983C399.56,543.884,379.08,543.891,358.6,543.891z"/>
		<path fill="#FEFEFE" d="M400.836,311.092c-5.584-4.701-11.889-8.004-18.963-9.843c-7.277-1.892-14.71-2.55-22.188-2.865
			c-0.439-0.018-0.878-0.039-1.317-0.058c-0.17-0.059-0.172-0.124-0.007-0.196c20.56,0,41.12,0.006,61.68-0.023
			c0.822-0.001,0.984,0.161,0.983,0.983c-0.029,20.48-0.023,40.96-0.023,61.44c-0.073,0.164-0.14,0.161-0.2-0.008
			c-0.027-0.157-0.055-0.315-0.082-0.472c-0.81-0.922-0.33-2.087-0.588-3.112c-0.213-3.553-0.599-7.091-0.943-10.632
			c-0.518-3.114-1.071-6.222-1.939-9.263c0.001-0.123-0.002-0.248-0.013-0.372c-1.441-4.387-3.263-8.601-5.712-12.53
			c-0.293-0.47-0.594-0.941-0.784-1.468c-1.375-2.188-2.963-4.217-4.741-6.082c-1.477-1.551-2.959-3.106-4.591-4.503
			C401.1,311.825,400.825,311.539,400.836,311.092z"/>
		<path fill="#FEFEFE" d="M237.873,298.326c-6.473,0.27-12.919,0.745-19.305,1.947c-8.414,1.584-15.971,4.979-22.651,10.329
			c-0.184,0.147-0.341,0.326-0.511,0.49c-0.005,0.603-0.47,0.877-0.851,1.225c-3.364,3.07-6.413,6.422-9.035,10.153
			c-0.045,0.064-0.065,0.145-0.09,0.222c-2.79,4.356-5.04,8.961-6.453,13.954c-0.014,0.126-0.03,0.25-0.045,0.375
			c-0.767,3.058-1.344,6.153-1.875,9.258c-0.329,3.509-0.753,7.009-0.92,10.53c-0.009,0.14-0.011,0.281-0.001,0.422
			c-0.256,0.928-0.12,1.942-0.612,2.818c-0.026,0.078-0.051,0.156-0.077,0.234c-0.064,0.166-0.133,0.168-0.205,0.005
			c0-20.4,0.006-40.8-0.023-61.2c-0.001-0.822,0.161-0.984,0.983-0.983c20.56,0.029,41.12,0.023,61.68,0.023
			C238.045,298.202,238.043,298.267,237.873,298.326z"/>
		<path fill="#FEFEFE" d="M232.115,543.366c0.686,0.022,1.372,0.044,2.058,0.066c0.982,0.261,1.998-0.052,2.982,0.177
			c0.081,0.094,0.163,0.188,0.245,0.282c-20.38,0-40.761-0.007-61.141,0.024c-0.865,0.001-1.044-0.178-1.042-1.043
			c0.03-20.46,0.023-40.921,0.023-61.381c0.129-0.08,0.252-0.071,0.368,0.027c0.147,0.153,0.221,0.335,0.224,0.546
			c-0.049,0.932,0.076,1.845,0.336,2.74c0.067,0.469,0.043,0.936-0.017,1.403c0.002,0.197,0.055,0.39,0.059,0.588
			c-0.123,0.647,0.021,1.268,0.192,1.887c0.062,0.453,0.058,0.91,0.088,1.365c-0.006,0.435-0.103,0.875,0.073,1.301
			c0.155,0.366,0.134,0.756,0.164,1.14c-0.029,0.443,0.058,0.873,0.164,1.301c0.008,0.914,0.241,1.808,0.25,2.722
			c0.572,2.643,0.953,5.327,1.683,7.938c0.247,0.882,0.539,1.752,0.715,2.652c1.067,3.565,2.681,6.883,4.579,10.068
			c0.548,0.92,1.101,1.84,1.69,2.736c3.853,5.463,8.52,10.1,14.065,13.845c0.37,0.25,0.694,0.537,0.81,0.994
			c3.308,2.316,6.929,4.022,10.767,5.206c4.517,1.394,9.118,2.462,13.862,2.765c0.407,0.205,0.874-0.015,1.283,0.18
			c0.295,0.019,0.59,0.038,0.885,0.057c0.485,0.226,1.026-0.023,1.514,0.178c0.453,0.021,0.907,0.042,1.36,0.063
			C230.925,543.426,231.543,543.166,232.115,543.366z"/>
		<path fill="#34B22C" d="M175.24,433.25c40.087,0,80.175-0.001,120.262,0.009c0.648,0,1.383-0.245,1.897,0.421
			c0.048,0.589-0.343,0.949-0.701,1.32c-1.186,1.226-2.477,2.353-3.417,3.804c-0.314,0.485-0.779,0.793-1.403,0.767
			c-1.042-0.045-2.081-0.031-3.12-0.031c-36.931-0.001-73.862,0.002-110.793-0.015c-0.922,0-1.943,0.307-2.726-0.516
			C175.24,437.09,175.24,435.17,175.24,433.25z"/>
		<path fill="#36B62E" d="M421,398.93c-10.669,0-21.337,0-32.006,0c-21.374,0-42.748-0.002-64.122,0.008
			c-0.611,0-1.303-0.22-1.78,0.412c-0.513,0.361-0.846-0.042-1.106-0.343c-1.515-1.752-3.256-3.282-4.833-4.97
			c-0.481-0.514-1.075-1.047-0.481-1.865c0.332-0.341,0.747-0.443,1.204-0.44c0.32,0.002,0.64-0.003,0.96-0.003
			c33.384,0,66.767-0.001,100.151,0.006c0.698,0,1.464-0.196,2.013,0.474C421,394.45,421,396.69,421,398.93z"/>
		<path fill="#35B42D" d="M369.151,408.318c0.549-0.647,1.303-0.505,2.009-0.505c16.614-0.004,33.227-0.003,49.841-0.003
			c0,3.2,0,6.4,0,9.6c-16.32,0-32.64,0-48.96-0.001c-0.273-0.079-0.443-0.269-0.566-0.513c-0.281-0.729-0.103-1.5-0.194-2.246
			c-0.208-1.718-0.688-3.343-1.634-4.816C369.356,409.382,368.924,408.951,369.151,408.318z"/>
		<path fill="#32AF2A" d="M421,455.33c-81.92,0-163.84,0-245.76,0c0-0.56,0-1.12,0-1.68c81.92,0,163.84,0,245.76,0
			C421,454.21,421,454.77,421,455.33z"/>
		<path fill="#33B12B" d="M175.24,439.01c38.387,0,76.774,0,115.161,0.002c0.675,0,1.366-0.092,1.999,0.251
			c0.455,0.882,0.084,4.238-0.556,5.027c-0.039-0.07-0.099-0.135-0.113-0.209c-0.384-1.951-0.383-1.951-2.492-1.951
			c-17.143,0-34.286,0-51.429,0c-20.856,0-41.713,0-62.569,0C175.24,441.09,175.24,440.05,175.24,439.01z"/>
		<path fill="#34B22C" d="M335.515,418.519c0.082,1.694-1.017,2.812-2.019,3.926c-1.148,1.276-2.344,2.528-3.647,3.642
			c-2.104,1.798-3.54,4.156-5.39,6.161c-0.124,0.134-0.267,0.36-0.235,0.506c0.063,0.285,0.369,0.244,0.602,0.252
			c0.319,0.011,0.64,0.005,0.959,0.005c16.75,0,33.5,0,50.251,0c14.988,0,29.976,0,44.965,0c0,0.96,0,1.92,0,2.88
			c-32.767,0-65.534-0.002-98.301,0.012c-0.885,0-1.681-0.01-2.059-0.987c-0.177-0.78,0.434-1.157,0.863-1.592
			c2.472-2.503,4.979-4.971,7.452-7.474c2.129-2.155,4.416-4.178,5.891-6.895C334.981,418.705,335.192,418.511,335.515,418.519z"/>
		<path fill="#37B72E" d="M175.24,391.25c38.252,0,76.504,0,114.756,0c0.64,0,1.279-0.007,1.919-0.01
			c0.605,0.071,0.645,0.463,0.535,0.941c-0.671,0.358-1.401,0.268-2.116,0.268c-38.364,0.002-76.729,0.002-115.093,0.002
			C175.24,392.05,175.24,391.65,175.24,391.25z"/>
		<path fill="#36B72E" d="M421,392.21c-34.106,0-68.212-0.001-102.318,0.005c-0.74,0-1.547-0.18-2.108,0.545
			c-0.68,0.035-1.007-0.279-0.957-0.966c0.454-0.599,1.112-0.543,1.752-0.544c4.158,0,8.316,0,12.474,0c30.386,0,60.772,0,91.158,0
			C421,391.57,421,391.89,421,392.21z"/>
		<path fill="#4EC546" d="M252.76,298.13c-1.583,0.496-3.208,0.133-4.811,0.23c-0.151-0.084-0.147-0.16,0.011-0.23
			C249.56,298.13,251.16,298.13,252.76,298.13z"/>
		<path fill="#4EC546" d="M348.291,298.36c-1.603-0.097-3.227,0.266-4.811-0.23c1.6,0,3.2,0,4.8,0
			C348.438,298.2,348.441,298.276,348.291,298.36z"/>
		<path fill="#42B03C" d="M344.2,543.891c1.342-0.503,2.732-0.139,4.097-0.223c0.146,0.086,0.14,0.16-0.017,0.223
			C346.92,543.891,345.56,543.891,344.2,543.891z"/>
		<path fill="#43B03D" d="M247.943,543.668c1.365,0.082,2.755-0.28,4.097,0.222c-1.36,0-2.72,0-4.08,0
			C247.803,543.828,247.798,543.754,247.943,543.668z"/>
		<path fill="#5DBB58" d="M348.28,543.891c0.003-0.075,0.008-0.149,0.017-0.223c1.279,0.003,2.559,0.006,3.838,0.01
			c0.093,0.054,0.121,0.104,0.086,0.149c-0.033,0.043-0.067,0.065-0.101,0.065C350.84,543.891,349.56,543.891,348.28,543.891z"/>
		<path fill="#5DBB58" d="M247.943,543.668c0.008,0.074,0.014,0.148,0.017,0.222c-1.28,0-2.56,0-3.84,0
			c-0.098-0.039-0.132-0.083-0.105-0.132c0.029-0.051,0.058-0.077,0.088-0.077C245.383,543.677,246.663,543.672,247.943,543.668z"/>
		<path fill="#68CE61" d="M247.96,298.13c0,0.077-0.003,0.154-0.01,0.23c-1.281-0.004-2.561-0.008-3.841-0.012
			c-0.151-0.081-0.147-0.154,0.012-0.218C245.4,298.13,246.68,298.13,247.96,298.13z"/>
		<path fill="#68CE61" d="M348.291,298.36c-0.007-0.077-0.01-0.153-0.01-0.23c1.28,0,2.56,0,3.84,0
			c0.159,0.064,0.163,0.137,0.012,0.218C350.852,298.352,349.571,298.356,348.291,298.36z"/>
		<path fill="#55C34D" d="M175.455,369.632c0.007,1.282,0.013,2.564,0.02,3.846c-0.07,0.168-0.149,0.172-0.235,0.011
			c0-1.28,0-2.56,0-3.84C175.301,369.518,175.372,369.505,175.455,369.632z"/>
		<path fill="#4FB949" d="M421,468.77c0,1.2,0,2.4,0,3.6c-0.152,0.074-0.287,0.05-0.406-0.07c-0.526-1.153-0.526-2.307-0.002-3.462
			C420.711,468.719,420.848,468.696,421,468.77z"/>
		<path fill="#50B949" d="M175.24,472.37c0-1.2,0-2.4,0-3.6c0.152-0.074,0.287-0.05,0.406,0.07c0.526,1.153,0.526,2.307,0.002,3.462
			C175.529,472.422,175.393,472.444,175.24,472.37z"/>
		<path fill="#3EB336" d="M421,468.77c-0.078,0.002-0.156,0.004-0.234,0.006c-0.42-0.399-0.345-0.802-0.008-1.206
			c0.103-0.798-0.227-1.639,0.243-2.4C421,466.37,421,467.57,421,468.77z"/>
		<path fill="#6ECC67" d="M175.455,369.632c-0.072,0.006-0.143,0.012-0.215,0.018c0-1.2,0-2.4,0-3.6
			c0.054-0.132,0.123-0.134,0.204-0.022C175.447,367.23,175.451,368.431,175.455,369.632z"/>
		<path fill="#54C34D" d="M420.765,373.244c0.004-1.202,0.008-2.404,0.012-3.606c0.083-0.15,0.157-0.146,0.223,0.012
			c0,1.2,0,2.4,0,3.6C420.918,373.409,420.84,373.407,420.765,373.244z"/>
		<path fill="#43BD3B" d="M420.765,373.244c0.078,0.003,0.157,0.005,0.235,0.006c0,1.2,0,2.4,0,3.6
			c-0.453-0.678-0.15-1.441-0.242-2.16C420.761,374.208,420.763,373.726,420.765,373.244z"/>
		<path fill="#3EB337" d="M175.472,468.779c-0.077-0.002-0.155-0.005-0.232-0.008c0-1.04,0-2.08,0-3.12
			c0.434,0.595,0.162,1.28,0.243,1.92C175.82,467.976,175.895,468.38,175.472,468.779z"/>
		<path fill="#39BC30" d="M175.24,373.49c0.078-0.002,0.157-0.006,0.235-0.011c0.002,0.404,0.005,0.808,0.007,1.212
			c-0.08,0.64,0.19,1.324-0.243,1.919C175.24,375.57,175.24,374.53,175.24,373.49z"/>
		<path fill="#65C25F" d="M420.778,472.382c0.074-0.003,0.148-0.007,0.222-0.012c0,0.96,0,1.92,0,2.88
			c-0.143,0.076-0.274,0.058-0.392-0.053c-0.499-0.569-0.321-1.227-0.248-1.872C420.369,472.953,420.402,472.592,420.778,472.382z"
			/>
		<path fill="#65C25F" d="M175.24,472.37c0.073,0.006,0.146,0.01,0.22,0.013c0.376,0.208,0.407,0.569,0.418,0.94
			c0.073,0.645,0.254,1.304-0.243,1.875c-0.119,0.111-0.251,0.129-0.395,0.053C175.24,474.29,175.24,473.33,175.24,472.37z"/>
		<path fill="#6ACB64" d="M421,369.65c-0.074-0.002-0.149-0.006-0.223-0.012c0.005-0.961,0.01-1.922,0.014-2.883
			c0.079-0.125,0.148-0.12,0.209,0.015C421,367.73,421,368.69,421,369.65z"/>
		<path fill="#94DA8F" d="M175.444,366.028c-0.068,0.002-0.136,0.01-0.204,0.022c0-0.8,0-1.6,0-2.4
			c0.061-0.136,0.129-0.14,0.205-0.012C175.444,364.435,175.444,365.232,175.444,366.028z"/>
		<path fill="#A1E09C" d="M242.425,298.331c-0.718,0.002-1.437,0.004-2.155,0.006c-0.095-0.051-0.125-0.098-0.091-0.143
			c0.033-0.042,0.067-0.064,0.101-0.064c0.72,0,1.44,0,2.16,0C242.603,298.21,242.598,298.277,242.425,298.331z"/>
		<path fill="#A1E09C" d="M355.971,298.335c-0.719-0.001-1.437-0.003-2.156-0.004c-0.173-0.054-0.178-0.121-0.015-0.201
			c0.72,0,1.44,0,2.16,0c0.099,0.04,0.134,0.084,0.104,0.131C356.034,298.31,356.003,298.335,355.971,298.335z"/>
		<path fill="#94D290" d="M353.814,543.69c0.559,0,1.119,0,1.678,0.001c0.094,0.05,0.123,0.096,0.089,0.139
			c-0.033,0.041-0.066,0.061-0.1,0.061c-0.56,0-1.12,0-1.68,0C353.637,543.813,353.642,543.746,353.814,543.69z"/>
		<path fill="#7AC775" d="M353.814,543.69c-0.006,0.067-0.011,0.134-0.013,0.201c-0.56,0-1.12,0-1.68,0
			c0.001-0.072,0.005-0.143,0.014-0.214C352.694,543.681,353.254,543.686,353.814,543.69z"/>
		<path fill="#82D67D" d="M353.8,298.13c0.003,0.067,0.008,0.134,0.015,0.201c-0.561,0.006-1.122,0.012-1.684,0.017
			c-0.008-0.073-0.012-0.146-0.012-0.219C352.68,298.13,353.24,298.13,353.8,298.13z"/>
		<path fill="#82D67D" d="M242.425,298.331c0.007-0.067,0.012-0.134,0.015-0.201c0.56,0,1.12,0,1.68,0
			c0,0.073-0.004,0.146-0.012,0.219C243.547,298.343,242.986,298.337,242.425,298.331z"/>
		<path fill="#7AC775" d="M244.104,543.681c0.009,0.07,0.014,0.14,0.017,0.21c-0.56,0-1.12,0-1.68,0
			c-0.097-0.038-0.131-0.08-0.103-0.126c0.029-0.048,0.059-0.072,0.09-0.072C242.986,543.688,243.545,543.685,244.104,543.681z"/>
		<path fill="#94D290" d="M242.427,543.692c0.005,0.066,0.009,0.132,0.013,0.198c-0.56,0-1.12,0-1.68,0
			c-0.099-0.04-0.134-0.083-0.104-0.13c0.031-0.048,0.062-0.072,0.093-0.072C241.309,543.69,241.868,543.691,242.427,543.692z"/>
		<path fill="#84D47E" d="M421,366.77c-0.07-0.006-0.139-0.011-0.209-0.015c0.002-0.559,0.003-1.117,0.005-1.676
			c0.075-0.134,0.143-0.123,0.204,0.011C421,365.65,421,366.21,421,366.77z"/>
		<path fill="#7FCC7A" d="M175.24,475.25c0.07,0.008,0.141,0.013,0.212,0.013c0.538,0.351,0.51,0.85,0.361,1.381
			c-0.052,0.119-0.128,0.22-0.226,0.305c-0.12,0.075-0.236,0.069-0.347-0.019C175.24,476.37,175.24,475.81,175.24,475.25z"/>
		<path fill="#7FCC7B" d="M420.788,475.263c0.071-0.001,0.142-0.005,0.212-0.013c0,0.56,0,1.12,0,1.68
			c-0.063,0.024-0.127,0.048-0.191,0.072c-0.131-0.053-0.233-0.14-0.309-0.26C420.249,476.182,420.225,475.665,420.788,475.263z"/>
		<path fill="#B5E1B3" d="M175.24,480.05c0-0.56,0-1.12,0-1.68c0.139-0.078,0.267-0.061,0.383,0.048
			c0.396,0.528,0.396,1.056,0.002,1.584C175.509,480.112,175.38,480.128,175.24,480.05z"/>
		<path fill="#B7E6B4" d="M420.804,363.637c-0.001-0.56-0.001-1.12-0.002-1.68c0.075-0.13,0.141-0.119,0.199,0.013
			c0,0.56,0,1.12,0,1.68C420.924,363.814,420.859,363.81,420.804,363.637z"/>
		<path fill="#B5E1B2" d="M421,478.37c0,0.56,0,1.12,0,1.68c-0.139,0.078-0.267,0.061-0.383-0.048
			c-0.396-0.528-0.396-1.056-0.002-1.584C420.732,478.309,420.86,478.293,421,478.37z"/>
		<path fill="#97D593" d="M421,478.37l-0.098,0.014l-0.099-0.003c-0.529-0.485-0.533-0.972-0.005-1.46
			c0.067,0.009,0.134,0.012,0.202,0.008C421,477.41,421,477.89,421,478.37z"/>
		<path fill="#B4E5B0" d="M175.445,363.638c-0.069-0.002-0.137,0.002-0.205,0.012c0-0.48,0-0.96,0-1.44
			C175.706,362.629,175.403,363.158,175.445,363.638z"/>
		<path fill="#97D593" d="M175.436,478.382l-0.099,0.003l-0.098-0.015c0-0.48,0-0.96,0-1.44c0.068,0.003,0.135,0,0.202-0.008
			C175.969,477.411,175.965,477.898,175.436,478.382z"/>
		<path fill="#DFF2DE" d="M175.24,480.05c0.065,0.022,0.131,0.026,0.199,0.012c0.521,0.478,0.521,0.956,0.002,1.435l-0.101,0.006
			l-0.1-0.013C175.24,481.01,175.24,480.53,175.24,480.05z"/>
		<path fill="#9BDC96" d="M420.804,363.637c0.066-0.006,0.132-0.001,0.196,0.013c0,0.48,0,0.96,0,1.44
			c-0.068-0.007-0.136-0.01-0.204-0.011C420.799,364.599,420.802,364.118,420.804,363.637z"/>
		<path fill="#DFF2DE" d="M420.802,480.063c0.067,0.013,0.134,0.009,0.199-0.012c0,0.48,0,0.96,0,1.44l-0.1,0.014l-0.101-0.007
			C420.281,481.019,420.281,480.541,420.802,480.063z"/>
		<path fill="#E0F4DF" d="M421,361.97l-0.099-0.018l-0.1,0.005c-0.001-0.478-0.001-0.956-0.002-1.435
			c0.067-0.01,0.134-0.007,0.2,0.008C421,361.01,421,361.49,421,361.97z"/>
		<path fill="#CEEBCD" d="M238.12,543.891c0.419-0.482,0.95-0.159,1.431-0.2c0.17,0.059,0.173,0.126,0.009,0.2
			C239.08,543.891,238.6,543.891,238.12,543.891z"/>
		<path fill="#E3F5E2" d="M237.873,298.326c0-0.065,0.002-0.13,0.007-0.195c0.4,0,0.8,0,1.2,0c0.164,0.075,0.161,0.141-0.01,0.198
			C238.671,298.327,238.272,298.326,237.873,298.326z"/>
		<path fill="#C2EBBF" d="M239.07,298.328c0.005-0.066,0.009-0.132,0.01-0.198c0.4,0,0.8,0,1.2,0
			c0.002,0.069-0.002,0.138-0.011,0.207C239.87,298.334,239.47,298.331,239.07,298.328z"/>
		<path fill="#B1DEAE" d="M355.48,543.891c0.003-0.067,0.007-0.133,0.011-0.2c0.399,0,0.799,0,1.198,0
			c0.096,0.049,0.126,0.095,0.092,0.138c-0.033,0.041-0.066,0.062-0.101,0.062C356.28,543.891,355.88,543.891,355.48,543.891z"/>
		<path fill="#CEEBCD" d="M356.68,543.891c0.002-0.067,0.005-0.133,0.009-0.2c0.4,0.047,0.862-0.27,1.191,0.2
			C357.48,543.891,357.08,543.891,356.68,543.891z"/>
		<path fill="#B1DEAE" d="M239.56,543.891c-0.001-0.067-0.004-0.134-0.009-0.2c0.4-0.001,0.799-0.001,1.199-0.002
			c0.007,0.067,0.01,0.135,0.011,0.202C240.36,543.891,239.96,543.891,239.56,543.891z"/>
		<path fill="#C2EBBF" d="M355.971,298.335c-0.007-0.068-0.01-0.136-0.011-0.205c0.4,0,0.8,0,1.2,0
			c0.099,0.039,0.133,0.082,0.104,0.127c-0.031,0.047-0.062,0.071-0.094,0.071C356.771,298.33,356.371,298.333,355.971,298.335z"/>
		<path fill="#E3F5E2" d="M357.17,298.328c-0.005-0.066-0.009-0.132-0.01-0.198c0.4,0,0.8,0,1.2,0
			c0.002,0.065,0.005,0.13,0.007,0.196C357.969,298.326,357.569,298.327,357.17,298.328z"/>
		<path fill="#E7F6E6" d="M175.24,360.29c0.068-0.007,0.137-0.009,0.205-0.005c-0.021,0.41,0.233,0.866-0.205,1.205
			C175.24,361.09,175.24,360.69,175.24,360.29z"/>
		<path fill="#38BA2F" d="M175.698,357.081c-0.056-0.052-0.055-0.103,0.005-0.151c0.341-0.397,0.79-0.506,1.291-0.514
			c0.56-0.009,1.12-0.016,1.68-0.016c79.632,0,159.264-0.002,238.895,0.015c1,0,2.102-0.34,2.971,0.515
			c0.24,1.03,0.202,2.075,0.179,3.12c-81.666,0-163.332,0-244.998,0C175.506,359.062,175.56,358.072,175.698,357.081z"/>
		<path fill="#39BC30" d="M175.698,357.081c0.007,0.99,0.015,1.979,0.022,2.969c-0.066,0-0.132,0-0.198,0
			C175.502,359.056,175.45,358.06,175.698,357.081z"/>
		<path fill="#3ABE31" d="M185.152,322.371c2.811-4.311,6.203-8.094,10.253-11.279c0.478,0.267,1.001,0.239,1.521,0.239
			c67.463-0.001,134.926-0.001,202.389,0c0.52,0,1.043,0.027,1.521-0.239c4.046,3.188,7.442,6.966,10.251,11.278
			c-0.309,0.462-0.789,0.495-1.277,0.512c-0.68,0.024-1.36,0.018-2.039,0.018c-23.716,0.001-47.432,0-71.147,0
			c-49.507,0-99.015,0-148.522-0.001c-0.6,0-1.2,0.007-1.799-0.025C185.856,322.851,185.415,322.814,185.152,322.371z"/>
		<path fill="#32AE2A" d="M175.498,473.331c-0.012-0.316-0.025-0.632-0.038-0.948c0.004-1.201,0.008-2.403,0.012-3.604
			c0.003-0.403,0.007-0.805,0.01-1.208c81.758,0,163.517,0,245.275,0c0.003,0.402,0.005,0.804,0.008,1.206
			c0.004,1.202,0.008,2.404,0.012,3.606c-0.011,0.316-0.023,0.633-0.035,0.949c-0.301,0.371-0.704,0.493-1.166,0.507
			c-0.6,0.018-1.199,0.022-1.799,0.022c-79.771,0.001-159.543,0.002-239.314-0.016C177.467,473.844,176.362,474.202,175.498,473.331
			z"/>
		<path fill="#FEFEFE" d="M315.616,391.794c0.25,0.391,0.567,0.715,0.957,0.966c2.101,2.268,4.281,4.458,6.519,6.59
			c3.123,3.179,6.186,6.419,9.388,9.516c2.25,2.177,3.535,4.659,3.366,7.823c-0.111,0.61-0.221,1.22-0.332,1.829
			c-0.68,1.783-1.847,3.206-3.186,4.545c-3.923,3.923-7.796,7.897-11.688,11.851c-1.428,1.276-2.768,2.64-4.054,4.059
			c-0.355,0.609-0.849,1.085-1.425,1.482c-2.646,2.642-5.301,5.274-7.936,7.927c-3.977,4.006-7.632,4.423-12.382,1.389
			c-1.562-1.519-2.625-3.312-3-5.481c-0.204-1.719,0.282-3.361,0.556-5.027c1.372-2.125,3.158-3.878,4.999-5.583
			c2.178-1.859,4.065-4.013,6.105-6.011c0.936-0.917,1.822-1.884,2.73-2.829c-0.417-0.21-0.865-0.105-1.297-0.105
			c-11.827-0.007-23.654-0.003-35.481-0.013c-0.423,0-0.879,0.153-1.273-0.148c-2.126-0.443-4.16-1.047-5.663-2.788
			c-0.648-0.75-1.038-1.641-1.563-2.456c-1.566-2.635-1.329-5.271,0.058-7.87c0.572-1.072,1.139-2.212,2.555-2.422
			c1.25-0.837,2.541-1.576,4.074-1.755c0.431-0.136,0.874-0.069,1.311-0.069c11.96-0.004,23.92,0.001,35.88-0.025
			c0.386-0.001,0.978,0.382,1.202-0.334c-2.203-1.94-3.9-4.374-6.131-6.288c-1.601-1.643-3.182-3.306-4.811-4.922
			c-1.047-1.038-1.984-2.142-2.648-3.465c-0.441-0.164-0.088-0.78-0.535-0.941c-0.024-0.398-0.048-0.796-0.072-1.194
			c-0.132-0.876-0.125-1.753-0.004-2.629c0.052-1.319,0.704-2.429,1.253-3.574c2.732-3.662,6.333-4.444,10.55-3.183
			c1.419,0.694,2.571,1.721,3.673,2.838C310.061,386.283,312.846,389.031,315.616,391.794z"/>
		<path fill="#2FA827" d="M200.684,534.743c-6.105-3.755-11.167-8.594-15.143-14.563c-0.246-0.757,0.291-0.902,0.82-0.997
			c0.511-0.091,1.037-0.061,1.556-0.061c73.453-0.002,146.907-0.002,220.36,0c0.52,0,1.043-0.023,1.557,0.057
			c0.437,0.068,0.894,0.158,0.871,0.768c-1.611,2.755-3.782,5.051-5.983,7.323c-2.657,2.743-5.661,5.064-8.782,7.242
			c-0.083,0.058-0.232,0.023-0.35,0.031c-0.595-0.515-1.309-0.498-2.038-0.497c-14.915,0.007-29.829,0.005-44.744,0.005
			c-48.663,0-97.325,0-145.988,0.004C202.044,534.055,201.177,533.838,200.684,534.743z"/>
		<path fill="#30AA28" d="M237.156,543.609c-0.998,0.02-1.999,0.075-2.981-0.176C235.168,543.485,236.182,543.205,237.156,543.609z"
			/>
		<path fill="#30AA28" d="M362.066,543.432c-0.982,0.251-1.983,0.196-2.981,0.176C360.058,543.205,361.072,543.484,362.066,543.432z
			"/>
		<path fill="#30AA28" d="M232.115,543.366c-0.595,0.035-1.189,0.048-1.759-0.173C230.946,543.211,231.556,543.029,232.115,543.366z
			"/>
		<path fill="#30AA28" d="M365.884,543.193c-0.57,0.22-1.164,0.208-1.759,0.172C364.684,543.029,365.294,543.211,365.884,543.193z"
			/>
		<path fill="#30AA28" d="M228.996,543.13c-0.516,0.038-1.027,0.035-1.514-0.178C227.992,542.961,228.521,542.811,228.996,543.13z"
			/>
		<path fill="#30AA28" d="M368.759,542.953c-0.487,0.213-0.998,0.215-1.514,0.177C367.719,542.811,368.248,542.961,368.759,542.953z
			"/>
		<path fill="#30AA28" d="M370.927,542.715c-0.405,0.22-0.842,0.213-1.283,0.18C370.039,542.601,370.49,542.709,370.927,542.715z"/>
		<path fill="#30AA28" d="M226.596,542.895c-0.441,0.033-0.878,0.04-1.283-0.18C225.75,542.709,226.201,542.6,226.596,542.895z"/>
		<path fill="#32AE2A" d="M315.162,440.455c0.475-0.494,0.95-0.988,1.425-1.482c-0.053,0.809-0.888,1.077-1.186,1.717
			C315.321,440.612,315.241,440.534,315.162,440.455z"/>
		<path fill="#FEFEFE" d="M369.151,408.318c2.162,2.477,2.815,5.425,2.691,8.616c0.081,2.708-1.088,4.922-2.771,6.918
			c-1.979,2.348-4.597,3.49-7.571,3.941c-0.87-0.267-1.815,0.264-2.659-0.258c-0.281-0.133-0.49,0.003-0.688,0.182
			c-0.519-0.35-1.247-0.172-1.706-0.674c-2.21-1.002-4.147-2.355-5.589-4.348c-1.3-1.795-1.953-3.817-2.141-6.007
			c-0.119-0.639-0.126-1.278,0.005-1.916c0.269-5.232,4.348-9.352,8.728-10.151c1.206-0.22,2.443-0.268,3.666-0.395
			c0.421,0.2,0.899-0.003,1.321,0.187c2.167,0.544,4.166,1.414,5.804,2.985C368.551,407.699,368.848,408.012,369.151,408.318z"/>
		<path fill="#33B12B" d="M361.727,427.54c5.808-1.022,9.289-4.672,10.115-10.606c0.066,0.158,0.133,0.317,0.199,0.475
			c-0.172,4.994-4.846,9.897-9.841,10.321C361.944,427.911,361.77,427.889,361.727,427.54z"/>
		<path fill="#34B22C" d="M361.727,427.54c0.158,0.063,0.316,0.127,0.474,0.19c-0.245,0.38-0.523,0.628-0.96,0.239
			c-0.48-0.189-0.96-0.193-1.44,0c-0.578,0.427-0.808,0.083-0.96-0.434C359.802,427.538,360.765,427.539,361.727,427.54z"/>
		<path fill="#34B22C" d="M356.446,427.045c0.607,0.128,1.304,0.026,1.706,0.674C357.475,427.77,356.826,427.747,356.446,427.045z"
			/>
		<path fill="#36B72E" d="M348.721,414.775c-0.002,0.639-0.004,1.277-0.005,1.916c-0.065,0-0.13,0-0.196-0.001
			C348.585,416.052,348.357,415.382,348.721,414.775z"/>
		<path fill="#32AF2A" d="M359.8,427.97c0.48-0.439,0.96-0.258,1.44,0C360.76,427.97,360.28,427.97,359.8,427.97z"/>
		<path fill="#FEFEFE" d="M224.397,414.775c0.012-2.143,0.881-3.992,1.975-5.765c3.498-4.685,9.266-5.834,14.283-3.81
			c1.995,0.805,3.498,2.271,4.879,3.872c0.69,0.102,0.949,0.656,1.225,1.183c1.062,2.028,1.344,4.205,1.226,6.459
			c-0.108,0.404-0.246,0.794-0.535,1.111c-0.182,0.236-0.205,0.507-0.177,0.789c-0.348,2.717-1.868,4.741-3.852,6.484
			c-1.54,1.353-3.394,2.041-5.355,2.495c-0.302,0.005-0.608,0.072-0.899-0.066c-3.952,0.359-7.194-1.1-9.921-3.876
			c-1.58-1.975-2.595-4.189-2.847-6.726C224.273,416.209,224.278,415.492,224.397,414.775z"/>
		<path fill="#35B42D" d="M247.525,416.696c0.109-2.743-0.512-5.295-1.992-7.624c0.148-0.573,0.61-0.54,1.051-0.54
			c5.288-0.001,10.577,0.001,15.865-0.002c0.456,0,0.879,0.048,1.122,0.508c-3.126,2.858-3.825,6.333-2.614,10.292
			c-0.287-0.043-0.629-0.128-0.651-0.43c-0.082-1.122-0.861-1.017-1.628-1.014c-2.547,0.011-5.094-0.005-7.641,0.008
			c-1.114,0.006-2.225,0.011-3.318-0.244C247.467,417.371,247.709,416.989,247.525,416.696z"/>
		<path fill="#33B02B" d="M268.184,424.574c12.475-0.003,24.949-0.006,37.424-0.004c0.23,0,0.46,0.064,0.689,0.104
			c0.011,0.002,0.027,0.059,0.017,0.079c-0.017,0.034-0.052,0.059-0.08,0.088c-12.396,0.003-24.791,0.009-37.187-0.009
			C268.777,424.832,268.319,425.145,268.184,424.574z"/>
		<path fill="#33B12B" d="M238.032,427.448c4.815-1.13,7.893-4.077,9.241-8.834c0.16,0.198,0.228,0.428,0.162,0.67
			c-1.034,3.761-4.583,7.791-8.84,8.21C238.395,427.631,238.204,427.648,238.032,427.448z"/>
		<path fill="#34B22C" d="M236.844,427.965c-0.544,0.323-0.933,0.308-1.46-0.043C235.922,427.665,236.31,427.666,236.844,427.965z"
			/>
		<path fill="#33B12B" d="M247.525,416.696c0.234,0.283,0.187,0.624,0.196,0.954c-0.033,0.143-0.066,0.286-0.099,0.429
			c-0.057-0.085-0.114-0.169-0.171-0.254C247.475,417.449,247.5,417.072,247.525,416.696z"/>
		<path fill="#32AF2A" d="M238.032,427.448c0.188,0.015,0.376,0.031,0.563,0.046c-0.468,0.34-0.945,0.315-1.428,0.033
			C237.456,427.501,237.744,427.475,238.032,427.448z"/>
		<path fill="#38BA2F" d="M291.838,387.416c0.001,0.876,0.003,1.753,0.004,2.629C291.52,389.169,291.526,388.293,291.838,387.416z"
			/>
		<path fill="#37B82E" d="M362.436,404.416c-0.452,0.021-0.899,0.01-1.32-0.187C361.563,404.239,362.03,404.111,362.436,404.416z"/>
		<path fill="#37B82E" d="M306.039,406.855c0.304,0.017,0.36,0.251,0.129,0.328c-0.325,0.108-0.709,0.045-1.067,0.046
			c-11.249,0.001-22.499-0.001-33.748,0.003c-1.236,0-2.471,0.034-3.707,0.052c0.475-0.309,1.01-0.192,1.52-0.192
			c11.789-0.006,23.579-0.003,35.368-0.01C305.041,407.081,305.581,407.215,306.039,406.855z"/>
		<path fill="#37B72E" d="M224.397,414.775c0.001,0.717,0.002,1.434,0.003,2.15C224.092,416.209,224.094,415.492,224.397,414.775z"
			/>
		<path fill="#30AA28" d="M410.706,519.946c-0.549-0.497-1.222-0.286-1.839-0.286c-61.213-0.01-122.425-0.009-183.638-0.009
			c-12.714,0-25.429-0.004-38.143,0.013c-0.542,0.001-1.249-0.301-1.544,0.517c-2.804-3.923-5.008-8.148-6.423-12.77
			c0.293-0.386,0.703-0.492,1.163-0.508c0.64-0.022,1.279-0.022,1.919-0.022c77.212-0.001,154.424-0.001,231.637,0
			c0.64,0,1.279-0.006,1.919,0.024c0.451,0.021,0.883,0.077,1.153,0.506c-0.065,1.535-0.821,2.867-1.449,4.18
			c-1.285,2.686-2.553,5.399-4.268,7.857C411.06,519.635,410.869,519.781,410.706,519.946z"/>
		<path fill="#30AA28" d="M416.908,507.41c-79.263,0-158.527,0-237.79,0c-1.125-3.53-1.923-7.132-2.398-10.806
			c0.233-0.563,0.697-0.719,1.256-0.739c0.64-0.023,1.279-0.025,1.919-0.025c68.221,0,136.443-0.002,204.665,0
			c10.717,0,21.434-0.006,32.151,0c0.52,0,1.041-0.015,1.559,0.034c1.059,0.102,1.201,0.308,1.065,1.496
			c-0.465,2.268-0.895,4.545-1.41,6.801C417.674,505.273,417.483,506.406,416.908,507.41z"/>
		<path fill="#31AD29" d="M420.802,480.063c0,0.478-0.001,0.957-0.001,1.435c-0.102,1.598-0.205,3.195-0.307,4.793
			c-0.297,0.379-0.703,0.493-1.164,0.508c-0.6,0.019-1.199,0.022-1.799,0.022c-79.603,0.001-159.207,0.002-238.81-0.015
			c-1.001,0-2.101,0.334-2.972-0.515c-0.017-0.448-0.033-0.897-0.05-1.345c-0.262-0.978,0.053-1.99-0.176-2.97
			c-0.027-0.159-0.055-0.318-0.082-0.478c-0.001-0.478-0.001-0.957-0.002-1.435c-0.001-0.56-0.001-1.12-0.002-1.68
			c0.002-0.487,0.004-0.973,0.006-1.46c0,0,0.087,0.023,0.087,0.023c0.282-0.4,0.693-0.504,1.153-0.521
			c0.64-0.024,1.28-0.024,1.92-0.024c79.679-0.001,159.357-0.001,239.036,0c0.64,0,1.28-0.001,1.92,0.024
			c0.46,0.017,0.871,0.122,1.153,0.521c0,0,0.087-0.024,0.087-0.024c0.002,0.487,0.003,0.973,0.005,1.46
			C420.803,478.942,420.802,479.502,420.802,480.063z"/>
		<path fill="#30AB29" d="M419.334,497.372c0.086-1.039-0.609-1.008-1.333-1.006c-5.478,0.009-10.955,0.005-16.433,0.005
			c-59.172,0-118.345,0-177.517,0c-15.191,0-30.381-0.001-45.572,0.003c-0.594,0-1.206-0.093-1.759,0.232
			c-0.189-0.922-0.383-1.843-0.303-2.794c-0.208-0.405,0.013-0.869-0.178-1.276c-0.022-0.361-0.044-0.723-0.067-1.084
			c-0.087-0.155-0.077-0.303,0.03-0.444c0.325-0.357,0.756-0.411,1.205-0.427c0.68-0.024,1.359-0.019,2.039-0.019
			c79.094,0,158.187-0.001,237.281,0c0.76,0,1.521-0.029,2.278,0.038c0.514,0.046,1.077,0.071,1.075,0.816
			C420.032,493.425,419.781,495.411,419.334,497.372z"/>
		<path fill="#30AB29" d="M420.08,491.414c-0.21-0.306-0.528-0.324-0.854-0.323c-0.4,0.001-0.8-0.001-1.2-0.001
			c-80.593,0-161.187,0-241.78,0c-0.348-0.25-0.031-0.671-0.246-0.955c-0.021-0.448-0.042-0.896-0.063-1.343
			c-0.24-0.656,0.041-1.359-0.178-2.017c-0.004-0.161-0.007-0.323-0.011-0.484c81.582,0,163.163,0,244.745,0
			C420.512,488.011,420.377,489.719,420.08,491.414z"/>
		<path fill="#3ABE31" d="M185.152,322.371c75.312,0,150.623-0.001,225.935-0.001c1.632,2.427,2.915,5.05,4.202,7.662
			c1.018,2.066,1.727,4.266,2.327,6.494c-0.459,0.21-0.946,0.119-1.42,0.119c-78.717,0.005-157.434,0.005-236.15,0
			c-0.474,0-0.962,0.091-1.421-0.118C179.842,331.367,182.206,326.734,185.152,322.371z"/>
		<path fill="#39BC30" d="M420.539,356.93c-81.612,0-163.225,0-244.837,0c0.043-3.626,0.352-7.227,0.979-10.8
			c0.306-0.361,0.704-0.495,1.169-0.508c0.6-0.017,1.199-0.022,1.799-0.022c78.981-0.001,157.962-0.002,236.943,0.015
			c0.998,0,2.101-0.346,2.968,0.515C420.186,349.703,420.496,353.304,420.539,356.93z"/>
		<path fill="#39BC30" d="M419.56,346.13c-80.959,0-161.919,0-242.878,0c0.33-3.184,0.928-6.313,1.898-9.367
			c0.512-0.316,1.085-0.23,1.639-0.23c39.197-0.003,78.395-0.003,117.592-0.003c39.277,0,78.554-0.001,117.83,0.006
			c0.668,0,1.366-0.152,1.995,0.233C418.645,339.814,419.228,342.947,419.56,346.13z"/>
		<path fill="#39BC30" d="M417.636,336.77c-39.024,0-78.049,0.001-117.073,0c-40.661-0.001-81.322-0.004-121.982-0.007
			c0.015-0.078,0.03-0.157,0.045-0.235c0.475-0.278,1.001-0.238,1.52-0.238c78.651,0,157.301,0,235.952,0
			c0.519,0,1.044-0.039,1.52,0.236C417.623,336.608,417.629,336.689,417.636,336.77z"/>
		<path fill="#31AD29" d="M175.523,481.975c0.401,0.969,0.12,1.979,0.176,2.969C175.452,483.966,175.502,482.97,175.523,481.975z"/>
		<path fill="#31AD29" d="M175.759,486.775c0.367,0.645,0.146,1.341,0.178,2.016C175.696,488.135,175.73,487.455,175.759,486.775z"
			/>
		<path fill="#31AD29" d="M176.238,492.535c0.291,0.393,0.181,0.842,0.178,1.276C176.196,493.408,176.205,492.973,176.238,492.535z"
			/>
		<path fill="#31AD29" d="M176.001,490.135c0.241,0.277,0.179,0.633,0.245,0.955c-0.025,0.12-0.049,0.24-0.074,0.36
			C175.952,491.033,175.966,490.585,176.001,490.135z"/>
		<path fill="#31AD29" d="M420.711,476.946c-0.4-0.005-0.799-0.015-1.199-0.015c-80.928-0.001-161.856-0.001-242.784,0
			c-0.4,0-0.799,0.009-1.199,0.015c-0.026-0.561-0.051-1.121-0.077-1.682c0.015-0.644,0.03-1.289,0.045-1.933
			c81.749,0,163.498,0,245.246,0c0.015,0.644,0.029,1.288,0.045,1.932C420.763,475.824,420.737,476.385,420.711,476.946z"/>
	</g>
</g>
</svg>
