<?xml version="1.0" encoding="utf-8"?>
<!-- Generator: Adobe Illustrator 17.0.0, SVG Export Plug-In . SVG Version: 6.00 Build 0)  -->
<!DOCTYPE svg PUBLIC "-//W3C//DTD SVG 1.1//EN" "http://www.w3.org/Graphics/SVG/1.1/DTD/svg11.dtd">
<svg version="1.1" id="Layer_1" xmlns="http://www.w3.org/2000/svg" xmlns:xlink="http://www.w3.org/1999/xlink" x="0px" y="0px"
	 width="595.28px" height="841.89px" viewBox="0 0 595.28 841.89" enable-background="new 0 0 595.28 841.89" xml:space="preserve">
<g>
	<g>
		<path fill="#FEFEFE" d="M251,373.89c30.833,0,61.667,0.053,92.5-0.085c2.984-0.013,3.6,0.601,3.585,3.585
			c-0.14,29.666-0.14,59.333,0,88.999c0.014,2.984-0.601,3.6-3.585,3.585c-29.666-0.14-59.333-0.14-88.999,0
			c-2.984,0.014-3.599-0.601-3.585-3.585C251.053,435.557,251,404.723,251,373.89z"/>
		<path fill="#607D8A" d="M334.835,445.851c0.734,14.027,0.734,14.027-13.155,14.027c-16.615,0-33.231,0.002-49.846-0.001
			c-8.622-0.001-8.85-0.229-8.827-9.052c0.004-1.658,0.103-3.316,0.158-4.974c2.058-1.822,4.599-1.396,7.01-1.447
			c5.059-0.107,10.122,0.119,15.178-0.206c1.487-0.208,2.935,0.292,4.415,0.229c6.138-0.033,12.277-0.04,18.415-0.01
			c1.481,0.079,2.935-0.411,4.422-0.23c5.393,0.379,10.794,0.095,16.189,0.213C330.903,444.446,333.092,444.245,334.835,445.851z"/>
		<path fill="#F34336" d="M309.001,445.719c-6.667,0-13.335,0-20.002,0c-2.754-3.836-0.536-8.386-1.8-12.427
			c-0.966-2.739-5.99-1.98-5.312-6.136c6.053-13.003,17.932-17.076,27.745-9.466c3.368,2.612,5.255,6.256,6.653,10.188
			c-0.447,3.234-4.362,2.944-5.518,5.457C309.549,437.378,311.749,441.904,309.001,445.719z"/>
		<path fill="#FEB74E" d="M308.834,402.974c-4.431,9.011-15.197,9.066-19.677-0.013c-1.844-1.607-1.438-3.644-1.096-5.673
			c1.704-5.323,5.306-8.51,10.927-8.517c5.624-0.007,9.233,3.167,10.947,8.503C310.29,399.312,310.695,401.365,308.834,402.974z"/>
		<path fill="#56707C" d="M282.963,401.969c-2.646-1.212-2.13-3.527-1.764-5.598c1.475-8.346,9.077-14.464,17.796-14.458
			c8.721,0.006,16.318,6.118,17.804,14.459c0.369,2.072,0.881,4.385-1.762,5.599c-1.315-1.745-1.672-4.303-4.238-4.988
			c-1.106-5.612-4.736-8.724-10.169-9.526c-5.276-0.779-9.362,1.565-12.365,5.875c-0.665,0.955-1.132,2.039-1.88,2.942
			C284.416,397.672,284.565,400.349,282.963,401.969z"/>
		<path fill="#FEB750" d="M281.887,427.155c0.977,2.97,4.405,2.615,6.154,4.538c-0.753,4.555-3.257,8.05-6.666,11.004
			c-2.217,0.551-4.421,1.015-6.229-0.991C277.393,436.856,279.64,432.006,281.887,427.155z"/>
		<path fill="#FEB74F" d="M309.958,431.691c2.109-1.272,4.218-2.545,6.327-3.815c2.167,4.614,4.332,9.226,6.498,13.838
			c-1.798,1.984-3.98,1.522-6.176,0.977C313.244,439.723,310.69,436.258,309.958,431.691z"/>
		<path fill="#465B65" d="M275.146,441.706c2.245,0,4.489,0,6.734-0.001c2.74-0.713,4.137,0.318,4.128,3.177
			c-4.358,2.134-8.988,0.617-13.48,0.961c-3.103,0.238-6.241,0.021-9.363,0.007c-0.119-3.179,2.005-3.846,4.527-3.963
			C270.174,441.772,272.661,441.762,275.146,441.706z"/>
		<path fill="#465B65" d="M316.081,441.703c2.235,0.004,4.47,0.008,6.703,0.012c2.574,0.055,5.153,0.04,7.723,0.186
			c2.448,0.139,4.465,0.906,4.327,3.95c-6.08,0.014-12.161,0.064-18.241,0.016c-1.57-0.012-3.335,0.568-4.602-0.984
			C311.976,442.05,313.354,441.009,316.081,441.703z"/>
		<path fill="#495E67" d="M282.963,401.969c0.283-2.427-0.96-5.633,3.123-6.12c1.671-0.88,2.547-0.228,2.872,1.489
			c0.066,1.874,0.133,3.749,0.199,5.623c-0.562,1.763-1.753,2.964-3.607,2.646C283.738,405.296,282.826,403.896,282.963,401.969z"/>
		<path fill="#4A5E68" d="M310.638,396.674c4.873-1.063,4.496,2.233,4.399,5.297c0.059,2.017-0.605,3.647-2.813,3.861
			c-1.919,0.185-2.935-1.098-3.39-2.857c0.073-1.85,0.146-3.699,0.219-5.549C309.094,396.146,309.907,396.498,310.638,396.674z"/>
		<path fill="#FEFDFC" d="M286.008,444.883c-1.067-1.46-2.15-2.899-4.128-3.177c2.053-3.338,4.107-6.675,6.161-10.013
			c2.028,4.559,0.479,9.362,0.957,14.026C287.782,446.225,286.974,445.274,286.008,444.883z"/>
		<path fill="#FEFDFC" d="M316.081,441.703c-1.952,0.303-3.03,1.73-4.089,3.18c-0.965,0.392-1.775,1.343-2.991,0.836
			c0.477-4.665-1.069-9.468,0.957-14.028C311.999,435.028,314.04,438.365,316.081,441.703z"/>
		<path fill="#FCFCFB" d="M310.638,396.674c-0.528,0.25-1.056,0.5-1.585,0.751c-4.277-7.193-9.47-9.209-15.183-6.073
			c-2.503,1.374-3.4,3.892-4.912,5.986c-0.957-0.496-1.914-0.992-2.871-1.488c1.489-5.971,5.389-9.2,11.872-9.83
			c5.505-0.535,11.313,2.764,13.53,7.363C312.263,394.99,311.724,395.785,310.638,396.674z"/>
	</g>
</g>
</svg>
