<?xml version="1.0" encoding="utf-8"?>
<!-- Generator: Adobe Illustrator 17.0.0, SVG Export Plug-In . SVG Version: 6.00 Build 0)  -->
<!DOCTYPE svg PUBLIC "-//W3C//DTD SVG 1.1//EN" "http://www.w3.org/Graphics/SVG/1.1/DTD/svg11.dtd">
<svg version="1.1" id="Layer_1" xmlns="http://www.w3.org/2000/svg" xmlns:xlink="http://www.w3.org/1999/xlink" x="0px" y="0px"
	 width="595.28px" height="841.89px" viewBox="0 0 595.28 841.89" enable-background="new 0 0 595.28 841.89" xml:space="preserve">
<g>
	<g>
		<path fill="#FEFEFE" d="M299,469.89c-15,0-30.001-0.068-44.999,0.067c-2.503,0.023-3.074-0.567-3.065-3.067c0.1-30,0.1-60,0-90
			c-0.008-2.5,0.565-3.073,3.065-3.065c30,0.1,60,0.1,90,0c2.5-0.008,3.073,0.564,3.065,3.065c-0.1,30-0.1,60,0,90
			c0.008,2.5-0.562,3.09-3.065,3.067C329.001,469.822,314,469.89,299,469.89z"/>
		<path fill="#8D6E63" d="M317.1,407.734c1.003,7.632,2.007,15.265,3.01,22.897c1.403,1.45,1.481,3.327,1.288,5.097
			c-0.515,4.729-0.635,9.501-1.493,14.187c-2.732,1.86-4.058,4.338-3.648,7.747c0.173,1.44-0.096,2.926-1.207,4.072
			c-1.367,0-2.734,0-4.101,0c-2.42-3.026-0.48-6.817-1.871-10.442c-1.687,3.517,0.44,7.468-2.028,10.442c-0.7,0-1.401,0-2.101,0
			c-2.603-4.563-1.235-9.425-1.082-14.194c0.915-2.703,0.785-5.509,0.767-8.301c0.09-2.937-0.07-5.869-0.263-8.802
			c0.114-1.382,0.551-2.618,1.627-3.562c0.967-6.381,1.934-12.761,2.901-19.142C311.633,408.78,314.366,408.778,317.1,407.734z"/>
		<path fill="#8D6E63" d="M293.05,461.734c-0.7,0-1.401,0-2.101,0c-2.42-3.026-0.48-6.817-1.871-10.442
			c-1.687,3.517,0.44,7.468-2.028,10.442c-1.367,0-2.734,0-4.101,0c-1.105-1.14-1.365-2.615-1.204-4.051
			c0.376-3.363-0.782-5.903-3.621-7.721c-0.91-4.702-0.992-9.487-1.525-14.224c-0.2-1.772-0.116-3.654,1.291-5.106
			c1.003-7.633,2.006-15.266,3.009-22.898c2.733,1.048,5.467,1.046,8.2,0.002c0.678,4.947,1.321,9.899,2.061,14.837
			c0.177,1.179-0.667,2.663,0.894,3.498c1.165,1.223,1.445,2.766,1.583,4.363c-0.232,2.911-0.354,5.826-0.274,8.75
			c-0.008,2.794-0.155,5.596,0.759,8.308C294.277,452.278,295.671,457.159,293.05,461.734z"/>
		<path fill="#A0887F" d="M318.94,450.952c0.39-6.773,0.78-13.546,1.17-20.32c1.569-1.936,0.502-4.491,1.54-6.552
			c3.398-2.496,6.847-2.347,10.333-0.196c3.034,11.968,3.138,24.175,2.974,36.404c-0.018,1.359-0.88,1.579-1.992,1.44
			c-1.435-1.231-0.874-3.3-1.816-4.949c-1.45,1.56-0.587,3.757-2.112,4.949c-1.357,0-2.715,0-4.072,0
			c-1.884-1.806-0.669-4.462-1.961-6.912c-1.329,2.327-0.074,5.141-1.966,6.912c-0.705,0.006-1.41,0.013-2.115,0.019
			C316.869,458.146,316.813,454.547,318.94,450.952z"/>
		<path fill="#A0887F" d="M277.89,430.631c0.39,6.774,0.78,13.547,1.17,20.321c2.127,3.595,2.07,7.194,0.018,10.796
			c-0.705-0.006-1.41-0.013-2.115-0.019c-1.884-1.806-0.669-4.462-1.961-6.912c-1.329,2.327-0.074,5.141-1.966,6.912
			c-1.357,0-2.715,0-4.072,0c-1.525-1.193-0.662-3.389-1.964-4.79c-1.302,1.401-0.439,3.597-1.964,4.79
			c-2.564,0.318-1.985-1.597-2.02-2.949c-0.304-11.655,0.492-23.229,2.633-34.7c3.398-2.496,6.847-2.346,10.333-0.195
			C277.632,425.847,276.214,428.677,277.89,430.631z"/>
		<path fill="#5D4037" d="M293.072,429.952c-1.522-0.984-0.889-2.534-1.017-3.883c5.753-1.644,6.944-4.722,3.754-9.837
			c-1.246-1.999-1.067-3.83,0.659-5.344c1.562-1.37,3.379-1.385,4.996-0.064c1.596,1.304,1.964,3.021,1.045,4.908
			c-3.113,6.39-2.784,7.462,3.49,11.142c-0.091,1.118,0.181,2.363-1.07,3.078c-1.33,3.632,0.539,7.242,0.078,10.87
			c-0.016,1.998,1.096,3.977,0.088,5.987c-0.048,4.975-0.097,9.949-0.145,14.924c-3.966,0-7.933,0-11.899,0
			c-0.049-4.974-0.097-9.948-0.146-14.922c-0.798-2.019-0.334-4.029,0.045-6.037C292.583,437.164,294.39,433.576,293.072,429.952z"
			/>
		<path fill="#BCABA5" d="M272.068,401.93c1.226,6.035,2.452,12.069,3.678,18.104c-3.164,1.841-6.328,1.842-9.492-0.001
			c1.226-6.034,2.452-12.068,3.678-18.103C270.644,401.356,271.356,401.356,272.068,401.93z"/>
		<path fill="#BCABA5" d="M328.068,401.93c1.226,6.035,2.452,12.069,3.678,18.104c-3.164,1.841-6.328,1.842-9.492-0.001
			c1.226-6.034,2.452-12.068,3.678-18.103C326.644,401.356,327.356,401.356,328.068,401.93z"/>
		<path fill="#A38A81" d="M314.033,387.913c0.934,6.02,1.868,12.039,2.801,18.059c-2.557,1.776-5.113,1.776-7.669-0.001
			c0.934-6.02,1.867-12.039,2.801-18.059C312.656,387.36,313.344,387.36,314.033,387.913z"/>
		<path fill="#A38A81" d="M286.033,387.913c0.934,6.02,1.868,12.039,2.801,18.059c-2.557,1.776-5.113,1.776-7.669-0.001
			c0.934-6.02,1.867-12.039,2.801-18.059C284.656,387.36,285.344,387.36,286.033,387.913z"/>
		<path fill="#5D4037" d="M307.05,461.733c-0.003-3.664-0.041-7.328,0.012-10.991c0.018-1.227,0.464-2.423,1.938-2.423
			c1.474,0,1.921,1.196,1.938,2.423c0.052,3.663,0.014,7.327,0.011,10.991C309.65,461.734,308.35,461.734,307.05,461.733z"/>
		<path fill="#5D4037" d="M287.05,461.733c-0.003-3.664-0.041-7.328,0.011-10.991c0.018-1.228,0.464-2.423,1.938-2.423
			c1.474,0,1.92,1.196,1.938,2.423c0.052,3.663,0.014,7.327,0.011,10.991C289.65,461.734,288.35,461.734,287.05,461.733z"/>
		<path fill="#A38B82" d="M272.068,401.93c-0.712,0-1.424,0-2.136,0c-2.048-1.162-3.498-2.722-2.692-5.246
			c0.545-1.707,1.866-2.731,3.76-2.743c1.667-0.011,2.913,0.821,3.559,2.292C275.756,398.959,274.284,400.635,272.068,401.93z"/>
		<path fill="#A38B82" d="M328.068,401.93c-0.712,0-1.424,0-2.136,0c-2.048-1.162-3.497-2.722-2.692-5.246
			c0.545-1.707,1.866-2.731,3.76-2.743c1.667-0.011,2.913,0.821,3.559,2.292C331.756,398.959,330.284,400.635,328.068,401.93z"/>
		<path fill="#715147" d="M314.033,387.913c-0.689,0-1.378,0-2.067,0c-2.071-1.078-3.47-2.599-2.783-5.099
			c0.472-1.718,1.732-2.77,3.572-2.885c1.843-0.115,3.227,0.764,3.887,2.433C317.702,385.045,316.289,386.712,314.033,387.913z"/>
		<path fill="#715147" d="M286.033,387.913c-0.689,0-1.378,0-2.067,0c-2.071-1.078-3.47-2.599-2.783-5.099
			c0.472-1.718,1.732-2.77,3.572-2.885c1.843-0.115,3.227,0.764,3.887,2.433C289.702,385.045,288.289,386.712,286.033,387.913z"/>
		<path fill="#5D4037" d="M318.94,450.952c-0.006,3.599-0.012,7.197-0.018,10.796c-1.29-0.005-2.581-0.01-3.871-0.015
			c-0.01-2.933-0.134-5.871,0.002-8.797C315.178,450.243,316.55,449.472,318.94,450.952z"/>
		<path fill="#5D4037" d="M279.078,461.748c-0.006-3.599-0.012-7.198-0.018-10.796c2.39-1.48,3.762-0.709,3.887,1.985
			c0.136,2.926,0.013,5.864,0.002,8.797C281.659,461.739,280.369,461.743,279.078,461.748z"/>
		<path fill="#8D6E63" d="M322.254,420.033c3.164,0,6.328,0.001,9.492,0.001c0.078,1.284,0.157,2.567,0.235,3.851
			c-3.444,0.065-6.887,0.13-10.332,0.195C320.9,422.589,322.46,421.443,322.254,420.033z"/>
		<path fill="#8D6E63" d="M266.254,420.033c3.164,0,6.328,0.001,9.492,0.001c0.078,1.284,0.157,2.567,0.235,3.851
			c-3.444,0.065-6.887,0.13-10.332,0.195C264.9,422.589,266.46,421.443,266.254,420.033z"/>
		<path fill="#8D6E63" d="M273.036,461.729c0.021-2.492-0.028-4.987,0.098-7.473c0.052-1.031,0.669-1.943,1.866-1.943
			c1.198,0,1.814,0.913,1.866,1.943c0.125,2.486,0.076,4.981,0.098,7.473C275.655,461.729,274.345,461.729,273.036,461.729z"/>
		<path fill="#8D6E63" d="M321.036,461.729c0.021-2.491-0.028-4.987,0.098-7.473c0.052-1.031,0.669-1.943,1.866-1.943
			c1.198,0,1.814,0.912,1.866,1.943c0.125,2.486,0.076,4.981,0.098,7.473C323.655,461.729,322.345,461.729,321.036,461.729z"/>
		<path fill="#6D4C41" d="M309.165,405.971c2.556,0,5.113,0,7.669,0.001c0.088,0.587,0.177,1.175,0.265,1.762
			c-2.494,3.026-5.707,3.025-8.2-0.002C308.988,407.145,309.077,406.558,309.165,405.971z"/>
		<path fill="#6D4C41" d="M281.165,405.971c2.556,0,5.113,0,7.669,0.001c0.088,0.587,0.177,1.175,0.265,1.762
			c-2.494,3.026-5.707,3.025-8.2-0.002C280.988,407.145,281.077,406.558,281.165,405.971z"/>
		<path fill="#8D6E63" d="M265.036,461.73c0.605-2.497-1.683-7.079,1.964-7.079c3.648,0,1.359,4.582,1.964,7.079
			C267.655,461.73,266.345,461.73,265.036,461.73z"/>
		<path fill="#8D6E63" d="M329.036,461.73c0.605-2.497-1.683-7.079,1.964-7.079c3.648,0,1.359,4.582,1.964,7.079
			C331.655,461.73,330.345,461.73,329.036,461.73z"/>
		<path fill="#E4DEDC" d="M304.208,440.625c-0.428-2.711-0.854-5.423-1.283-8.134c-0.248-1.57-0.378-3.044,2.003-2.538
			c2.249,2.69,0.37,5.832,0.954,8.704C305.153,439.167,306.187,441.177,304.208,440.625z"/>
		<path fill="#967B72" d="M304.208,440.625c0.559-0.655,1.117-1.311,1.675-1.967c-0.146,2.728,0.999,5.583-0.789,8.153
			C304.799,444.748,304.504,442.686,304.208,440.625z"/>
		<path fill="#E4DEDC" d="M293.072,429.952c2.364-0.502,2.255,0.955,2.006,2.529c-0.428,2.704-0.852,5.408-1.277,8.112
			c-1.982,0.588-0.955-1.437-1.683-1.938C292.701,435.783,290.823,432.642,293.072,429.952z"/>
		<path fill="#967B72" d="M292.117,438.655c0.561,0.646,1.122,1.292,1.683,1.938c-0.298,2.073-0.596,4.147-0.895,6.219
			C291.12,444.24,292.261,441.385,292.117,438.655z"/>
	</g>
</g>
</svg>
