<?xml version="1.0" encoding="utf-8"?>
<!-- Generator: Adobe Illustrator 17.0.0, SVG Export Plug-In . SVG Version: 6.00 Build 0)  -->
<!DOCTYPE svg PUBLIC "-//W3C//DTD SVG 1.1//EN" "http://www.w3.org/Graphics/SVG/1.1/DTD/svg11.dtd">
<svg version="1.1" id="Layer_1" xmlns="http://www.w3.org/2000/svg" xmlns:xlink="http://www.w3.org/1999/xlink" x="0px" y="0px"
	 width="595.28px" height="841.89px" viewBox="0 0 595.28 841.89" enable-background="new 0 0 595.28 841.89" xml:space="preserve">
<g>
	<g>
		<path fill="#FEFEFE" d="M299,469.89c-15,0-30.001-0.068-44.999,0.067c-2.503,0.023-3.074-0.567-3.065-3.067c0.1-30,0.1-60,0-90
			c-0.008-2.5,0.565-3.073,3.065-3.065c30,0.1,60,0.1,90,0c2.5-0.008,3.073,0.564,3.065,3.065c-0.1,30-0.1,60,0,90
			c0.008,2.5-0.562,3.09-3.065,3.067C329.001,469.822,314,469.89,299,469.89z"/>
		<path fill="#8AC24A" d="M269.001,421.767c0-11.32,0.092-22.64-0.062-33.958c-0.04-2.965,0.652-4.022,3.843-3.993
			c17.477,0.157,34.958,0.156,52.435,0c3.185-0.028,3.859,1.022,3.845,3.989c-0.11,22.805-0.101,45.611-0.008,68.416
			c0.011,2.739-0.654,3.75-3.583,3.73c-17.644-0.125-35.29-0.125-52.935,0c-2.924,0.021-3.619-0.98-3.588-3.726
			C269.076,444.74,269.001,433.253,269.001,421.767z"/>
		<path fill="#FDFDFC" d="M313.129,398.867c0.273,6.21-1.369,11.602-7.001,14.968c-9.079,5.426-20.575-0.873-21.127-11.483
			c-0.06-1.161-0.088-2.324-0.131-3.486c-0.812-1.739-1.168-3.447,0.569-4.864c1.005-0.82,2.116-0.82,3.121,0
			c1.737,1.416,1.381,3.124,0.569,4.864c-1.975,8.167,5.766,15.532,13.951,11.958c5.178-2.261,6.421-6.729,5.79-11.958
			c-0.812-1.739-1.168-3.447,0.569-4.864c1.005-0.82,2.116-0.82,3.121,0C314.297,395.42,313.941,397.128,313.129,398.867z"/>
		<path fill="#3A6F23" d="M289.129,398.867c-0.538-1.661,0.79-4.62-2.129-4.621c-2.92-0.001-1.593,2.959-2.13,4.62
			c-2.666-1.705-2.423-3.802-0.519-5.79c1.626-1.697,3.671-1.697,5.297,0C291.552,395.065,291.796,397.162,289.129,398.867z"/>
		<path fill="#3A6F23" d="M313.129,398.867c-0.538-1.661,0.79-4.62-2.129-4.621c-2.92-0.001-1.593,2.959-2.13,4.62
			c-2.666-1.705-2.423-3.802-0.519-5.79c1.626-1.697,3.671-1.697,5.297,0C315.552,395.065,315.796,397.162,313.129,398.867z"/>
	</g>
</g>
</svg>
