<?xml version="1.0" encoding="utf-8"?>
<!-- Generator: Adobe Illustrator 17.0.0, SVG Export Plug-In . SVG Version: 6.00 Build 0)  -->
<!DOCTYPE svg PUBLIC "-//W3C//DTD SVG 1.1//EN" "http://www.w3.org/Graphics/SVG/1.1/DTD/svg11.dtd">
<svg version="1.1" id="Layer_1" xmlns="http://www.w3.org/2000/svg" xmlns:xlink="http://www.w3.org/1999/xlink" x="0px" y="0px"
	 width="595.28px" height="841.89px" viewBox="0 0 595.28 841.89" enable-background="new 0 0 595.28 841.89" xml:space="preserve">
<g>
	<g>
		<path fill="#FEFEFE" d="M299,469.89c-15,0-30.001-0.068-44.999,0.067c-2.503,0.023-3.074-0.567-3.065-3.067c0.1-30,0.1-60,0-90
			c-0.008-2.5,0.565-3.073,3.065-3.065c30,0.1,60,0.1,90,0c2.5-0.008,3.073,0.564,3.065,3.065c-0.1,30-0.1,60,0,90
			c0.008,2.5-0.562,3.09-3.065,3.067C329.001,469.822,314,469.89,299,469.89z"/>
		<path fill="#009688" d="M291.113,440.986c-4.635,3.708-6.947,9.222-10.621,13.679c-0.95,1.153-1.756,2.423-2.642,3.63
			c-1.599,2.177-3.199,4.704-6.428,2.994c-3.411-1.807-2.425-4.49-1.117-7.27c6.079-12.924,12.077-25.885,18.089-38.84
			c0.626-1.349,1.151-2.745,1.724-4.119c0.528-4.108,1.879-7.62,6.398-8.839c4.019-0.2,7.632,0.468,9.651,4.529
			c-1.56,1.628-3.448,0.29-5.162,0.561c-1.613,0.255-2.809,0.954-3.183,2.63c-0.326,1.462,0.388,2.502,1.455,3.428
			c1.559,1.354,4.243,1.254,4.885,3.782c-0.806,2.713-3.208,4.751-3.292,7.77C298.908,431.06,295.1,436.077,291.113,440.986z"/>
		<path fill="#FE9801" d="M304.162,417.151c-1.34-0.617-2.658-1.289-4.024-1.841c-2.918-1.179-4.849-2.879-3.549-6.37
			c1.247-3.349,3.781-3.762,6.823-2.89c0.913,0.262,1.667,1.133,2.757,0.701c0.368,0.322,0.723,0.658,1.104,0.962
			c7.502,5.999,8.383,5.933,15.687-0.105c2.646-2.187,5.665-6.22,9.081-1.816c2.999,3.866-1.737,5.451-3.652,7.855
			C321.366,422.462,313.182,422.524,304.162,417.151z"/>
		<path fill="#FE9801" d="M306.764,401.878c-5.574-0.132-10.019-4.909-9.747-10.474c0.262-5.367,4.848-9.63,10.22-9.503
			c5.574,0.132,10.019,4.909,9.747,10.474C316.721,397.743,312.137,402.006,306.764,401.878z"/>
		<path fill="#FE9802" d="M296.516,402.221c-3.92,1.653-3.89,6.164-6.398,8.839c-6.697-2.306-11.302-0.13-14.021,6.393
			c-0.493,1.182-1.404,2.264-2.335,3.173c-1.475,1.439-3.241,1.676-4.928,0.324c-1.552-1.243-2.447-2.875-1.238-4.763
			c2.764-4.315,5.619-8.575,8.534-12.791c0.785-1.135,2.134-1.512,3.528-1.487C285.277,402.011,290.897,402.117,296.516,402.221z"/>
		<path fill="#02796C" d="M291.113,440.986c2.39-5.879,6.194-10.898,9.757-16.065c2.556,1.123,5.149,2.17,7.656,3.394
			c1.706,0.833,2.941,2.161,2.759,4.271c-0.167,1.933-1.557,2.873-3.178,3.369C302.458,437.685,296.78,439.317,291.113,440.986z"/>
	</g>
</g>
</svg>
