<?xml version="1.0" encoding="utf-8"?>
<!-- Generator: Adobe Illustrator 17.0.0, SVG Export Plug-In . SVG Version: 6.00 Build 0)  -->
<!DOCTYPE svg PUBLIC "-//W3C//DTD SVG 1.1//EN" "http://www.w3.org/Graphics/SVG/1.1/DTD/svg11.dtd">
<svg version="1.1" id="Layer_1" xmlns="http://www.w3.org/2000/svg" xmlns:xlink="http://www.w3.org/1999/xlink" x="0px" y="0px"
	 width="595.28px" height="841.89px" viewBox="0 0 595.28 841.89" enable-background="new 0 0 595.28 841.89" xml:space="preserve">
<g>
	<g>
		<path fill="#FEFEFE" d="M299,469.89c-15,0-30.001-0.068-44.999,0.067c-2.503,0.023-3.074-0.567-3.065-3.067c0.1-30,0.1-60,0-90
			c-0.008-2.5,0.564-3.073,3.065-3.065c30,0.1,60,0.1,90,0c2.5-0.008,3.074,0.564,3.065,3.065c-0.1,30-0.1,60,0,90
			c0.008,2.5-0.562,3.09-3.065,3.067C329.001,469.822,314,469.89,299,469.89z"/>
		<path fill="#455A64" d="M265.148,448.078c-0.046-6.969-0.315-13.945-0.075-20.905c0.23-6.656,3.191-11.736,9.86-14.038
			c1.161,0.736,1.537,1.961,1.982,3.146c1.291,6.053,3.537,11.928,3.963,16.845c0.736-4.515,1.994-10.41,4.086-16.09
			c0.505-1.146,1.061-2.261,2.057-3.079c3.767-0.681,5.566,2.189,7.846,4.274c2.26,2.067,3.371,6.49,6.221,6.297
			c2.41-0.163,3.113-4.576,4.896-6.886c0.485-0.628,1.142-1.122,1.721-1.678c2.06,0.182,3.694,0.992,4.486,3.043
			c-0.544,5.673-4.193,9.918-7.298,14.17c-1.239,1.697-4.914,1.475-7.209-0.555c-1.322-1.169-2.611-2.375-4.683-4.266
			c0,8.978-0.243,17.038,0.104,25.072c0.17,3.925-1.164,4.758-4.749,4.532c-5.79-0.364-11.609-0.268-17.415-0.366
			C269.998,453.822,267.545,450.967,265.148,448.078z"/>
		<path fill="#FDB64D" d="M290.836,400.123c0.429,4.698-3.745,6.673-5.841,9.878c-0.343,0.276-0.732,0.437-1.172,0.477
			c-1.944,0.215-3.871,0.829-5.853,0.276c-0.418-0.168-0.792-0.408-1.123-0.713c-2.034-3.062-6.285-4.773-5.738-9.409
			c0.539-5.825,4.714-7.591,9.573-8.864c5.408-1.416,8.034,0.03,9.24,5.61C290.129,398.339,290.057,399.363,290.836,400.123z"/>
		<path fill="#9FA8D9" d="M320.763,396.815c0.451,1.22,1.446,1.669,2.617,2.013c5.517,1.621,8.125,5.855,9.713,10.973
			c-0.776,0.963-1.857,1.394-3.02,1.459c-7.381,0.412-14.765,0.412-22.146,0c-1.163-0.065-2.244-0.496-3.02-1.459
			c1.689-5.518,4.654-9.801,10.641-11.326c0.661-0.168,1.131-1.087,1.69-1.658C318.413,396.338,319.588,396.337,320.763,396.815z"/>
		<path fill="#454443" d="M290.836,400.123c-1.604,1.028-1.686,0.151-1.945-1.262c-1.431-7.793-3.459-7.965-8.926-5.495
			c-3.403,1.537-8.084,1.511-7.403,7.173c-0.484,0.031-0.968,0.063-1.452,0.093c-0.05-1.969-0.347-3.968-0.103-5.899
			c0.669-5.303,5.452-9.132,10.757-8.846c4.065,0.219,8.78,4.95,9.135,9.305C291.032,396.823,290.866,398.479,290.836,400.123z"/>
		<path fill="#5C6BBF" d="M304.907,409.801c9.395,0,18.791,0,28.186,0c1.408,0.039,2.125,0.659,1.78,2.144
			c-0.306,1.319-1.268,1.85-2.501,1.889c-3.253,0.103-6.509,0.149-9.763,0.218c-4.488,1.856-8.976,2.111-13.465,0.002
			c-1.473-0.123-3.158,0.165-4.37-0.463C302.764,412.549,301.183,410.925,304.907,409.801z"/>
		<path fill="#FDB852" d="M309.145,414.054c4.49-0.001,8.979-0.001,13.467-0.002c-1.887,4.99-7.172,2.834-10.421,4.957
			c-1.716-0.687-3.295-1.576-4.484-3.042C308.185,415.329,308.665,414.691,309.145,414.054z"/>
		<path fill="#FBB650" d="M265.148,448.078c3.992,1.919,7.056,4.402,5.793,9.519C266.719,455.818,263.78,453.259,265.148,448.078z"
			/>
		<path fill="#576970" d="M284.25,410.004c0.249,0.03,0.497,0.029,0.745-0.003c1.306,0.997,0.493,3.078,2.027,3.958
			c0.047,1.086,0.124,2.18-0.887,2.947c-2.042-0.952-4.67-1.073-5.444-3.832C281.196,411.263,282.579,410.466,284.25,410.004z"/>
		<path fill="#506063" d="M276.847,410.041c0.261,0.092,0.52,0.085,0.776-0.019c1.46,0.524,2.947,1.021,2.85,3.017
			c-0.399,2.02-1.377,3.332-3.686,3.015c-1.225-1.195-1.676-2.561-0.92-4.192C276.194,411.255,276.521,410.648,276.847,410.041z"/>
		<path fill="#6572C2" d="M320.763,396.815c-1.174,1.008-2.349,1.009-3.525,0.003c-0.382-1.543,0.05-2.755,1.76-2.757
			C320.71,394.06,321.143,395.271,320.763,396.815z"/>
		<path fill="#CAD6DD" d="M275.868,411.862c0.184,1.373-0.097,2.914,1.375,3.824c-0.34,0.505-0.753,0.573-1.237,0.203
			c-1.111-0.624-0.975-1.734-1.073-2.752C275.245,412.711,275.556,412.287,275.868,411.862z"/>
		<path fill="#E0EFFA" d="M276.006,415.889c0.412-0.067,0.824-0.135,1.237-0.202c1.047-0.932,2.094-1.863,3.141-2.795l0.436,0.015
			c1.327,1.923,4.314,1.642,5.315,4c-1.646,6.365-3.291,12.729-4.936,19.094C279.019,429.231,276.689,422.754,276.006,415.889z"/>
		<path fill="#ED920A" d="M280.82,412.906c0,0-0.437-0.014-0.437-0.014c-0.919-0.957-1.838-1.914-2.758-2.87
			c2.207,0.184,4.412-0.944,6.623-0.016C283.107,410.971,281.963,411.939,280.82,412.906z"/>
	</g>
</g>
</svg>
